<svg width="56" height="38" viewBox="0 0 56 38" fill="none" xmlns="http://www.w3.org/2000/svg">
<g filter="url(#filter0_d_369_157)">
<path d="M8 8H44L37.7551 17L44 26H8V8Z" fill="url(#paint0_linear_369_157)"/>
</g>
<path d="M24.3563 11.4174L22.8916 14.5202L19.6146 15.0193C19.0269 15.1084 18.7914 15.8653 19.2176 16.2989L21.5884 18.7126L21.0277 22.1224C20.9267 22.7387 21.548 23.2004 22.0684 22.9121L25 21.3021L27.9316 22.9121C28.452 23.198 29.0733 22.7387 28.9723 22.1224L28.4116 18.7126L30.7824 16.2989C31.2086 15.8653 30.9731 15.1084 30.3854 15.0193L27.1084 14.5202L25.6437 11.4174C25.3813 10.8644 24.6209 10.8573 24.3563 11.4174Z" fill="#EDF3FF"/>
<defs>
<filter id="filter0_d_369_157" x="0" y="0" width="56" height="38" filterUnits="userSpaceOnUse" color-interpolation-filters="sRGB">
<feFlood flood-opacity="0" result="BackgroundImageFix"/>
<feColorMatrix in="SourceAlpha" type="matrix" values="0 0 0 0 0 0 0 0 0 0 0 0 0 0 0 0 0 0 127 0" result="hardAlpha"/>
<feOffset dx="2" dy="2"/>
<feGaussianBlur stdDeviation="5"/>
<feComposite in2="hardAlpha" operator="out"/>
<feColorMatrix type="matrix" values="0 0 0 0 0 0 0 0 0 0 0 0 0 0 0 0 0 0 0.16 0"/>
<feBlend mode="normal" in2="BackgroundImageFix" result="effect1_dropShadow_369_157"/>
<feBlend mode="normal" in="SourceGraphic" in2="effect1_dropShadow_369_157" result="shape"/>
</filter>
<linearGradient id="paint0_linear_369_157" x1="8" y1="17" x2="44" y2="17" gradientUnits="userSpaceOnUse">
<stop stop-color="#002366"/>
<stop offset="0.496667" stop-color="#0447C7"/>
<stop offset="1" stop-color="#002366"/>
</linearGradient>
</defs>
</svg>
