<svg width="710" height="358" viewBox="0 0 710 358" fill="none" xmlns="http://www.w3.org/2000/svg">
<g style="mix-blend-mode:hard-light" opacity="0.2">
<path style="mix-blend-mode:screen" opacity="0.01" d="M866.956 235.565C766.878 282.795 734.696 247.756 703.829 221.481C693.827 212.964 684.077 205.363 672.352 201.665C646.481 193.508 621.407 210.659 597.004 225.529C576.236 238.181 556.306 249.336 536.908 242.668C515.337 235.268 507.825 211.553 506.366 181.851C502.909 112.155 534.973 9.81881 503.676 -0.409359C459.055 -14.9919 417.749 133.904 367.692 118.831C317.635 103.758 341.031 62.6167 291.437 46.4087C245.286 31.326 236.429 71.3016 178.275 57.4828C173.885 56.439 169.234 55.094 164.279 53.4128C93.9532 29.3491 126.731 32.8477 36.1462 -8.57015" stroke="url(#paint0_linear_76_934)" stroke-width="0.671658" stroke-miterlimit="10"/>
<path style="mix-blend-mode:screen" opacity="0.02" d="M871.575 237.178C771.639 283.466 740.053 247.644 708.971 221.494C698.904 213.059 689.118 205.57 677.395 202.006C651.503 194.141 626.485 211.485 602.04 226.064C581.219 238.451 561.525 249.138 542.369 242.209C521.057 234.554 513.63 210.805 511.857 181.33C507.573 112.218 538.771 12.8712 507.183 2.54791C462.271 -12.1298 422.564 133.368 372.493 118.28C322.423 103.192 345.259 64.1012 295.74 47.9177C249.606 32.8405 241.858 71.1103 183.415 57.1352C179 56.0832 174.329 54.742 169.367 53.0794C99.2467 29.3193 131.238 33.7031 40.6179 -7.86003" stroke="url(#paint1_linear_76_934)" stroke-width="0.671658" stroke-miterlimit="10"/>
<path style="mix-blend-mode:screen" opacity="0.04" d="M875.867 238.745C776.079 284.074 745.069 247.451 713.791 221.475C703.667 213.02 693.854 205.697 682.116 202.293C656.215 194.734 631.237 212.267 606.744 226.541C585.877 238.677 566.431 248.889 547.477 241.707C526.431 233.8 519.095 209.967 516.989 180.753C511.905 112.203 542.197 15.8533 510.351 5.44571C465.185 -9.35614 427.029 132.748 376.975 117.635C326.922 102.522 349.195 65.4388 299.742 49.277C253.633 34.2079 247.003 70.7748 188.29 56.6394C183.853 55.57 179.156 54.2513 174.184 52.5953C104.235 29.2929 135.481 34.4105 44.8168 -7.30075" stroke="url(#paint2_linear_76_934)" stroke-width="0.671658" stroke-miterlimit="10"/>
<path style="mix-blend-mode:screen" opacity="0.05" d="M879.932 240.166C780.297 284.547 749.89 247.175 718.369 221.324C708.218 212.954 698.331 205.771 686.596 202.471C660.691 195.178 635.758 212.911 611.226 226.884C590.298 238.753 571.096 248.5 552.403 241.084C531.621 232.903 524.373 209.027 521.944 180.068C516.022 112.139 545.438 18.7237 513.334 8.23183C467.865 -6.62796 431.312 132.09 381.201 116.958C331.089 101.826 352.85 66.7878 303.464 50.6478C257.388 35.5896 251.887 70.4469 192.882 56.1644C188.423 55.0776 183.704 53.772 178.725 52.1346C108.978 29.1756 139.452 35.132 48.7411 -6.71797" stroke="url(#paint3_linear_76_934)" stroke-width="0.671658" stroke-miterlimit="10"/>
<path style="mix-blend-mode:screen" opacity="0.06" d="M883.72 241.559C784.231 284.988 754.417 246.843 722.695 221.102C712.458 212.765 702.551 205.73 690.826 202.567C664.908 195.599 640.006 213.517 615.434 227.189C594.469 238.809 575.466 248.086 557.045 240.399C536.525 231.953 529.425 207.992 526.611 179.308C520 111.937 548.39 21.5202 516.028 10.9441C470.285 -4.00539 435.266 131.314 385.181 116.159C335.095 101.005 356.28 67.9809 306.961 51.8626C260.901 36.8098 256.502 69.9587 197.252 55.5242C192.76 54.4265 188.029 53.1275 183.039 51.4966C113.489 28.8904 143.184 35.6828 52.4348 -6.30318" stroke="url(#paint4_linear_76_934)" stroke-width="0.671658" stroke-miterlimit="10"/>
<path style="mix-blend-mode:screen" opacity="0.07" d="M887.245 242.885C787.912 285.358 758.684 246.436 726.751 220.832C716.463 212.541 706.51 205.645 694.787 202.617C668.855 195.943 643.999 214.06 619.378 227.429C598.37 238.787 579.662 247.553 561.412 239.655C541.18 230.892 534.159 206.915 531.011 178.493C523.599 111.713 551.042 24.2495 518.456 13.6C472.421 -1.44459 439.029 130.506 388.888 115.323C338.747 100.14 359.443 69.1482 310.181 53.0489C264.139 38.0016 260.866 69.4502 201.343 54.8648C196.82 53.7469 192.07 52.4517 187.071 50.8488C117.73 28.5887 146.651 36.2292 55.8496 -5.90756" stroke="url(#paint5_linear_76_934)" stroke-width="0.671658" stroke-miterlimit="10"/>
<path style="mix-blend-mode:screen" opacity="0.09" d="M890.529 244.133C791.346 285.667 762.702 245.97 730.554 220.49C720.203 212.25 710.221 205.5 698.495 202.594C672.555 196.226 647.739 214.531 623.067 227.605C602.015 238.703 583.541 246.979 565.544 238.844C545.573 229.816 538.612 205.767 535.155 177.614C526.973 111.417 553.513 26.9405 520.636 16.1959C474.311 1.05612 442.514 129.587 392.354 114.408C342.193 99.2292 362.345 70.2407 313.15 54.1632C267.14 39.1267 264.978 68.8696 205.182 54.1333C200.634 53.0072 195.848 51.7105 190.842 50.1262C121.702 28.2096 149.831 36.7233 59.0007 -5.57741" stroke="url(#paint6_linear_76_934)" stroke-width="0.671658" stroke-miterlimit="10"/>
<path style="mix-blend-mode:screen" opacity="0.1" d="M893.565 245.321C794.519 285.901 766.493 245.439 734.118 220.091C723.707 211.893 713.691 205.275 701.956 202.51C676.011 196.439 651.234 214.933 626.523 227.705C605.416 238.548 587.19 246.35 569.422 237.96C549.721 228.671 542.881 204.589 539.063 176.669C530.067 111.049 555.704 29.5601 522.561 18.7285C475.986 3.50719 445.737 128.654 395.563 113.43C345.39 98.2056 365.007 71.2754 315.879 55.2197C269.886 40.1886 268.841 68.2285 208.792 53.3374C204.22 52.2032 199.452 50.9332 194.444 49.3582C125.504 27.785 152.871 37.1096 61.9765 -5.30467" stroke="url(#paint7_linear_76_934)" stroke-width="0.671658" stroke-miterlimit="10"/>
<path style="mix-blend-mode:screen" opacity="0.11" d="M896.356 246.47C797.458 286.09 770.009 244.849 737.443 219.634C726.969 211.488 716.913 205.021 705.183 202.382C679.225 196.605 654.493 215.298 629.734 227.767C608.575 238.346 590.596 245.673 573.059 237.029C553.63 227.469 546.89 203.306 542.733 175.666C532.933 110.617 557.662 32.1037 524.269 21.1906C477.378 5.866 448.738 127.638 398.546 112.387C348.354 97.1366 367.423 72.25 318.402 56.2296C272.435 41.2068 272.511 67.5343 212.181 52.4896C207.578 51.3352 202.774 50.0637 197.748 48.5138C129.01 27.2841 155.597 37.4447 64.664 -5.10557" stroke="url(#paint8_linear_76_934)" stroke-width="0.671658" stroke-miterlimit="10"/>
<path style="mix-blend-mode:screen" opacity="0.12" d="M898.932 247.518C800.179 286.187 773.324 244.172 740.538 219.092C730.013 210.99 719.914 204.654 708.183 202.158C682.22 196.678 657.529 215.559 632.718 227.734C611.516 238.051 593.809 244.912 576.463 236.022C557.299 226.188 550.664 201.957 546.161 174.584C535.571 110.121 559.381 34.5898 525.731 23.5924C478.548 8.17273 451.496 126.553 401.331 111.301C351.167 96.0493 369.614 73.1513 320.652 57.1499C274.709 42.1352 275.903 66.7598 215.309 51.5362C210.684 50.3644 205.858 49.106 200.818 47.572C132.291 26.6792 158.092 37.725 67.1163 -5.00391" stroke="url(#paint9_linear_76_934)" stroke-width="0.671658" stroke-miterlimit="10"/>
<path style="mix-blend-mode:screen" opacity="0.14" d="M901.274 248.52C802.665 286.269 776.404 243.45 743.399 218.534C732.811 210.485 722.675 204.291 710.941 201.917C684.97 196.743 660.315 215.822 635.471 227.676C614.222 237.742 596.729 244.117 579.688 234.997C560.785 224.899 554.244 200.606 549.407 173.494C537.987 109.572 560.889 37.0172 526.981 25.9356C479.516 10.4235 454.047 125.422 403.822 110.129C353.597 94.837 371.582 74.0004 322.653 58.0099C276.727 43.0006 279.04 65.9222 218.167 50.5664C213.517 49.3864 208.676 48.1439 203.625 46.6165C135.299 26.0671 160.326 37.9304 69.303 -4.90673" stroke="url(#paint10_linear_76_934)" stroke-width="0.671658" stroke-miterlimit="10"/>
<path style="mix-blend-mode:screen" opacity="0.15" d="M903.396 249.46C804.942 286.231 779.273 242.669 746.062 217.851C735.414 209.843 725.241 203.791 713.508 201.552C687.491 196.661 662.917 215.942 638.028 227.514C616.719 237.313 599.473 243.213 582.634 233.84C564.004 223.471 557.549 199.113 552.383 172.275C540.187 108.954 562.169 39.3806 528.003 28.2147C480.255 12.6102 456.386 124.18 406.127 108.907C355.868 93.6343 373.331 74.7882 324.469 58.8195C278.568 43.8183 281.998 65.0369 220.855 49.5209C216.181 48.3327 211.312 47.0914 206.251 45.5918C138.135 25.3886 162.391 38.0907 71.3125 -4.88791" stroke="url(#paint11_linear_76_934)" stroke-width="0.671658" stroke-miterlimit="10"/>
<path style="mix-blend-mode:screen" opacity="0.16" d="M905.317 250.345C807.016 286.137 781.924 241.827 748.502 217.146C737.794 209.18 727.592 203.274 715.853 201.166C689.856 196.58 665.307 216.095 640.357 227.318C619.014 236.91 602.002 242.29 585.386 232.661C567.028 222.02 560.675 197.603 555.167 171.024C542.173 108.285 563.236 41.6947 528.82 30.4472C480.781 14.7475 458.499 122.925 408.221 107.626C357.944 92.3264 374.853 75.512 326.074 59.5704C280.198 44.5774 284.741 64.081 223.331 48.426C218.626 47.2177 213.746 45.9829 208.679 44.502C140.769 24.6236 164.231 38.2082 73.126 -4.94358" stroke="url(#paint12_linear_76_934)" stroke-width="0.671658" stroke-miterlimit="10"/>
<path style="mix-blend-mode:screen" opacity="0.17" d="M907.023 251.181C808.858 286.05 784.368 240.938 750.739 216.385C739.977 208.474 729.732 202.697 717.996 200.724C691.99 196.444 667.49 216.119 642.483 227.066C621.096 236.397 604.309 241.346 587.943 231.428C569.85 220.514 563.607 196.04 557.749 169.716C543.942 107.577 564.1 43.9527 529.426 32.621C481.105 16.8289 460.389 121.649 410.113 106.289C359.837 90.9282 376.206 76.1906 327.477 60.2653C281.617 45.2778 287.275 63.0877 225.595 47.2725C220.865 46.056 215.974 44.8278 210.892 43.3628C143.186 23.8185 165.871 38.2299 74.7192 -5.03006" stroke="url(#paint13_linear_76_934)" stroke-width="0.671658" stroke-miterlimit="10"/>
<path style="mix-blend-mode:screen" opacity="0.19" d="M908.538 251.954C810.551 285.883 786.621 239.987 752.773 215.568C741.951 207.699 731.669 202.064 719.932 200.235C693.916 196.24 669.449 216.152 644.406 226.758C622.973 235.838 606.448 240.264 590.297 230.139C572.473 218.963 566.303 194.41 560.124 168.363C545.528 106.779 564.772 46.1483 529.832 34.7296C481.236 18.8479 462.096 120.283 411.807 104.908C361.517 89.5325 377.327 76.8451 328.664 60.9416C282.829 45.9622 289.634 62.0679 227.656 46.0937C222.904 44.8598 217.99 43.6447 212.894 42.1955C145.412 22.951 167.32 38.2197 76.0976 -5.13523" stroke="url(#paint14_linear_76_934)" stroke-width="0.671658" stroke-miterlimit="10"/>
<path style="mix-blend-mode:screen" opacity="0.2" d="M909.855 252.683C811.989 285.653 788.68 238.982 754.621 214.7C743.737 206.883 733.417 201.39 721.677 199.684C695.653 195.995 671.2 216.117 646.143 226.4C624.664 235.227 608.377 239.176 592.465 228.8C574.903 217.36 568.826 192.745 562.317 166.949C546.914 105.945 565.247 48.2999 530.05 36.7969C481.171 20.8227 463.643 118.875 413.31 103.464C362.976 88.054 378.283 77.3839 329.72 61.513C283.91 46.5418 291.808 60.9364 229.593 44.8127C224.808 43.568 219.871 42.3661 214.769 40.9355C147.497 22.0371 168.607 38.1976 77.3588 -5.3611" stroke="url(#paint15_linear_76_934)" stroke-width="0.671658" stroke-miterlimit="10"/>
<path style="mix-blend-mode:screen" opacity="0.21" d="M911.001 253.314C813.28 285.334 790.562 237.899 756.296 213.745C745.351 205.97 734.998 200.61 723.256 199.047C697.21 195.68 672.837 215.952 647.706 225.953C626.172 234.526 610.136 237.991 594.451 227.37C577.161 215.659 571.188 190.954 564.332 165.457C548.126 105.024 565.548 50.3637 530.101 38.7792C480.923 22.7072 464.965 117.362 414.643 101.945C364.321 86.5281 379.064 77.8656 330.526 62.0028C284.782 47.0534 293.757 59.7314 231.261 43.4541C226.459 42.2039 221.506 40.9966 216.377 39.6191C149.302 21.0734 169.639 38.0514 78.3551 -5.62208" stroke="url(#paint16_linear_76_934)" stroke-width="0.671658" stroke-miterlimit="10"/>
<path style="mix-blend-mode:screen" opacity="0.22" d="M911.943 253.982C814.342 285.043 792.245 236.834 757.748 212.851C746.746 205.139 736.358 199.913 724.614 198.472C698.572 195.374 674.235 215.874 649.053 225.581C627.475 233.892 611.678 236.88 596.231 226.007C579.203 214.031 573.309 189.281 566.137 164.02C549.122 104.176 565.651 52.4451 529.938 40.7736C480.485 24.6119 466.103 115.881 415.762 100.438C365.421 84.9942 379.628 78.3381 331.165 62.4998C285.421 47.5503 295.533 58.5215 232.773 42.096C227.941 40.8256 222.965 39.6315 217.84 38.2446C150.971 20.0238 170.531 37.8592 79.1917 -5.95577" stroke="url(#paint17_linear_76_934)" stroke-width="0.671658" stroke-miterlimit="10"/>
<path style="mix-blend-mode:screen" opacity="0.23" d="M912.731 254.559C815.299 284.676 793.771 235.686 759.075 211.803C748.016 204.124 737.58 199.046 725.837 197.74C699.788 194.948 675.491 215.636 650.261 225.039C628.639 233.089 613.086 235.611 597.87 224.485C581.112 212.247 575.315 187.425 567.797 162.432C549.997 103.104 565.592 54.4534 529.605 42.6922C479.869 26.4381 467.067 114.313 416.704 98.8521C366.341 83.391 379.996 78.7878 331.608 62.974C285.865 48.0245 297.119 57.3008 234.086 40.7244C229.224 39.4339 224.233 38.2556 219.111 36.8595C152.458 18.9663 171.218 37.6721 79.838 -6.30021" stroke="url(#paint18_linear_76_934)" stroke-width="0.671658" stroke-miterlimit="10"/>
<path style="mix-blend-mode:screen" opacity="0.25" d="M913.343 255.109C816.068 284.269 795.078 234.59 760.21 210.754C749.082 203.145 738.626 198.184 726.886 197.012C700.823 194.515 676.562 215.4 651.296 224.492C629.616 232.297 614.314 234.335 599.331 222.945C582.845 210.436 577.134 185.55 569.29 160.821C550.672 102.11 565.363 56.3953 529.143 44.558C479.116 28.2087 467.906 112.704 417.524 97.2163C367.142 81.7285 380.269 79.165 331.931 63.3675C286.187 48.418 298.585 55.9995 235.282 39.2629C230.404 37.9669 225.385 36.7898 220.242 35.4281C153.813 17.8346 171.786 37.4257 80.36 -6.68537" stroke="url(#paint19_linear_76_934)" stroke-width="0.671658" stroke-miterlimit="10"/>
<path style="mix-blend-mode:screen" opacity="0.26" d="M913.803 255.588C816.673 283.798 796.276 233.346 761.198 209.646C750.01 202.08 739.475 197.247 727.77 196.221C701.702 194.02 677.487 215.105 652.172 223.894C630.449 231.438 615.394 233.001 600.627 221.373C584.411 208.602 578.794 183.654 570.616 159.186C551.183 101.053 564.983 58.3189 528.496 46.3946C478.187 29.9529 468.555 111.054 418.16 95.5513C367.765 80.0488 380.349 79.5103 332.078 63.7345C286.384 48.8014 299.867 54.669 236.299 37.7842C231.39 36.468 226.36 35.2975 221.212 33.9544C154.98 16.7136 172.174 37.1407 80.7008 -7.10906" stroke="url(#paint20_linear_76_934)" stroke-width="0.671658" stroke-miterlimit="10"/>
<path style="mix-blend-mode:screen" opacity="0.27" d="M914.107 256.038C817.13 283.299 797.318 232.071 762.033 208.499C750.782 200.984 740.244 196.305 728.51 195.393C702.434 193.498 678.251 214.768 652.896 223.255C631.118 230.545 616.31 231.633 601.779 219.763C585.791 206.717 580.298 181.696 571.798 157.483C551.562 99.921 564.451 60.1722 527.706 48.1636C477.114 31.6295 469.053 109.333 418.652 93.8188C368.252 78.3042 380.286 79.788 332.081 64.034C286.404 49.1062 301.005 53.2709 237.148 36.2297C232.214 34.9054 227.164 33.7387 222.009 32.4142C155.985 15.4983 172.401 36.7828 80.8815 -7.60576" stroke="url(#paint21_linear_76_934)" stroke-width="0.671658" stroke-miterlimit="10"/>
<path style="mix-blend-mode:screen" opacity="0.28" d="M914.27 256.441C817.438 282.751 798.216 230.759 762.716 207.312C751.413 199.842 740.862 195.313 729.095 194.534C703.008 192.924 678.867 214.403 653.467 222.578C631.643 229.615 617.079 230.238 602.781 218.104C587.099 204.798 581.656 179.711 572.819 155.769C551.776 98.787 563.754 62.0231 526.76 49.9331C475.885 33.3065 469.419 107.621 418.991 92.0773C368.564 76.5333 380.061 80.0541 331.922 64.3218C286.27 49.4022 301.992 51.8546 237.888 34.6706C232.923 33.3262 227.851 32.1726 222.682 30.864C156.876 14.2664 172.503 36.4148 80.92 -8.11794" stroke="url(#paint22_linear_76_934)" stroke-width="0.671658" stroke-miterlimit="10"/>
<path style="mix-blend-mode:screen" opacity="0.3" d="M914.288 256.807C817.627 282.175 798.97 229.41 763.262 206.091C751.88 198.667 741.295 194.271 729.588 193.646C703.491 192.32 679.395 214 653.944 221.88C632.077 228.656 617.752 228.801 603.689 216.425C588.277 202.858 582.91 177.734 573.757 154.027C551.893 97.6112 562.98 63.8283 525.72 51.6513C474.562 34.9323 469.681 105.865 419.201 90.2831C368.721 74.7015 379.714 80.2702 331.642 64.5596C286.015 49.6482 302.855 50.3975 238.463 33.0786C233.474 31.7259 228.39 30.579 223.204 29.2956C157.644 13.015 172.452 36.0378 80.8415 -8.63753" stroke="url(#paint23_linear_76_934)" stroke-width="0.671658" stroke-miterlimit="10"/>
<path style="mix-blend-mode:screen" opacity="0.31" d="M914.178 257.142C817.637 281.551 799.602 228.011 763.671 204.867C752.271 197.498 741.605 193.21 729.894 192.737C703.788 191.666 679.729 213.595 654.239 221.173C632.32 227.686 618.242 227.356 604.41 214.726C589.267 200.897 584.034 175.673 574.501 152.254C551.832 96.4179 562.007 65.62 524.498 53.3615C473.049 36.5474 469.755 104.088 419.289 88.4905C368.823 72.893 379.255 80.4906 331.242 64.7991C285.64 49.8958 303.589 48.9394 238.942 31.4444C233.928 30.0836 228.824 28.9405 223.607 27.6675C158.224 11.661 172.268 35.5559 80.6227 -9.26476" stroke="url(#paint24_linear_76_934)" stroke-width="0.671658" stroke-miterlimit="10"/>
<path style="mix-blend-mode:screen" opacity="0.32" d="M913.933 257.442C817.545 280.903 800.098 226.578 763.969 203.534C752.481 196.209 741.805 192.061 730.088 191.72C703.969 190.943 679.956 213.072 654.451 220.357C632.485 226.618 618.613 225.799 605.052 212.93C590.089 198.86 584.927 173.505 575.099 150.37C551.617 95.1027 560.899 67.2952 523.123 54.9496C471.391 38.0431 469.684 102.192 419.205 86.5798C368.725 70.9676 378.607 80.5875 330.66 64.9177C285.074 50.0198 304.179 47.362 239.233 29.7079C234.164 28.3188 229.071 27.1997 223.892 25.9497C158.671 10.2944 171.963 35.0547 80.2673 -9.89537" stroke="url(#paint25_linear_76_934)" stroke-width="0.671658" stroke-miterlimit="10"/>
<path style="mix-blend-mode:screen" opacity="0.33" d="M913.579 257.707C817.337 280.217 800.48 225.129 764.176 202.223C752.629 194.94 741.916 190.934 730.192 190.725C704.068 190.245 680.086 212.559 654.51 219.502C632.497 225.511 618.902 224.237 605.531 211.1C590.894 196.736 585.838 171.364 575.676 148.491C551.38 93.8006 559.762 68.9714 521.736 56.5443C469.714 39.5427 469.591 100.309 419.092 84.6702C368.594 69.0312 377.939 80.6881 330.058 65.0401C284.498 50.1504 304.687 45.7787 239.505 27.9752C234.436 26.5861 229.281 25.4573 224.077 24.2297C159.126 8.8997 171.602 34.5251 79.8734 -10.549" stroke="url(#paint26_linear_76_934)" stroke-width="0.671658" stroke-miterlimit="10"/>
<path style="mix-blend-mode:screen" opacity="0.35" d="M913.109 257.934C817.012 279.494 800.748 223.632 764.226 200.86C752.627 193.622 741.877 189.759 730.126 189.716C703.973 189.494 680.045 212.01 654.386 218.669C632.321 224.414 619.016 222.679 605.841 209.277C591.499 194.659 586.499 169.203 576.008 146.603C550.9 92.4809 558.379 70.6394 520.096 58.128C467.79 41.034 469.246 98.4061 418.737 82.7431C368.229 67.0801 377.037 80.7739 329.206 65.1422C283.67 50.2607 304.977 44.186 239.522 26.2316C234.456 24.8332 229.299 23.7137 224.047 22.4911C159.314 7.50998 171.001 33.9688 79.2095 -11.2496" stroke="url(#paint27_linear_76_934)" stroke-width="0.671658" stroke-miterlimit="10"/>
<path style="mix-blend-mode:screen" opacity="0.36" d="M912.525 258.145C816.575 278.744 800.947 222.122 764.164 199.471C752.502 192.285 741.718 188.554 729.973 188.606C703.787 188.682 679.89 211.414 654.231 217.764C632.111 223.254 619.02 221.034 606.075 207.378C592.006 192.489 587.063 166.969 576.272 144.641C550.341 91.0941 556.928 72.2337 518.387 59.638C465.799 42.4516 468.842 96.432 418.311 80.7515C367.781 65.071 376.038 80.7872 328.29 65.1827C282.78 50.3093 305.205 42.5316 239.477 24.4263C234.356 22.9996 229.179 21.8839 223.942 20.6973C159.459 6.02406 170.348 33.4053 78.4986 -11.9758" stroke="url(#paint28_linear_76_934)" stroke-width="0.671658" stroke-miterlimit="10"/>
<path style="mix-blend-mode:screen" opacity="0.37" d="M911.844 258.313C816.045 277.974 800.96 220.562 764.003 198.05C752.29 190.908 741.46 187.317 729.709 187.501C703.559 187.917 679.74 210.83 653.991 216.894C631.828 222.122 618.972 219.434 606.3 205.537C592.489 190.393 587.671 164.8 576.523 142.717C549.784 89.7287 555.462 73.8745 516.639 61.1865C463.768 43.9076 468.398 94.4963 417.845 78.7984C367.293 63.1004 375.019 80.835 327.338 65.2522C281.844 50.3843 305.387 40.9036 239.387 22.6474C234.249 21.2152 229.052 20.1035 223.801 18.9328C159.512 4.53898 169.609 32.7934 77.7298 -12.721" stroke="url(#paint29_linear_76_934)" stroke-width="0.671658" stroke-miterlimit="10"/>
<path style="mix-blend-mode:screen" opacity="0.38" d="M911.062 258.48C815.411 277.18 800.928 218.998 763.747 196.608C751.971 189.518 741.103 186.069 729.343 186.393C703.18 187.104 679.368 210.194 653.612 215.967C631.394 220.941 618.794 217.781 606.35 203.608C592.814 188.215 588.076 162.546 576.6 140.735C549.034 88.3313 553.828 75.4395 514.771 62.6754C461.617 45.3041 467.823 92.5076 417.26 76.7857C366.697 61.0637 373.853 80.8551 326.23 65.2913C280.769 50.4342 305.422 39.2479 239.16 20.8341C233.989 19.3911 228.781 18.2859 223.515 17.1311C159.444 3.0556 168.756 32.1647 76.8268 -13.4792" stroke="url(#paint30_linear_76_934)" stroke-width="0.671658" stroke-miterlimit="10"/>
<path style="mix-blend-mode:screen" opacity="0.4" d="M910.207 258.591C814.698 276.35 800.799 217.392 763.396 195.176C751.56 188.128 740.658 184.812 728.892 185.268C702.715 186.273 678.948 209.563 653.138 215.051C630.877 219.764 618.521 216.137 606.309 201.733C593.018 186.069 588.385 160.331 576.578 138.773C548.195 86.9559 552.097 77.0452 512.783 64.1968C459.338 46.7304 467.139 90.5449 416.546 74.8028C365.952 59.0607 372.608 80.86 325.06 65.3207C279.616 50.469 305.39 37.5704 238.855 19.0058C233.662 17.5453 228.432 16.4532 223.16 15.317C159.315 1.47995 167.822 31.4994 75.8529 -14.3018" stroke="url(#paint31_linear_76_934)" stroke-width="0.671658" stroke-miterlimit="10"/>
<path style="mix-blend-mode:screen" opacity="0.41" d="M909.259 258.703C813.939 275.516 800.601 215.773 762.983 193.621C751.078 186.643 740.146 183.451 728.373 184.039C702.175 185.335 678.453 208.825 652.612 213.984C630.305 218.445 618.185 214.35 606.206 199.682C593.201 183.762 588.647 157.926 576.505 136.66C547.299 85.4178 550.306 78.4974 510.734 65.5648C457.006 48.0059 466.386 88.4261 415.782 72.6599C365.178 56.8938 371.28 80.7553 323.79 65.235C278.371 50.3915 305.272 35.7926 238.464 17.077C233.241 15.5964 227.99 14.5082 222.71 13.3998C159.092 -0.0642932 166.811 30.8191 74.798 -15.1301" stroke="url(#paint32_linear_76_934)" stroke-width="0.671658" stroke-miterlimit="10"/>
<path style="mix-blend-mode:screen" opacity="0.42" d="M908.247 258.784C813.031 274.632 800.316 214.136 762.49 192.143C750.552 185.154 739.556 182.157 727.783 182.858C701.588 184.454 677.903 208.141 652.012 213.005C629.652 217.202 617.779 212.633 606.036 197.723C593.339 181.564 588.826 155.659 576.349 134.685C546.332 84.0108 548.439 80.0688 508.609 67.0519C454.599 49.4007 465.563 86.4384 414.94 70.6455C364.317 54.8526 369.891 80.7232 322.468 65.2247C277.074 50.3894 305.081 34.094 238.003 15.2182C232.755 13.7294 227.493 12.6478 222.201 11.5461C158.777 -1.60794 165.719 30.1328 73.647 -15.918" stroke="url(#paint33_linear_76_934)" stroke-width="0.671658" stroke-miterlimit="10"/>
<path style="mix-blend-mode:screen" opacity="0.43" d="M907.155 258.859C812.079 273.745 799.957 212.506 761.921 190.619C749.911 183.709 738.889 180.817 727.107 181.659C700.896 183.559 677.259 207.436 651.32 211.997C628.916 215.933 617.288 210.898 605.77 195.722C593.29 179.294 588.906 153.329 576.143 132.528C545.291 82.4358 546.507 81.4749 506.419 68.3738C452.126 50.6301 464.677 84.2761 414.044 68.4591C363.411 52.6422 368.428 80.5537 321.071 65.0769C275.694 50.247 304.825 32.2301 237.483 13.2061C232.21 11.7092 226.92 10.6287 221.619 9.55483C158.419 -3.2995 164.524 29.3408 72.4504 -16.8751" stroke="url(#paint34_linear_76_934)" stroke-width="0.671658" stroke-miterlimit="10"/>
<path style="mix-blend-mode:screen" opacity="0.44" d="M906.014 258.888C811.096 272.837 799.56 210.792 761.299 189.057C749.229 182.19 738.17 179.44 726.382 180.414C700.166 182.61 676.566 206.685 650.587 210.944C628.128 214.626 616.738 209.144 605.468 193.688C593.252 176.987 588.954 150.957 575.833 130.492C544.149 80.9719 544.491 82.9976 504.145 69.8121C449.569 51.976 463.699 82.2276 413.044 66.3932C362.389 50.5588 366.875 80.4888 319.593 65.0364C274.232 50.212 304.482 30.492 236.867 11.3172C231.572 9.80272 226.268 8.73816 220.952 7.68017C158.007 -4.85431 163.342 28.6767 71.1664 -17.7063" stroke="url(#paint35_linear_76_934)" stroke-width="0.671658" stroke-miterlimit="10"/>
<path style="mix-blend-mode:screen" opacity="0.46" d="M904.762 259.055C809.998 272.056 799.058 209.228 760.57 187.625C748.438 180.81 737.341 178.202 725.559 179.27C699.338 181.763 675.77 206.023 649.751 209.982C627.246 213.411 616.1 207.433 605.077 191.759C593.13 174.797 588.913 148.69 575.475 128.461C542.985 79.5212 542.418 84.5224 501.823 71.2554C446.931 53.3161 462.673 80.1841 412.029 64.3431C361.385 48.5022 365.297 80.4462 318.073 65.0129C272.745 50.1993 304.138 28.7845 236.225 9.45059C230.897 7.92529 225.581 6.86729 220.251 5.82517C157.497 -6.45112 162.046 27.9651 69.8701 -18.5004" stroke="url(#paint36_linear_76_934)" stroke-width="0.671658" stroke-miterlimit="10"/>
<path style="mix-blend-mode:screen" opacity="0.47" d="M903.424 259.348C808.847 271.382 798.455 207.807 759.768 186.334C747.584 179.563 736.45 177.098 724.641 178.332C698.419 181.082 674.884 205.579 648.825 209.237C626.26 212.4 615.367 205.959 604.557 190.026C592.863 172.826 588.743 146.618 574.988 126.656C541.667 78.2877 540.217 86.2727 499.355 72.9188C444.214 54.8978 461.507 78.3726 410.816 62.506C360.125 46.6394 363.593 80.5892 316.436 65.1776C271.125 50.3695 303.61 27.2436 235.453 7.75754C230.102 6.21479 224.767 5.16066 219.431 4.13715C156.889 -7.80228 160.643 27.4965 68.3968 -19.1465" stroke="url(#paint37_linear_76_934)" stroke-width="0.671658" stroke-miterlimit="10"/>
<path style="mix-blend-mode:screen" opacity="0.48" d="M901.983 259.814C807.512 270.904 797.747 206.536 758.833 185.195C746.578 178.473 735.41 176.14 723.603 177.509C697.364 180.593 673.878 205.25 647.771 208.604C625.162 211.506 614.511 204.608 603.934 188.412C592.519 170.923 588.475 144.678 574.389 124.968C540.308 77.2057 537.972 88.1838 496.853 74.7456C441.42 56.6296 460.309 76.7153 409.602 60.8127C358.896 44.9101 361.758 80.9363 314.668 65.5465C269.382 50.7465 302.985 25.9176 234.555 6.28065C229.183 4.72045 223.828 3.67017 218.474 2.67183C156.16 -8.97721 159.113 27.2227 66.831 -19.5657" stroke="url(#paint38_linear_76_934)" stroke-width="0.671658" stroke-miterlimit="10"/>
<path style="mix-blend-mode:screen" opacity="0.49" d="M900.448 260.424C806.119 270.573 796.918 205.411 757.818 184.215C745.511 177.538 734.298 175.345 722.535 176.862C696.279 180.249 672.808 205.086 646.686 208.147C624.031 210.797 613.619 203.422 603.272 186.971C592.123 169.23 588.204 142.943 573.765 123.467C538.783 76.265 535.565 90.1963 494.188 76.6738C438.464 58.4626 458.937 75.1659 408.217 59.2486C357.496 43.3312 359.841 81.4212 312.817 66.0532C267.548 51.2586 302.269 24.7267 233.577 4.93226C228.169 3.37048 222.794 2.32408 217.443 1.34705C155.336 -10.0077 157.498 27.0348 65.1743 -19.8497" stroke="url(#paint39_linear_76_934)" stroke-width="0.671658" stroke-miterlimit="10"/>
<path style="mix-blend-mode:screen" opacity="0.51" d="M898.838 261.184C804.695 270.395 796.087 204.46 756.73 183.376C744.369 176.753 733.118 174.702 721.357 176.354C695.096 180.038 671.723 205.082 645.509 207.834C622.802 210.22 612.634 202.379 602.529 185.668C591.629 167.7 587.764 141.276 573.035 122.097C537.23 75.4692 533.129 92.3843 491.461 78.7666C435.462 60.4658 457.514 73.7747 406.775 57.8306C356.036 41.8865 357.822 81.9654 310.856 66.6164C265.62 51.8327 301.452 23.5951 232.487 3.64972C227.057 2.07049 221.671 1.03067 216.305 0.0695148C154.422 -10.9856 155.791 26.9914 63.41 -20.0559" stroke="url(#paint40_linear_76_934)" stroke-width="0.671658" stroke-miterlimit="10"/>
<path style="mix-blend-mode:screen" opacity="0.52" d="M897.157 262.075C803.128 270.316 795.147 203.618 755.572 182.668C743.15 176.087 731.862 174.178 720.095 175.962C693.821 179.94 670.46 205.173 644.222 207.63C621.436 209.753 611.537 201.455 601.679 184.465C591.075 166.212 587.262 139.743 572.21 120.819C535.579 74.7751 530.586 94.6713 488.702 80.983C432.412 62.587 456.043 72.5014 405.29 56.5426C354.537 40.5838 355.774 82.685 308.882 67.3604C263.663 52.5822 300.621 22.6443 231.386 2.53871C226.048 1.05073 220.626 -0.137216 215.142 -1.02062C153.516 -11.7346 154.094 27.1156 61.6868 -20.1355" stroke="url(#paint41_linear_76_934)" stroke-width="0.671658" stroke-miterlimit="10"/>
<path style="mix-blend-mode:screen" opacity="0.53" d="M895.431 263.075C801.548 270.365 794.16 202.894 754.365 182.078C741.884 175.54 730.562 173.764 718.797 175.681C692.54 179.974 669.193 205.387 642.908 207.54C620.103 209.41 610.423 200.638 600.779 183.419C590.494 164.921 586.761 138.375 571.392 119.687C533.935 74.2278 528.054 97.0958 485.912 83.3232C429.357 64.8402 454.557 71.3575 403.786 55.3719C353.014 39.3864 353.711 83.5339 306.886 68.2311C261.692 53.461 299.762 21.8081 230.263 1.5543C224.901 0.0507524 219.45 -1.13619 213.935 -2.00159C152.496 -12.4694 152.278 27.294 59.8148 -20.068" stroke="url(#paint42_linear_76_934)" stroke-width="0.671658" stroke-miterlimit="10"/>
<path style="mix-blend-mode:screen" opacity="0.54" d="M893.655 264.172C799.922 270.523 793.122 202.266 753.162 181.592C740.618 175.105 729.259 173.471 717.496 175.524C691.15 180.086 667.918 205.711 641.591 207.572C618.742 209.181 609.283 199.987 599.88 182.508C589.775 163.77 586.176 137.124 570.472 118.728C532.173 73.8472 525.412 99.6896 483.012 85.8328C426.157 67.2519 452.961 70.383 402.159 54.3772C351.358 38.3715 351.532 84.5402 304.774 69.2591C259.596 54.4944 298.793 21.1412 229.018 0.745834C223.658 -0.769779 218.205 -1.95072 212.684 -2.79147C151.472 -12.9689 150.456 27.6863 57.9432 -19.8051" stroke="url(#paint43_linear_76_934)" stroke-width="0.671658" stroke-miterlimit="10"/>
<path style="mix-blend-mode:screen" opacity="0.56" d="M891.826 265.344C798.221 270.77 792.032 201.715 751.861 181.177C739.241 174.727 727.861 173.241 716.091 175.425C689.783 180.297 666.546 206.106 640.195 207.672C617.292 209.026 608.092 199.321 598.922 181.578C589.088 162.547 585.557 135.862 569.536 117.732C530.41 73.436 522.772 102.244 480.115 88.3025C422.977 69.6293 451.324 69.3643 400.553 53.3481C349.782 37.3319 349.366 85.5306 302.667 70.2686C257.514 55.5121 297.821 20.4532 227.787 -0.10903C222.403 -1.62997 216.925 -2.80891 211.377 -3.64018C150.381 -13.5206 148.556 28.033 56.0166 -19.6011" stroke="url(#paint44_linear_76_934)" stroke-width="0.671658" stroke-miterlimit="10"/>
<path style="mix-blend-mode:screen" opacity="0.57" d="M890.021 266.617C796.578 271.067 790.958 201.312 750.568 180.909C737.93 174.515 726.471 173.157 714.704 175.476C688.382 180.642 665.196 206.633 638.753 207.89C615.794 208.99 606.839 198.818 597.895 180.809C588.318 161.524 584.873 134.774 568.53 116.899C528.569 73.1842 520.048 104.976 477.133 90.9502C419.745 72.1954 449.679 68.5388 398.857 52.485C348.034 36.4312 347.171 86.6449 300.538 71.4045C255.41 56.6562 296.838 19.885 226.562 -0.807956C221.166 -2.34419 215.669 -3.51858 210.101 -4.32481C149.326 -13.8963 146.736 28.4775 54.1354 -19.2794" stroke="url(#paint45_linear_76_934)" stroke-width="0.671658" stroke-miterlimit="10"/>
<path style="mix-blend-mode:screen" opacity="0.58" d="M888.207 267.969C794.918 271.44 789.901 200.854 749.292 180.616C736.574 174.267 725.073 173.04 713.333 175.501C687.003 180.973 663.846 207.158 637.39 208.114C614.389 208.952 605.666 198.322 596.968 180.064C587.691 160.568 584.292 133.73 567.639 116.073C526.865 72.905 517.452 107.708 474.27 93.5958C416.567 74.7377 448.118 67.7095 397.273 51.6382C346.429 35.567 344.945 87.8211 298.37 72.5998C253.267 57.8597 295.805 19.3827 225.225 -1.4813C219.833 -3.02014 214.339 -4.19366 208.773 -4.99544C148.223 -14.2978 144.816 29.0541 52.2116 -18.8585" stroke="url(#paint46_linear_76_934)" stroke-width="0.671658" stroke-miterlimit="10"/>
<path style="mix-blend-mode:screen" opacity="0.59" d="M886.333 269.363C793.187 271.893 788.732 200.544 747.932 180.469C735.154 174.163 723.648 173.089 711.869 175.671C685.525 181.468 662.425 207.816 635.919 208.476C612.865 209.051 604.378 197.952 595.931 179.437C586.891 159.637 583.578 132.735 566.623 115.381C524.996 72.8499 514.718 110.581 471.287 96.3871C413.292 77.4339 446.434 67.0047 395.567 50.916C344.7 34.8272 342.732 89.0735 296.223 73.874C251.145 59.1419 294.822 19.0101 223.969 -2.08741C218.54 -3.64239 213.003 -4.80933 207.391 -5.5811C147.059 -14.5652 142.851 29.6879 50.2079 -18.3608" stroke="url(#paint47_linear_76_934)" stroke-width="0.671658" stroke-miterlimit="10"/>
<path style="mix-blend-mode:screen" opacity="0.6" d="M884.508 270.835C791.512 272.426 787.679 200.302 746.644 180.296C733.812 174.044 722.291 173.129 710.492 175.828C684.144 181.891 661.071 208.464 634.525 208.824C611.412 209.132 603.225 197.565 594.969 178.804C586.178 158.746 582.99 131.772 565.679 114.691C523.234 72.7475 512.062 113.438 468.373 99.1602C410.096 80.1146 444.813 66.3002 393.936 50.1875C343.059 34.0748 340.534 90.3619 294.1 75.1868C249.046 60.4935 293.795 18.6025 222.688 -2.50604C217.247 -4.07507 211.693 -5.24051 206.062 -5.99472C145.943 -14.7857 140.943 30.3712 48.1948 -17.8353" stroke="url(#paint48_linear_76_934)" stroke-width="0.671658" stroke-miterlimit="10"/>
<path style="mix-blend-mode:screen" opacity="0.62" d="M882.665 272.363C789.809 272.991 786.607 200.117 745.321 180.234C732.428 174.024 720.831 173.259 709.076 176.075C682.712 182.442 659.664 209.25 633.077 209.256C609.925 209.315 601.927 197.285 593.943 178.252C585.41 157.97 582.317 130.903 564.689 114.059C521.399 72.7033 509.355 116.371 465.408 102.009C406.848 82.8709 443.153 65.6648 392.253 49.5347C341.354 33.4045 338.283 91.7565 291.916 76.6032C246.879 61.8847 292.783 18.2922 221.391 -3.04314C215.937 -4.6238 210.365 -5.78466 204.714 -6.51752C144.874 -14.9499 139.035 31.0852 46.2563 -17.2545" stroke="url(#paint49_linear_76_934)" stroke-width="0.671658" stroke-miterlimit="10"/>
<path style="mix-blend-mode:screen" opacity="0.63" d="M880.788 274.137C788.072 273.854 785.438 200.146 743.983 180.414C731.03 174.246 719.402 173.605 707.632 176.581C681.262 183.244 658.27 210.193 631.642 209.96C608.438 209.755 600.683 197.259 592.938 177.975C584.676 157.4 581.659 130.297 563.708 113.708C519.581 72.9427 506.66 119.576 462.489 105.14C403.638 85.9069 441.514 65.3556 390.62 49.1549C339.725 32.9542 336.093 93.3871 289.793 78.2555C244.773 63.5425 291.783 18.2535 220.124 -3.22073C214.653 -4.81297 209.061 -5.97013 203.388 -6.68352C143.739 -14.8577 137.135 32.1107 44.3127 -16.3771" stroke="url(#paint50_linear_76_934)" stroke-width="0.671658" stroke-miterlimit="10"/>
<path style="mix-blend-mode:screen" opacity="0.64" d="M878.927 276.029C786.368 274.758 784.315 200.315 742.641 180.716C729.637 174.594 717.963 174.092 706.195 177.202C679.813 184.16 656.868 211.299 630.189 210.772C606.941 210.305 599.42 197.351 591.917 177.806C583.916 156.967 580.984 129.799 562.711 113.464C517.751 73.3019 503.957 122.891 459.494 108.36C400.36 89.0345 439.828 65.0516 388.907 48.8733C337.987 32.6951 333.817 95.113 287.6 80.0086C242.605 65.3037 290.733 18.3118 218.804 -3.32266C213.318 -4.92018 207.705 -6.06656 202.011 -6.75256C142.582 -14.6391 135.188 33.2239 42.3189 -15.4027" stroke="url(#paint51_linear_76_934)" stroke-width="0.671658" stroke-miterlimit="10"/>
<path style="mix-blend-mode:screen" opacity="0.65" d="M877.112 277.947C784.699 275.726 783.223 200.503 741.349 181.035C728.283 174.964 716.58 174.607 704.809 177.84C678.418 185.104 655.51 212.44 628.794 211.602C605.492 210.881 598.197 197.486 590.954 177.625C583.199 156.568 580.369 129.289 561.778 113.221C515.972 73.6467 501.298 126.21 456.577 111.595C397.161 92.1771 438.215 64.8025 387.276 48.5974C336.337 32.3924 331.615 96.8939 285.448 81.8058C240.478 67.1091 289.736 18.377 217.547 -3.36309C212.048 -4.9817 206.418 -6.13373 200.704 -6.80929C141.514 -14.412 133.307 34.3587 40.3918 -14.4066" stroke="url(#paint52_linear_76_934)" stroke-width="0.671658" stroke-miterlimit="10"/>
<path style="mix-blend-mode:screen" opacity="0.67" d="M875.345 279.891C783.077 276.718 782.23 200.724 740.11 181.391C726.984 175.362 715.246 175.139 703.466 178.512C677.055 186.12 654.19 213.635 627.427 212.462C604.084 211.471 597.04 197.592 590.05 177.546C582.574 156.199 579.8 128.918 560.907 113.07C514.272 74.0892 498.712 129.615 453.734 114.916C394.035 95.4054 436.676 64.6391 385.709 48.4352C334.742 32.2313 329.507 98.6954 283.398 83.6263C238.486 68.9487 288.827 18.512 216.354 -3.40302C210.842 -5.03809 205.194 -6.1957 199.462 -6.86554C140.437 -14.1876 131.443 35.4989 38.4676 -13.4199" stroke="url(#paint53_linear_76_934)" stroke-width="0.671658" stroke-miterlimit="10"/>
<path style="mix-blend-mode:screen" opacity="0.68" d="M873.633 281.863C781.518 277.742 781.265 200.861 738.929 181.767C725.76 175.755 713.967 175.729 702.189 179.207C675.787 187.125 652.958 214.786 626.143 213.349C602.745 212.103 595.945 197.759 589.156 177.439C581.93 155.834 579.267 128.435 560.036 112.889C512.564 74.4983 496.128 132.99 450.891 118.206C390.909 98.6031 435.138 64.445 384.155 48.2051C333.172 31.9652 327.398 100.476 281.355 85.4283C236.443 70.7506 287.915 18.6257 215.176 -3.45884C209.646 -5.09746 203.977 -6.23814 198.22 -6.86988C139.465 -13.9186 129.679 36.6718 36.6583 -12.3338" stroke="url(#paint54_linear_76_934)" stroke-width="0.671658" stroke-miterlimit="10"/>
<path style="mix-blend-mode:screen" opacity="0.69" d="M871.967 283.86C780.009 278.782 780.363 201.143 737.794 182.168C724.563 176.207 712.736 176.314 700.957 179.936C674.55 188.151 651.755 215.988 624.906 214.262C601.459 212.774 594.889 197.949 588.333 177.365C581.364 155.536 578.793 128.054 559.24 112.762C510.956 74.9707 493.63 136.464 448.161 121.605C387.887 101.907 433.716 64.4022 382.698 48.0995C331.681 31.7968 325.377 102.378 279.409 87.3546C234.497 72.677 287.068 18.8529 214.1 -3.37824C208.556 -5.02382 202.869 -6.15987 197.094 -6.77497C138.556 -13.5573 127.963 37.9528 34.9215 -11.2447" stroke="url(#paint55_linear_76_934)" stroke-width="0.671658" stroke-miterlimit="10"/>
<path style="mix-blend-mode:screen" opacity="0.7" d="M870.385 285.885C778.56 279.863 779.51 201.44 736.731 182.602C723.44 176.684 711.573 176.943 699.799 180.689C673.379 189.199 650.629 217.236 623.729 215.215C600.227 213.442 593.899 198.16 587.59 177.328C580.892 155.207 578.394 127.697 558.521 112.651C509.38 75.4539 491.192 139.866 445.44 124.914C384.884 105.124 432.276 64.1888 381.26 47.9074C330.245 31.626 323.395 104.189 277.485 89.1852C232.573 74.5076 286.317 19.0088 213.046 -3.3934C207.488 -5.05617 201.779 -6.18862 195.981 -6.77853C137.673 -13.2798 126.279 39.1314 33.1914 -10.2048" stroke="url(#paint56_linear_76_934)" stroke-width="0.671658" stroke-miterlimit="10"/>
<path style="mix-blend-mode:screen" opacity="0.72" d="M868.934 287.932C777.253 280.989 778.785 201.8 735.799 183.09C722.445 177.223 710.543 177.615 698.763 181.493C672.323 190.346 649.625 218.533 622.677 216.209C599.14 214.177 593.045 198.437 586.969 177.342C580.529 154.965 578.128 127.384 557.93 112.602C507.951 75.9955 488.886 143.373 442.877 128.337C382.038 108.454 431.016 64.1271 379.982 47.819C328.948 31.5109 321.549 106.118 275.706 91.1354C230.853 76.4768 285.678 19.2735 212.143 -3.30753C206.568 -4.97915 200.837 -6.10483 195.016 -6.67179C136.933 -12.904 124.753 40.4231 31.618 -9.05187" stroke="url(#paint57_linear_76_934)" stroke-width="0.671658" stroke-miterlimit="10"/>
<path style="mix-blend-mode:screen" opacity="0.73" d="M867.507 290.069C775.984 282.139 778.104 202.195 734.913 183.603C721.499 177.779 709.56 178.312 697.782 182.325C671.341 191.435 648.696 219.856 621.683 217.222C598.083 214.933 592.237 198.739 586.419 177.388C580.229 154.784 577.914 127.108 557.405 112.574C506.577 76.5653 486.647 146.901 440.379 131.781C379.258 111.805 429.82 64.0965 378.767 47.7616C327.714 31.4267 319.779 108.07 274.002 93.11C229.173 78.4595 285.162 19.527 211.309 -3.17868C205.722 -4.8652 199.974 -5.98946 194.135 -6.53794C136.252 -12.5093 123.289 41.7457 30.1078 -7.86797" stroke="url(#paint58_linear_76_934)" stroke-width="0.671658" stroke-miterlimit="10"/>
<path style="mix-blend-mode:screen" opacity="0.74" d="M866.191 292.181C774.809 283.34 777.531 202.594 734.106 184.184C722.506 178.933 709.279 178.591 696.872 183.221C670.426 192.628 647.804 221.231 620.773 218.314C597.139 215.736 591.503 199.096 585.916 177.492C579.988 154.592 577.758 126.882 556.926 112.603C505.274 77.1994 484.453 150.486 437.928 135.281C376.524 115.213 428.662 64.1193 377.598 47.7603C326.535 31.4014 318.054 110.079 272.344 95.1408C227.532 80.4958 284.606 19.8493 210.522 -2.9937C204.918 -4.69201 199.149 -5.8126 193.288 -6.34136C135.655 -12.0355 121.888 43.1299 28.6136 -6.64813" stroke="url(#paint59_linear_76_934)" stroke-width="0.671658" stroke-miterlimit="10"/>
<path style="mix-blend-mode:screen" opacity="0.75" d="M864.959 294.402C773.717 284.598 777.041 203.052 733.415 184.75C719.89 179.013 707.877 179.83 696.086 184.107C669.635 193.81 647.038 222.617 619.971 219.39C596.276 216.575 590.893 199.442 585.548 177.577C579.875 154.432 577.73 126.657 556.579 112.623C504.092 77.8317 482.389 154.072 435.614 138.785C373.919 118.622 427.641 64.1457 376.57 47.7535C325.499 31.3612 316.462 112.08 270.818 97.1632C226.031 82.5263 284.223 20.1768 209.861 -2.82906C204.246 -4.53568 198.463 -5.65384 192.588 -6.169C135.168 -11.5568 120.598 44.4884 27.3232 -5.40281" stroke="url(#paint60_linear_76_934)" stroke-width="0.671658" stroke-miterlimit="10"/>
<path style="mix-blend-mode:screen" opacity="0.77" d="M863.836 296.628C772.756 285.848 776.698 203.567 732.815 185.377C719.235 179.694 707.184 180.654 695.396 185.064C668.931 195.062 646.378 224.048 619.265 220.538C595.518 217.459 590.376 199.87 585.264 177.741C579.843 154.36 577.802 126.495 556.328 112.716C503 78.5246 480.423 157.72 433.415 142.358C371.437 122.102 426.733 64.2195 375.654 47.8245C324.574 31.4295 314.99 114.161 269.413 99.2663C224.642 84.6348 283.952 20.5824 209.328 -2.58105C203.7 -4.3003 197.898 -5.41087 192.002 -5.8974C134.774 -11.0576 119.405 45.9406 26.0786 -4.10135" stroke="url(#paint61_linear_76_934)" stroke-width="0.671658" stroke-miterlimit="10"/>
<path style="mix-blend-mode:screen" opacity="0.78" d="M862.818 298.899C771.892 287.171 776.385 204.103 732.333 186.063C718.693 180.422 706.6 181.513 694.814 186.058C668.333 196.359 645.827 225.535 618.666 221.721C594.898 218.399 589.959 200.33 585.102 177.956C579.951 154.282 578.02 126.391 556.19 112.856C502.022 79.2649 478.58 161.389 431.281 145.931C369.02 125.583 425.92 64.314 374.802 47.8961C323.684 31.4783 313.585 116.234 268.042 101.35C223.296 86.7264 283.724 20.971 208.84 -2.38053C203.202 -4.08224 197.389 -5.16188 191.483 -5.60391C134.525 -10.4908 118.346 47.4365 24.9809 -2.74152" stroke="url(#paint62_linear_76_934)" stroke-width="0.671658" stroke-miterlimit="10"/>
<path style="mix-blend-mode:screen" opacity="0.79" d="M861.964 301.09C771.183 288.411 776.261 204.567 731.998 186.664C718.296 181.075 706.156 182.335 694.381 186.987C667.904 197.587 645.422 226.946 618.235 222.815C594.401 219.214 589.729 200.698 585.106 178.029C580.191 154.196 578.287 126.221 556.185 112.957C501.185 79.9688 476.859 165.076 429.303 149.534C366.759 129.094 425.238 64.4305 374.115 48.0006C322.991 31.5708 312.328 118.365 266.884 103.513C222.163 88.8979 283.701 21.4367 208.531 -1.99793C202.869 -3.74714 197.023 -4.85447 191.081 -5.30312C134.34 -9.92366 117.362 48.9261 23.9618 -1.39729" stroke="url(#paint63_linear_76_934)" stroke-width="0.671658" stroke-miterlimit="10"/>
<path style="mix-blend-mode:screen" opacity="0.8" d="M861.329 303.033C770.737 289.408 776.364 204.786 731.886 187.008C718.125 181.482 705.964 182.838 694.174 187.649C667.683 198.544 645.257 228.096 617.964 223.673C594.075 219.818 589.638 200.833 585.245 177.941C580.602 153.784 578.826 125.728 556.387 112.704C500.56 80.3306 475.347 168.379 427.541 152.756C364.706 132.22 424.769 64.1744 373.618 47.715C322.468 31.2557 311.326 120.106 265.94 105.273C221.244 90.666 283.903 21.4925 208.469 -2.1209C202.793 -3.87947 196.928 -4.97917 190.965 -5.4025C134.443 -9.73538 116.683 49.9903 23.1938 -0.485382" stroke="url(#paint64_linear_76_934)" stroke-width="0.671658" stroke-miterlimit="10"/>
<path style="mix-blend-mode:screen" opacity="0.81" d="M860.83 304.98C770.342 290.39 776.599 204.996 731.926 187.361C718.076 181.857 705.899 183.373 694.111 188.318C667.61 199.498 645.227 229.229 617.949 224.564C594.026 220.388 589.816 200.963 585.663 177.841C581.288 153.402 579.588 125.309 556.827 112.539C500.168 80.7684 474.056 171.765 425.984 156.054C362.866 135.427 424.516 63.9889 373.344 47.5121C322.171 31.0353 310.46 121.881 265.124 107.064C220.454 92.4656 284.23 21.5892 208.526 -2.18447C202.834 -3.95521 196.948 -5.05125 190.964 -5.45447C134.695 -9.55003 116.115 51.1631 22.6271 0.543702" stroke="url(#paint65_linear_76_934)" stroke-width="0.671658" stroke-miterlimit="10"/>
<path style="mix-blend-mode:screen" opacity="0.83" d="M860.482 306.975C770.139 291.435 776.997 205.27 732.089 187.764C718.221 182.316 705.974 183.963 694.179 189.04C667.664 200.544 645.339 230.407 617.984 225.47C594.009 221.031 590.023 201.174 586.121 177.764C582.007 153.06 580.385 124.9 557.317 112.391C499.809 81.2478 472.854 175.19 424.524 159.395C361.124 138.675 424.361 63.8453 373.169 47.3418C321.978 30.8382 309.736 123.702 264.516 108.924C219.862 94.3305 284.724 21.7402 208.772 -2.17627C203.068 -3.96076 197.164 -5.05538 191.162 -5.44128C135.094 -9.27593 115.729 52.3438 22.18 1.6015" stroke="url(#paint66_linear_76_934)" stroke-width="0.671658" stroke-miterlimit="10"/>
<path style="mix-blend-mode:screen" opacity="0.84" d="M860.267 309.015C770.065 292.533 777.523 205.576 732.402 188.216C718.515 182.824 706.186 184.609 694.397 189.811C667.872 201.6 645.589 231.672 618.185 226.432C594.164 221.74 590.459 201.42 586.754 177.745C582.88 152.811 581.387 124.538 557.971 112.306C499.637 81.7474 471.793 178.661 423.206 162.782C359.522 141.97 424.347 63.7483 373.145 47.2207C321.943 30.6931 309.141 125.607 263.98 110.848C219.351 96.2627 285.364 21.9803 209.114 -2.09521C203.382 -3.905 197.442 -5.00067 191.403 -5.36222C135.563 -8.9371 115.397 53.6144 21.8044 2.72401" stroke="url(#paint67_linear_76_934)" stroke-width="0.671658" stroke-miterlimit="10"/>
<path style="mix-blend-mode:screen" opacity="0.85" d="M860.195 311.121C770.158 293.685 778.195 205.971 732.861 188.726C718.873 183.362 706.566 185.278 694.749 190.677C668.219 202.763 645.973 233.033 618.515 227.507C594.451 222.554 590.936 201.761 587.515 177.839C583.912 152.613 582.482 124.34 558.765 112.329C499.586 82.3792 470.864 182.237 422.027 166.276C358.053 145.369 424.452 63.7622 373.24 47.2106C322.028 30.659 308.681 127.607 263.561 112.862C218.949 98.2819 286.08 22.2964 209.569 -1.93655C203.832 -3.74814 197.884 -4.83248 191.837 -5.16908C136.288 -8.53568 115.278 54.9339 21.6476 3.90753" stroke="url(#paint68_linear_76_934)" stroke-width="0.671658" stroke-miterlimit="10"/>
<path style="mix-blend-mode:screen" opacity="0.86" d="M860.293 313.273C770.393 294.883 779.023 206.395 733.495 189.294C719.444 183.981 707.093 186.057 695.3 191.526C668.753 203.915 646.55 234.364 619.056 228.527C594.94 223.311 591.652 202.077 588.487 177.879C585.134 152.394 583.798 124.06 559.758 112.304C499.748 82.9567 470.146 185.758 421.051 169.713C356.794 148.713 424.778 63.7245 373.54 47.1647C322.303 30.6049 308.406 129.545 263.353 114.821C218.774 100.252 287.057 22.5746 210.24 -1.82022C204.491 -3.64719 198.525 -4.73013 192.46 -5.04774C137.068 -8.1058 115.335 56.3107 21.5991 5.12653" stroke="url(#paint69_linear_76_934)" stroke-width="0.671658" stroke-miterlimit="10"/>
<path style="mix-blend-mode:screen" opacity="0.88" d="M860.679 315.077C770.924 295.736 780.193 206.449 734.396 189.495C720.285 184.225 707.889 186.441 696.097 192.044C669.546 204.73 647.379 235.376 619.846 229.238C595.683 223.77 592.632 202.037 589.699 177.606C586.595 151.895 585.363 123.471 560.994 111.957C500.157 83.2244 469.673 188.979 420.32 172.85C355.781 151.757 425.358 63.3584 374.074 46.773C322.789 30.1876 308.422 131.186 263.436 116.484C218.873 101.921 288.244 22.52 211.187 -2.01478C205.422 -3.85429 199.435 -4.93362 193.349 -5.23074C138.188 -8.03832 115.62 57.2991 21.9044 5.96727" stroke="url(#paint70_linear_76_934)" stroke-width="0.671658" stroke-miterlimit="10"/>
<path style="mix-blend-mode:screen" opacity="0.89" d="M861.375 316.498C771.765 296.206 781.582 206.172 735.619 189.329C721.446 184.111 709.015 186.459 697.22 192.216C670.655 205.195 648.549 235.994 620.955 229.59C596.74 223.858 593.931 201.669 591.206 176.967C588.361 150.969 587.214 122.511 562.523 111.252C500.837 83.1171 469.487 191.83 419.876 175.617C355.054 154.432 426.204 62.6572 374.937 46.0466C323.67 29.4361 308.708 132.453 263.788 117.772C219.251 103.217 289.731 22.1107 212.409 -2.57236C206.629 -4.42874 200.621 -5.50452 194.512 -5.77672C139.562 -8.29936 116.21 57.9446 22.4415 6.49262" stroke="url(#paint71_linear_76_934)" stroke-width="0.671658" stroke-miterlimit="10"/>
<path style="mix-blend-mode:screen" opacity="0.9" d="M862.235 318.004C772.779 296.764 783.189 205.956 737.008 189.248C722.775 184.072 710.315 186.565 698.52 192.435C671.975 205.72 649.869 236.745 622.239 230C597.978 224.016 595.395 201.356 592.946 176.403C590.368 150.153 589.306 121.631 564.3 110.629C501.796 83.1116 469.55 194.763 419.698 178.471C354.585 157.191 427.322 62.0244 376.036 45.3872C324.75 28.7499 309.226 133.826 264.372 119.167C219.852 104.618 291.45 21.8081 213.859 -3.03512C208.068 -4.90251 202.043 -5.97287 195.919 -6.22247C141.21 -8.55313 117.082 58.6826 23.2342 7.08105" stroke="url(#paint72_linear_76_934)" stroke-width="0.671658" stroke-miterlimit="10"/>
<path style="mix-blend-mode:screen" opacity="0.91" d="M863.284 319.581C773.973 297.391 784.968 205.807 738.58 189.227C724.295 184.095 711.778 186.735 699.985 192.739C673.41 206.312 651.36 237.561 623.696 230.496C599.392 224.251 597.067 201.141 594.834 175.919C592.5 149.43 591.546 120.83 566.213 110.071C502.864 83.1933 469.749 197.761 419.622 181.379C354.226 160.007 428.55 61.4483 377.242 44.7935C325.935 28.1388 309.896 135.239 265.101 120.599C220.613 106.06 293.333 21.5385 215.435 -3.46655C209.637 -5.33527 203.603 -6.39824 197.47 -6.63144C142.971 -8.67716 118.015 59.4609 24.1868 7.74228" stroke="url(#paint73_linear_76_934)" stroke-width="0.671658" stroke-miterlimit="10"/>
<path style="mix-blend-mode:screen" opacity="0.93" d="M864.511 321.237C775.348 298.087 786.936 205.73 740.331 189.305C725.983 184.225 713.466 187.008 701.644 193.127C675.023 206.983 653.06 238.415 625.339 231.075C600.983 224.566 598.833 200.977 596.912 175.477C594.809 148.703 593.98 120.061 568.33 109.538C504.137 83.3004 470.139 200.821 419.755 184.355C354.051 162.882 429.976 60.9467 378.657 44.268C327.339 27.5892 310.752 136.733 266.024 122.115C221.553 107.581 295.39 21.3567 217.261 -3.78568C211.44 -5.68394 205.372 -6.74718 199.204 -6.94985C144.928 -8.74782 119.22 60.3382 25.2733 8.44715" stroke="url(#paint74_linear_76_934)" stroke-width="0.671658" stroke-miterlimit="10"/>
<path style="mix-blend-mode:screen" opacity="0.94" d="M865.925 322.965C776.915 298.867 789.097 205.736 742.279 189.427C727.872 184.389 715.292 187.307 703.495 193.577C676.89 207.748 654.934 239.357 627.173 231.715C602.77 224.954 600.86 200.888 599.168 175.165C597.323 148.136 596.558 119.494 570.586 109.226C505.53 83.6837 470.69 204.037 420.048 187.486C354.086 165.929 431.582 60.5661 380.233 43.8978C328.883 27.2295 311.778 138.354 267.116 123.758C222.67 109.233 297.625 21.3051 219.218 -4.00019C213.382 -5.90515 207.296 -6.96377 201.11 -7.15006C147.057 -8.70028 120.529 61.2602 26.5859 9.24663" stroke="url(#paint75_linear_76_934)" stroke-width="0.671658" stroke-miterlimit="10"/>
<path style="mix-blend-mode:screen" opacity="0.95" d="M867.551 324.752C778.683 299.712 791.453 205.796 744.436 189.617C729.977 184.624 717.36 187.684 705.556 194.086C678.947 208.554 657.027 240.36 629.227 232.417C604.772 225.392 603.097 200.858 601.645 174.883C600.055 147.608 599.39 118.886 573.099 108.832C507.228 83.8682 471.499 207.193 420.599 190.558C354.355 168.909 433.426 60.1912 382.067 43.4682C330.708 26.7453 313.037 139.939 268.441 125.365C224.02 110.847 300.094 21.2166 221.419 -4.22763C215.568 -6.15073 209.46 -7.20586 203.252 -7.36592C149.422 -8.66838 122.071 62.2889 28.0841 10.1273" stroke="url(#paint76_linear_76_934)" stroke-width="0.671658" stroke-miterlimit="10"/>
<path style="mix-blend-mode:screen" opacity="0.96" d="M869.375 326.635C780.655 300.634 794.015 205.954 746.78 189.91C732.249 184.966 719.598 188.158 707.806 194.667C681.183 209.429 659.308 241.435 631.46 233.188C606.959 225.912 605.531 200.902 604.317 174.676C602.984 147.125 602.401 118.347 575.796 108.551C509.096 84.1803 472.52 210.491 421.321 193.758C354.785 172.013 435.444 59.904 384.066 43.1542C332.688 26.4045 314.482 141.657 269.953 127.104C225.557 112.595 302.707 21.2475 223.804 -4.34335C217.938 -6.28321 211.808 -7.33481 205.578 -7.47006C151.979 -8.52205 123.835 63.3697 29.8013 11.0693" stroke="url(#paint77_linear_76_934)" stroke-width="0.671658" stroke-miterlimit="10"/>
<path style="mix-blend-mode:screen" opacity="0.98" d="M871.404 328.594C782.829 301.643 796.794 206.183 749.34 190.273C734.758 185.374 722.061 188.706 710.258 195.386C683.631 210.445 661.796 242.639 633.908 234.091C609.355 226.551 608.16 201.082 607.177 174.602C606.141 146.788 605.627 117.94 578.688 108.405C511.17 84.6214 473.656 213.887 422.241 197.084C355.422 175.247 437.668 59.7457 386.276 42.9813C334.885 26.2168 316.146 143.466 271.659 128.927C227.171 114.388 305.609 21.3826 226.403 -4.37928C220.514 -6.34185 214.355 -7.39578 208.095 -7.51186C154.713 -8.41064 125.768 64.5259 31.6903 12.0776" stroke="url(#paint78_linear_76_934)" stroke-width="0.671658" stroke-miterlimit="10"/>
<path style="mix-blend-mode:screen" opacity="0.99" d="M873.655 330.637C785.191 302.755 799.78 206.511 752.11 190.726C737.474 185.881 724.74 189.355 712.934 196.158C686.299 211.522 664.504 243.905 636.565 235.062C611.968 227.26 611.021 201.317 610.3 174.594C609.489 146.544 609.097 117.603 581.836 108.323C513.476 85.1176 475.065 217.352 423.392 200.465C356.29 178.535 440.114 59.6399 388.709 42.8607C337.304 26.0815 318.03 145.306 273.634 130.797C229.238 116.288 308.704 21.6019 229.209 -4.31635C223.321 -6.28684 217.156 -7.33175 210.892 -7.42103C157.701 -8.03101 127.986 65.7963 33.8501 13.2157" stroke="url(#paint79_linear_76_934)" stroke-width="0.671658" stroke-miterlimit="10"/>
<path style="mix-blend-mode:screen" d="M876.138 332.755C787.853 303.903 802.994 206.902 755.113 191.254C707.232 175.606 679.83 249.284 639.46 236.091C588.926 219.575 639.019 125.899 585.158 108.297C516.002 85.6962 476.695 220.9 424.763 203.928C357.396 181.912 442.803 59.5819 391.379 42.7759C339.955 25.97 320.092 147.307 275.787 132.828C231.483 118.349 311.99 21.8834 232.247 -4.17761C166.859 -25.5472 140.764 72.9462 36.2205 14.4122" stroke="url(#paint80_linear_76_934)" stroke-width="0.671658" stroke-miterlimit="10"/>
</g>
<defs>
<linearGradient id="paint0_linear_76_934" x1="867.556" y1="234.629" x2="44.4994" y2="-34.3553" gradientUnits="userSpaceOnUse">
<stop stop-color="#F700A4"/>
<stop offset="0.02" stop-color="#EC00A4"/>
<stop offset="0.14" stop-color="#AE02A4"/>
<stop offset="0.26" stop-color="#7D03A4"/>
<stop offset="0.35" stop-color="#5A03A4"/>
<stop offset="0.44" stop-color="#4404A4"/>
<stop offset="0.49" stop-color="#3C04A4"/>
<stop offset="1" stop-color="#8528FF"/>
</linearGradient>
<linearGradient id="paint1_linear_76_934" x1="872.252" y1="235.948" x2="48.8131" y2="-33.1617" gradientUnits="userSpaceOnUse">
<stop stop-color="#F400A5"/>
<stop offset="0.01" stop-color="#ED00A5"/>
<stop offset="0.14" stop-color="#AF02A5"/>
<stop offset="0.25" stop-color="#7D03A5"/>
<stop offset="0.35" stop-color="#5904A5"/>
<stop offset="0.43" stop-color="#4305A5"/>
<stop offset="0.49" stop-color="#3B05A5"/>
<stop offset="1" stop-color="#842AFF"/>
</linearGradient>
<linearGradient id="paint2_linear_76_934" x1="876.657" y1="237.202" x2="52.8516" y2="-32.0271" gradientUnits="userSpaceOnUse">
<stop stop-color="#F000A6"/>
<stop offset="0.13" stop-color="#B003A6"/>
<stop offset="0.25" stop-color="#7E04A6"/>
<stop offset="0.35" stop-color="#5906A6"/>
<stop offset="0.43" stop-color="#4307A6"/>
<stop offset="0.49" stop-color="#3B07A6"/>
<stop offset="1" stop-color="#822DFF"/>
</linearGradient>
<linearGradient id="paint3_linear_76_934" x1="880.797" y1="238.391" x2="56.6096" y2="-30.9636" gradientUnits="userSpaceOnUse">
<stop stop-color="#EE00A8"/>
<stop offset="0.13" stop-color="#B003A8"/>
<stop offset="0.25" stop-color="#7D05A8"/>
<stop offset="0.35" stop-color="#5907A8"/>
<stop offset="0.43" stop-color="#4208A8"/>
<stop offset="0.49" stop-color="#3A08A8"/>
<stop offset="1" stop-color="#8030FF"/>
</linearGradient>
<linearGradient id="paint4_linear_76_934" x1="884.666" y1="239.511" x2="60.112" y2="-29.963" gradientUnits="userSpaceOnUse">
<stop stop-color="#EB00A9"/>
<stop offset="0.12" stop-color="#B103A9"/>
<stop offset="0.24" stop-color="#7D06A9"/>
<stop offset="0.35" stop-color="#5808A9"/>
<stop offset="0.43" stop-color="#410AA9"/>
<stop offset="0.49" stop-color="#390AA9"/>
<stop offset="1" stop-color="#7F32FF"/>
</linearGradient>
<linearGradient id="paint5_linear_76_934" x1="888.29" y1="240.562" x2="63.3535" y2="-29.0375" gradientUnits="userSpaceOnUse">
<stop stop-color="#E700AA"/>
<stop offset="0.11" stop-color="#B103AA"/>
<stop offset="0.24" stop-color="#7D07AA"/>
<stop offset="0.35" stop-color="#5809AA"/>
<stop offset="0.43" stop-color="#400AAA"/>
<stop offset="0.49" stop-color="#380BAA"/>
<stop offset="1" stop-color="#7D35FF"/>
</linearGradient>
<linearGradient id="paint6_linear_76_934" x1="891.647" y1="241.556" x2="66.345" y2="-28.1626" gradientUnits="userSpaceOnUse">
<stop stop-color="#E400AB"/>
<stop offset="0.11" stop-color="#B204AB"/>
<stop offset="0.23" stop-color="#7E08AB"/>
<stop offset="0.34" stop-color="#580BAB"/>
<stop offset="0.43" stop-color="#410CAB"/>
<stop offset="0.49" stop-color="#380DAB"/>
<stop offset="1" stop-color="#7B38FF"/>
</linearGradient>
<linearGradient id="paint7_linear_76_934" x1="894.765" y1="242.493" x2="69.0803" y2="-27.3511" gradientUnits="userSpaceOnUse">
<stop stop-color="#E100AC"/>
<stop offset="0.1" stop-color="#B304AC"/>
<stop offset="0.23" stop-color="#7E08AC"/>
<stop offset="0.34" stop-color="#570BAC"/>
<stop offset="0.43" stop-color="#400DAC"/>
<stop offset="0.49" stop-color="#370EAC"/>
<stop offset="1" stop-color="#7A3BFF"/>
</linearGradient>
<linearGradient id="paint8_linear_76_934" x1="897.648" y1="243.363" x2="71.5885" y2="-26.6034" gradientUnits="userSpaceOnUse">
<stop stop-color="#DE00AD"/>
<stop offset="0.09" stop-color="#B404AD"/>
<stop offset="0.23" stop-color="#7E09AD"/>
<stop offset="0.34" stop-color="#570DAD"/>
<stop offset="0.43" stop-color="#3F0FAD"/>
<stop offset="0.49" stop-color="#3610AD"/>
<stop offset="1" stop-color="#783DFF"/>
</linearGradient>
<linearGradient id="paint9_linear_76_934" x1="900.288" y1="244.184" x2="73.8629" y2="-25.9013" gradientUnits="userSpaceOnUse">
<stop stop-color="#DB00AE"/>
<stop offset="0.09" stop-color="#B404AE"/>
<stop offset="0.22" stop-color="#7E0AAE"/>
<stop offset="0.34" stop-color="#560EAE"/>
<stop offset="0.43" stop-color="#3E10AE"/>
<stop offset="0.49" stop-color="#3511AE"/>
<stop offset="1" stop-color="#7640FF"/>
</linearGradient>
<linearGradient id="paint10_linear_76_934" x1="902.709" y1="244.945" x2="75.9013" y2="-25.266" gradientUnits="userSpaceOnUse">
<stop stop-color="#D800AF"/>
<stop offset="0.08" stop-color="#B604AF"/>
<stop offset="0.22" stop-color="#7F0AAF"/>
<stop offset="0.34" stop-color="#570FAF"/>
<stop offset="0.43" stop-color="#3E12AF"/>
<stop offset="0.49" stop-color="#3513AF"/>
<stop offset="1" stop-color="#7543FF"/>
</linearGradient>
<linearGradient id="paint11_linear_76_934" x1="904.905" y1="245.662" x2="77.7308" y2="-24.668" gradientUnits="userSpaceOnUse">
<stop stop-color="#D500B1"/>
<stop offset="0.07" stop-color="#B704B1"/>
<stop offset="0.21" stop-color="#7F0BB1"/>
<stop offset="0.33" stop-color="#5610B1"/>
<stop offset="0.43" stop-color="#3D13B1"/>
<stop offset="0.49" stop-color="#3414B1"/>
<stop offset="1" stop-color="#7345FF"/>
</linearGradient>
<linearGradient id="paint12_linear_76_934" x1="906.89" y1="246.321" x2="79.3415" y2="-24.1314" gradientUnits="userSpaceOnUse">
<stop stop-color="#D200B2"/>
<stop offset="0.06" stop-color="#B804B2"/>
<stop offset="0.21" stop-color="#7F0BB2"/>
<stop offset="0.33" stop-color="#5611B2"/>
<stop offset="0.43" stop-color="#3C15B2"/>
<stop offset="0.49" stop-color="#3316B2"/>
<stop offset="1" stop-color="#7148FF"/>
</linearGradient>
<linearGradient id="paint13_linear_76_934" x1="908.669" y1="246.933" x2="80.7464" y2="-23.6414" gradientUnits="userSpaceOnUse">
<stop stop-color="#CF00B3"/>
<stop offset="0.05" stop-color="#B903B3"/>
<stop offset="0.2" stop-color="#7F0CB3"/>
<stop offset="0.33" stop-color="#5512B3"/>
<stop offset="0.43" stop-color="#3C16B3"/>
<stop offset="0.49" stop-color="#3217B3"/>
<stop offset="1" stop-color="#704BFF"/>
</linearGradient>
<linearGradient id="paint14_linear_76_934" x1="910.242" y1="247.499" x2="81.9454" y2="-23.198" gradientUnits="userSpaceOnUse">
<stop stop-color="#CC00B4"/>
<stop offset="0.04" stop-color="#BB03B4"/>
<stop offset="0.19" stop-color="#800CB4"/>
<stop offset="0.33" stop-color="#5613B4"/>
<stop offset="0.43" stop-color="#3C17B4"/>
<stop offset="0.49" stop-color="#3219B4"/>
<stop offset="1" stop-color="#6E4DFF"/>
</linearGradient>
<linearGradient id="paint15_linear_76_934" x1="911.626" y1="248.024" x2="82.9555" y2="-22.7959" gradientUnits="userSpaceOnUse">
<stop stop-color="#C900B5"/>
<stop offset="0.03" stop-color="#BC02B5"/>
<stop offset="0.19" stop-color="#800CB5"/>
<stop offset="0.32" stop-color="#5514B5"/>
<stop offset="0.43" stop-color="#3B18B5"/>
<stop offset="0.49" stop-color="#311AB5"/>
<stop offset="1" stop-color="#6C50FF"/>
</linearGradient>
<linearGradient id="paint16_linear_76_934" x1="912.821" y1="248.507" x2="83.7761" y2="-22.4351" gradientUnits="userSpaceOnUse">
<stop stop-color="#C600B6"/>
<stop offset="0.02" stop-color="#BD02B6"/>
<stop offset="0.18" stop-color="#810DB6"/>
<stop offset="0.32" stop-color="#5515B6"/>
<stop offset="0.43" stop-color="#3A1AB6"/>
<stop offset="0.49" stop-color="#301CB6"/>
<stop offset="1" stop-color="#6B53FF"/>
</linearGradient>
<linearGradient id="paint17_linear_76_934" x1="913.836" y1="248.952" x2="84.4084" y2="-22.1153" gradientUnits="userSpaceOnUse">
<stop stop-color="#C200B7"/>
<stop offset="0.01" stop-color="#BE01B7"/>
<stop offset="0.18" stop-color="#810DB7"/>
<stop offset="0.32" stop-color="#5416B7"/>
<stop offset="0.42" stop-color="#391BB7"/>
<stop offset="0.49" stop-color="#2F1DB7"/>
<stop offset="1" stop-color="#6955FF"/>
</linearGradient>
<linearGradient id="paint18_linear_76_934" x1="914.673" y1="249.349" x2="84.879" y2="-21.8379" gradientUnits="userSpaceOnUse">
<stop stop-color="#BF00B9"/>
<stop offset="0.17" stop-color="#820DB9"/>
<stop offset="0.31" stop-color="#5517B9"/>
<stop offset="0.42" stop-color="#391DB9"/>
<stop offset="0.49" stop-color="#2F1FB9"/>
<stop offset="1" stop-color="#6758FF"/>
</linearGradient>
<linearGradient id="paint19_linear_76_934" x1="915.343" y1="249.722" x2="85.1665" y2="-21.5897" gradientUnits="userSpaceOnUse">
<stop stop-color="#BC00BA"/>
<stop offset="0.16" stop-color="#820DBA"/>
<stop offset="0.31" stop-color="#5517BA"/>
<stop offset="0.42" stop-color="#391EBA"/>
<stop offset="0.49" stop-color="#2E20BA"/>
<stop offset="1" stop-color="#665BFF"/>
</linearGradient>
<linearGradient id="paint20_linear_76_934" x1="915.851" y1="250.053" x2="85.3007" y2="-21.3812" gradientUnits="userSpaceOnUse">
<stop stop-color="#B900BB"/>
<stop offset="0.15" stop-color="#830DBB"/>
<stop offset="0.31" stop-color="#5418BB"/>
<stop offset="0.42" stop-color="#381FBB"/>
<stop offset="0.49" stop-color="#2D22BB"/>
<stop offset="1" stop-color="#645EFF"/>
</linearGradient>
<linearGradient id="paint21_linear_76_934" x1="916.196" y1="250.35" x2="85.2792" y2="-21.203" gradientUnits="userSpaceOnUse">
<stop stop-color="#B600BC"/>
<stop offset="0.15" stop-color="#830DBC"/>
<stop offset="0.3" stop-color="#5419BC"/>
<stop offset="0.42" stop-color="#3720BC"/>
<stop offset="0.49" stop-color="#2C23BC"/>
<stop offset="1" stop-color="#6260FF"/>
</linearGradient>
<linearGradient id="paint22_linear_76_934" x1="916.404" y1="250.614" x2="85.1134" y2="-21.0617" gradientUnits="userSpaceOnUse">
<stop stop-color="#B300BD"/>
<stop offset="0.14" stop-color="#840DBD"/>
<stop offset="0.3" stop-color="#551ABD"/>
<stop offset="0.42" stop-color="#3722BD"/>
<stop offset="0.49" stop-color="#2C25BD"/>
<stop offset="1" stop-color="#6163FF"/>
</linearGradient>
<linearGradient id="paint23_linear_76_934" x1="916.462" y1="250.859" x2="84.7972" y2="-20.9386" gradientUnits="userSpaceOnUse">
<stop stop-color="#B000BE"/>
<stop offset="0.13" stop-color="#850CBE"/>
<stop offset="0.29" stop-color="#541ABE"/>
<stop offset="0.42" stop-color="#3623BE"/>
<stop offset="0.49" stop-color="#2B26BE"/>
<stop offset="1" stop-color="#5F66FF"/>
</linearGradient>
<linearGradient id="paint24_linear_76_934" x1="916.383" y1="251.07" x2="84.3444" y2="-20.8499" gradientUnits="userSpaceOnUse">
<stop stop-color="#AD00BF"/>
<stop offset="0.12" stop-color="#850CBF"/>
<stop offset="0.29" stop-color="#541BBF"/>
<stop offset="0.42" stop-color="#3524BF"/>
<stop offset="0.49" stop-color="#2A28BF"/>
<stop offset="1" stop-color="#5D68FF"/>
</linearGradient>
<linearGradient id="paint25_linear_76_934" x1="916.175" y1="251.259" x2="83.7612" y2="-20.7832" gradientUnits="userSpaceOnUse">
<stop stop-color="#AA00C1"/>
<stop offset="0.11" stop-color="#860BC1"/>
<stop offset="0.28" stop-color="#541BC1"/>
<stop offset="0.41" stop-color="#3525C1"/>
<stop offset="0.49" stop-color="#2929C1"/>
<stop offset="1" stop-color="#5C6BFF"/>
</linearGradient>
<linearGradient id="paint26_linear_76_934" x1="915.843" y1="251.429" x2="83.0554" y2="-20.7361" gradientUnits="userSpaceOnUse">
<stop stop-color="#A700C2"/>
<stop offset="0.1" stop-color="#880BC2"/>
<stop offset="0.28" stop-color="#551CC2"/>
<stop offset="0.41" stop-color="#3527C2"/>
<stop offset="0.49" stop-color="#292BC2"/>
<stop offset="1" stop-color="#5A6EFF"/>
</linearGradient>
<linearGradient id="paint27_linear_76_934" x1="915.4" y1="251.572" x2="82.2385" y2="-20.7149" gradientUnits="userSpaceOnUse">
<stop stop-color="#A400C3"/>
<stop offset="0.09" stop-color="#880AC3"/>
<stop offset="0.27" stop-color="#541CC3"/>
<stop offset="0.41" stop-color="#3428C3"/>
<stop offset="0.49" stop-color="#282CC3"/>
<stop offset="1" stop-color="#5870FF"/>
</linearGradient>
<linearGradient id="paint28_linear_76_934" x1="914.84" y1="251.708" x2="81.3041" y2="-20.7012" gradientUnits="userSpaceOnUse">
<stop stop-color="#A000C4"/>
<stop offset="0.08" stop-color="#8909C4"/>
<stop offset="0.27" stop-color="#541DC4"/>
<stop offset="0.41" stop-color="#3329C4"/>
<stop offset="0.49" stop-color="#272EC4"/>
<stop offset="1" stop-color="#5773FF"/>
</linearGradient>
<linearGradient id="paint29_linear_76_934" x1="914.181" y1="251.812" x2="80.2704" y2="-20.72" gradientUnits="userSpaceOnUse">
<stop stop-color="#9D00C5"/>
<stop offset="0.06" stop-color="#8A07C5"/>
<stop offset="0.26" stop-color="#541DC5"/>
<stop offset="0.41" stop-color="#332AC5"/>
<stop offset="0.49" stop-color="#262FC5"/>
<stop offset="1" stop-color="#5576FF"/>
</linearGradient>
<linearGradient id="paint30_linear_76_934" x1="913.412" y1="251.91" x2="79.1356" y2="-20.741" gradientUnits="userSpaceOnUse">
<stop stop-color="#9A00C6"/>
<stop offset="0.05" stop-color="#8C06C6"/>
<stop offset="0.25" stop-color="#551DC6"/>
<stop offset="0.4" stop-color="#332CC6"/>
<stop offset="0.49" stop-color="#2631C6"/>
<stop offset="1" stop-color="#5378FF"/>
</linearGradient>
<linearGradient id="paint31_linear_76_934" x1="912.565" y1="251.994" x2="77.9065" y2="-20.7826" gradientUnits="userSpaceOnUse">
<stop stop-color="#9700C7"/>
<stop offset="0.03" stop-color="#8D04C7"/>
<stop offset="0.25" stop-color="#551DC7"/>
<stop offset="0.4" stop-color="#322CC7"/>
<stop offset="0.49" stop-color="#2532C7"/>
<stop offset="1" stop-color="#527BFF"/>
</linearGradient>
<linearGradient id="paint32_linear_76_934" x1="911.621" y1="252.066" x2="76.5963" y2="-20.83" gradientUnits="userSpaceOnUse">
<stop stop-color="#9400C8"/>
<stop offset="0.02" stop-color="#8E03C8"/>
<stop offset="0.24" stop-color="#551DC8"/>
<stop offset="0.4" stop-color="#312EC8"/>
<stop offset="0.49" stop-color="#2434C8"/>
<stop offset="1" stop-color="#507EFF"/>
</linearGradient>
<linearGradient id="paint33_linear_76_934" x1="910.604" y1="252.135" x2="75.2053" y2="-20.8833" gradientUnits="userSpaceOnUse">
<stop stop-color="#9100CA"/>
<stop offset="0.01" stop-color="#8F01CA"/>
<stop offset="0.23" stop-color="#551DCA"/>
<stop offset="0.4" stop-color="#312ECA"/>
<stop offset="0.49" stop-color="#2335CA"/>
<stop offset="1" stop-color="#4E81FF"/>
</linearGradient>
<linearGradient id="paint34_linear_76_934" x1="909.518" y1="252.192" x2="73.7449" y2="-20.9489" gradientUnits="userSpaceOnUse">
<stop stop-color="#8E00CB"/>
<stop offset="0.22" stop-color="#561DCB"/>
<stop offset="0.4" stop-color="#3130CB"/>
<stop offset="0.49" stop-color="#2337CB"/>
<stop offset="1" stop-color="#4D83FF"/>
</linearGradient>
<linearGradient id="paint35_linear_76_934" x1="908.368" y1="252.248" x2="72.2202" y2="-21.015" gradientUnits="userSpaceOnUse">
<stop stop-color="#8B00CC"/>
<stop offset="0.21" stop-color="#561CCC"/>
<stop offset="0.39" stop-color="#3030CC"/>
<stop offset="0.49" stop-color="#2238CC"/>
<stop offset="1" stop-color="#4B86FF"/>
</linearGradient>
<linearGradient id="paint36_linear_76_934" x1="907.156" y1="252.294" x2="70.6339" y2="-21.0909" gradientUnits="userSpaceOnUse">
<stop stop-color="#8800CD"/>
<stop offset="0.2" stop-color="#571CCD"/>
<stop offset="0.39" stop-color="#3032CD"/>
<stop offset="0.49" stop-color="#213ACD"/>
<stop offset="1" stop-color="#4989FF"/>
</linearGradient>
<linearGradient id="paint37_linear_76_934" x1="905.888" y1="252.343" x2="68.9918" y2="-21.1645" gradientUnits="userSpaceOnUse">
<stop stop-color="#8500CE"/>
<stop offset="0.2" stop-color="#571BCE"/>
<stop offset="0.39" stop-color="#2F32CE"/>
<stop offset="0.49" stop-color="#203BCE"/>
<stop offset="1" stop-color="#488BFF"/>
</linearGradient>
<linearGradient id="paint38_linear_76_934" x1="904.573" y1="252.397" x2="67.3106" y2="-21.2303" gradientUnits="userSpaceOnUse">
<stop stop-color="#8200CF"/>
<stop offset="0.18" stop-color="#581ACF"/>
<stop offset="0.38" stop-color="#2F33CF"/>
<stop offset="0.49" stop-color="#203DCF"/>
<stop offset="1" stop-color="#468EFF"/>
</linearGradient>
<linearGradient id="paint39_linear_76_934" x1="903.22" y1="252.449" x2="65.584" y2="-21.3005" gradientUnits="userSpaceOnUse">
<stop stop-color="#7F00D0"/>
<stop offset="0.17" stop-color="#5819D0"/>
<stop offset="0.38" stop-color="#2F34D0"/>
<stop offset="0.49" stop-color="#1F3ED0"/>
<stop offset="1" stop-color="#4491FF"/>
</linearGradient>
<linearGradient id="paint40_linear_76_934" x1="901.841" y1="252.502" x2="63.8218" y2="-21.3723" gradientUnits="userSpaceOnUse">
<stop stop-color="#7B00D2"/>
<stop offset="0.16" stop-color="#5918D2"/>
<stop offset="0.38" stop-color="#2E35D2"/>
<stop offset="0.49" stop-color="#1E40D2"/>
<stop offset="1" stop-color="#4393FF"/>
</linearGradient>
<linearGradient id="paint41_linear_76_934" x1="900.427" y1="252.575" x2="62.0335" y2="-21.4216" gradientUnits="userSpaceOnUse">
<stop stop-color="#7800D3"/>
<stop offset="0.14" stop-color="#5916D3"/>
<stop offset="0.37" stop-color="#2E35D3"/>
<stop offset="0.49" stop-color="#1D41D3"/>
<stop offset="1" stop-color="#4196FF"/>
</linearGradient>
<linearGradient id="paint42_linear_76_934" x1="898.994" y1="252.652" x2="60.2343" y2="-21.4642" gradientUnits="userSpaceOnUse">
<stop stop-color="#7500D4"/>
<stop offset="0.13" stop-color="#5B14D4"/>
<stop offset="0.37" stop-color="#2E36D4"/>
<stop offset="0.49" stop-color="#1D43D4"/>
<stop offset="1" stop-color="#3F99FF"/>
</linearGradient>
<linearGradient id="paint43_linear_76_934" x1="897.549" y1="252.736" x2="58.4153" y2="-21.5031" gradientUnits="userSpaceOnUse">
<stop stop-color="#7200D5"/>
<stop offset="0.11" stop-color="#5B12D5"/>
<stop offset="0.36" stop-color="#2E36D5"/>
<stop offset="0.49" stop-color="#1C44D5"/>
<stop offset="1" stop-color="#3E9BFF"/>
</linearGradient>
<linearGradient id="paint44_linear_76_934" x1="896.089" y1="252.835" x2="56.5813" y2="-21.5261" gradientUnits="userSpaceOnUse">
<stop stop-color="#6F00D6"/>
<stop offset="0.1" stop-color="#5C10D6"/>
<stop offset="0.36" stop-color="#2D37D6"/>
<stop offset="0.49" stop-color="#1B46D6"/>
<stop offset="1" stop-color="#3C9EFF"/>
</linearGradient>
<linearGradient id="paint45_linear_76_934" x1="894.636" y1="252.947" x2="54.7535" y2="-21.5369" gradientUnits="userSpaceOnUse">
<stop stop-color="#6C00D7"/>
<stop offset="0.08" stop-color="#5D0DD7"/>
<stop offset="0.35" stop-color="#2D37D7"/>
<stop offset="0.49" stop-color="#1A47D7"/>
<stop offset="1" stop-color="#3AA1FF"/>
</linearGradient>
<linearGradient id="paint46_linear_76_934" x1="893.183" y1="253.079" x2="52.927" y2="-21.5266" gradientUnits="userSpaceOnUse">
<stop stop-color="#6900D8"/>
<stop offset="0.05" stop-color="#5F09D8"/>
<stop offset="0.34" stop-color="#2D37D8"/>
<stop offset="0.49" stop-color="#1A49D8"/>
<stop offset="1" stop-color="#39A3FF"/>
</linearGradient>
<linearGradient id="paint47_linear_76_934" x1="891.745" y1="253.227" x2="51.1146" y2="-21.5015" gradientUnits="userSpaceOnUse">
<stop stop-color="#6600DA"/>
<stop offset="0.03" stop-color="#6006DA"/>
<stop offset="0.34" stop-color="#2D37DA"/>
<stop offset="0.49" stop-color="#194ADA"/>
<stop offset="1" stop-color="#37A6FF"/>
</linearGradient>
<linearGradient id="paint48_linear_76_934" x1="890.317" y1="253.398" x2="49.3208" y2="-21.4497" gradientUnits="userSpaceOnUse">
<stop stop-color="#6300DB"/>
<stop offset="0.02" stop-color="#6003DB"/>
<stop offset="0.33" stop-color="#2C38DB"/>
<stop offset="0.49" stop-color="#184CDB"/>
<stop offset="1" stop-color="#35A9FF"/>
</linearGradient>
<linearGradient id="paint49_linear_76_934" x1="888.925" y1="253.602" x2="47.5463" y2="-21.371" gradientUnits="userSpaceOnUse">
<stop stop-color="#6000DC"/>
<stop offset="0.01" stop-color="#5F02DC"/>
<stop offset="0.33" stop-color="#2B38DC"/>
<stop offset="0.49" stop-color="#174DDC"/>
<stop offset="1" stop-color="#34ACFF"/>
</linearGradient>
<linearGradient id="paint50_linear_76_934" x1="887.558" y1="253.813" x2="45.8134" y2="-21.2789" gradientUnits="userSpaceOnUse">
<stop stop-color="#5D00DD"/>
<stop offset="0.01" stop-color="#5C01DD"/>
<stop offset="0.33" stop-color="#2A39DD"/>
<stop offset="0.49" stop-color="#174FDD"/>
<stop offset="1" stop-color="#32AEFF"/>
</linearGradient>
<linearGradient id="paint51_linear_76_934" x1="886.227" y1="254.058" x2="44.1074" y2="-21.1571" gradientUnits="userSpaceOnUse">
<stop stop-color="#5A00DE"/>
<stop offset="0.33" stop-color="#2939DE"/>
<stop offset="0.49" stop-color="#1650DE"/>
<stop offset="1" stop-color="#30B1FF"/>
</linearGradient>
<linearGradient id="paint52_linear_76_934" x1="884.939" y1="254.336" x2="42.4455" y2="-21.0006" gradientUnits="userSpaceOnUse">
<stop stop-color="#5600DF"/>
<stop offset="0.33" stop-color="#283BDF"/>
<stop offset="0.49" stop-color="#1552DF"/>
<stop offset="1" stop-color="#2FB4FF"/>
</linearGradient>
<linearGradient id="paint53_linear_76_934" x1="883.706" y1="254.644" x2="40.8385" y2="-20.8157" gradientUnits="userSpaceOnUse">
<stop stop-color="#5300E0"/>
<stop offset="0.32" stop-color="#263BE0"/>
<stop offset="0.49" stop-color="#1453E0"/>
<stop offset="1" stop-color="#2DB6FF"/>
</linearGradient>
<linearGradient id="paint54_linear_76_934" x1="882.529" y1="254.979" x2="39.2869" y2="-20.6024" gradientUnits="userSpaceOnUse">
<stop stop-color="#5000E1"/>
<stop offset="0.32" stop-color="#263CE1"/>
<stop offset="0.49" stop-color="#1455E1"/>
<stop offset="1" stop-color="#2BB9FF"/>
</linearGradient>
<linearGradient id="paint55_linear_76_934" x1="881.412" y1="255.355" x2="37.7956" y2="-20.3489" gradientUnits="userSpaceOnUse">
<stop stop-color="#4D00E3"/>
<stop offset="0.32" stop-color="#253CE3"/>
<stop offset="0.49" stop-color="#1356E3"/>
<stop offset="1" stop-color="#2ABCFF"/>
</linearGradient>
<linearGradient id="paint56_linear_76_934" x1="880.366" y1="255.764" x2="36.3759" y2="-20.0617" gradientUnits="userSpaceOnUse">
<stop stop-color="#4A00E4"/>
<stop offset="0.32" stop-color="#233DE4"/>
<stop offset="0.49" stop-color="#1258E4"/>
<stop offset="1" stop-color="#28BEFF"/>
</linearGradient>
<linearGradient id="paint57_linear_76_934" x1="879.39" y1="256.217" x2="35.0336" y2="-19.7285" gradientUnits="userSpaceOnUse">
<stop stop-color="#4700E5"/>
<stop offset="0.31" stop-color="#223CE5"/>
<stop offset="0.49" stop-color="#1159E5"/>
<stop offset="1" stop-color="#26C1FF"/>
</linearGradient>
<linearGradient id="paint58_linear_76_934" x1="878.502" y1="256.709" x2="33.7712" y2="-19.359" gradientUnits="userSpaceOnUse">
<stop stop-color="#4400E6"/>
<stop offset="0.31" stop-color="#223DE6"/>
<stop offset="0.49" stop-color="#115BE6"/>
<stop offset="1" stop-color="#25C4FF"/>
</linearGradient>
<linearGradient id="paint59_linear_76_934" x1="877.702" y1="257.24" x2="32.5973" y2="-18.9503" gradientUnits="userSpaceOnUse">
<stop stop-color="#4100E7"/>
<stop offset="0.31" stop-color="#213DE7"/>
<stop offset="0.49" stop-color="#105CE7"/>
<stop offset="1" stop-color="#23C6FF"/>
</linearGradient>
<linearGradient id="paint60_linear_76_934" x1="877" y1="257.813" x2="31.5206" y2="-18.4996" gradientUnits="userSpaceOnUse">
<stop stop-color="#3E00E8"/>
<stop offset="0.3" stop-color="#203DE8"/>
<stop offset="0.49" stop-color="#0F5EE8"/>
<stop offset="1" stop-color="#21C9FF"/>
</linearGradient>
<linearGradient id="paint61_linear_76_934" x1="876.391" y1="258.437" x2="30.5456" y2="-17.995" gradientUnits="userSpaceOnUse">
<stop stop-color="#3B00E9"/>
<stop offset="0.29" stop-color="#1E3CE9"/>
<stop offset="0.49" stop-color="#0E5FE9"/>
<stop offset="1" stop-color="#20CCFF"/>
</linearGradient>
<linearGradient id="paint62_linear_76_934" x1="875.895" y1="259.109" x2="29.6759" y2="-17.4456" gradientUnits="userSpaceOnUse">
<stop stop-color="#3800EB"/>
<stop offset="0.29" stop-color="#1E3CEB"/>
<stop offset="0.49" stop-color="#0E61EB"/>
<stop offset="1" stop-color="#1ECFFF"/>
</linearGradient>
<linearGradient id="paint63_linear_76_934" x1="875.522" y1="259.831" x2="28.9195" y2="-16.849" gradientUnits="userSpaceOnUse">
<stop stop-color="#3400EC"/>
<stop offset="0.28" stop-color="#1D3BEC"/>
<stop offset="0.49" stop-color="#0D62EC"/>
<stop offset="1" stop-color="#1CD1FF"/>
</linearGradient>
<linearGradient id="paint64_linear_76_934" x1="875.258" y1="260.609" x2="28.2896" y2="-16.1905" gradientUnits="userSpaceOnUse">
<stop stop-color="#3100ED"/>
<stop offset="0.27" stop-color="#1B3BED"/>
<stop offset="0.49" stop-color="#0C64ED"/>
<stop offset="1" stop-color="#1BD4FF"/>
</linearGradient>
<linearGradient id="paint65_linear_76_934" x1="875.124" y1="261.44" x2="27.7815" y2="-15.4818" gradientUnits="userSpaceOnUse">
<stop stop-color="#2E00EE"/>
<stop offset="0.26" stop-color="#1A39EE"/>
<stop offset="0.49" stop-color="#0B65EE"/>
<stop offset="1" stop-color="#19D7FF"/>
</linearGradient>
<linearGradient id="paint66_linear_76_934" x1="875.129" y1="262.326" x2="27.4121" y2="-14.7176" gradientUnits="userSpaceOnUse">
<stop stop-color="#2B00EF"/>
<stop offset="0.25" stop-color="#1A38EF"/>
<stop offset="0.49" stop-color="#0B67EF"/>
<stop offset="1" stop-color="#17D9FF"/>
</linearGradient>
<linearGradient id="paint67_linear_76_934" x1="875.269" y1="263.278" x2="27.1783" y2="-13.8884" gradientUnits="userSpaceOnUse">
<stop stop-color="#2800F0"/>
<stop offset="0.24" stop-color="#1935F0"/>
<stop offset="0.49" stop-color="#0A68F0"/>
<stop offset="1" stop-color="#16DCFF"/>
</linearGradient>
<linearGradient id="paint68_linear_76_934" x1="875.559" y1="264.278" x2="27.0938" y2="-13.0105" gradientUnits="userSpaceOnUse">
<stop stop-color="#2500F1"/>
<stop offset="0.23" stop-color="#1833F1"/>
<stop offset="0.49" stop-color="#096AF1"/>
<stop offset="1" stop-color="#14DFFF"/>
</linearGradient>
<linearGradient id="paint69_linear_76_934" x1="875.993" y1="265.346" x2="27.1614" y2="-12.0623" gradientUnits="userSpaceOnUse">
<stop stop-color="#2200F3"/>
<stop offset="0.21" stop-color="#172FF3"/>
<stop offset="0.49" stop-color="#086BF3"/>
<stop offset="1" stop-color="#12E1FF"/>
</linearGradient>
<linearGradient id="paint70_linear_76_934" x1="876.598" y1="266.48" x2="27.3922" y2="-11.0503" gradientUnits="userSpaceOnUse">
<stop stop-color="#1F00F4"/>
<stop offset="0.19" stop-color="#162BF4"/>
<stop offset="0.49" stop-color="#086DF4"/>
<stop offset="1" stop-color="#11E4FF"/>
</linearGradient>
<linearGradient id="paint71_linear_76_934" x1="877.366" y1="267.678" x2="27.7865" y2="-9.97484" gradientUnits="userSpaceOnUse">
<stop stop-color="#1C00F5"/>
<stop offset="0.16" stop-color="#1525F5"/>
<stop offset="0.49" stop-color="#076EF5"/>
<stop offset="1" stop-color="#0FE7FF"/>
</linearGradient>
<linearGradient id="paint72_linear_76_934" x1="878.303" y1="268.951" x2="28.3491" y2="-8.82359" gradientUnits="userSpaceOnUse">
<stop stop-color="#1900F6"/>
<stop offset="0.12" stop-color="#141DF6"/>
<stop offset="0.49" stop-color="#0670F6"/>
<stop offset="1" stop-color="#0DE9FF"/>
</linearGradient>
<linearGradient id="paint73_linear_76_934" x1="879.423" y1="270.285" x2="29.0945" y2="-7.61263" gradientUnits="userSpaceOnUse">
<stop stop-color="#1600F7"/>
<stop offset="0.08" stop-color="#1312F7"/>
<stop offset="0.49" stop-color="#0571F7"/>
<stop offset="1" stop-color="#0CECFF"/>
</linearGradient>
<linearGradient id="paint74_linear_76_934" x1="880.72" y1="271.696" x2="30.0258" y2="-6.32042" gradientUnits="userSpaceOnUse">
<stop stop-color="#002366"/>
<stop offset="0.02" stop-color="#1205F8"/>
<stop offset="0.49" stop-color="#0573F8"/>
<stop offset="1" stop-color="#377BFE"/>
</linearGradient>
<linearGradient id="paint75_linear_76_934" x1="882.213" y1="273.183" x2="31.1448" y2="-4.95651" gradientUnits="userSpaceOnUse">
<stop stop-color="#002366"/>
<stop offset="0.49" stop-color="#0474F9"/>
<stop offset="1" stop-color="#377BFE"/>
</linearGradient>
<linearGradient id="paint76_linear_76_934" x1="883.903" y1="274.744" x2="32.4607" y2="-3.51804" gradientUnits="userSpaceOnUse">
<stop stop-color="#002366"/>
<stop offset="0.49" stop-color="#0376FA"/>
<stop offset="1" stop-color="#377BFE"/>
</linearGradient>
<linearGradient id="paint77_linear_76_934" x1="885.806" y1="276.384" x2="33.9895" y2="-1.99952" gradientUnits="userSpaceOnUse">
<stop stop-color="#002366"/>
<stop offset="0.49" stop-color="#0277FC"/>
<stop offset="1" stop-color="#377BFE"/>
</linearGradient>
<linearGradient id="paint78_linear_76_934" x1="887.914" y1="278.102" x2="35.7233" y2="-0.403965" gradientUnits="userSpaceOnUse">
<stop stop-color="#002366"/>
<stop offset="0.49" stop-color="#0279FD"/>
<stop offset="1" stop-color="#377BFE"/>
</linearGradient>
<linearGradient id="paint79_linear_76_934" x1="890.236" y1="279.9" x2="37.6789" y2="1.27455" gradientUnits="userSpaceOnUse">
<stop stop-color="#002366"/>
<stop offset="0.49" stop-color="#017AFE"/>
<stop offset="1" stop-color="#377BFE"/>
</linearGradient>
<linearGradient id="paint80_linear_76_934" x1="892.784" y1="281.793" x2="39.8527" y2="3.04475" gradientUnits="userSpaceOnUse">
<stop stop-color="#002366"/>
<stop offset="1" stop-color="#377BFE"/>
</linearGradient>
</defs>
</svg>
