<svg width="842" height="312" viewBox="0 0 842 312" fill="none" xmlns="http://www.w3.org/2000/svg">
<g style="mix-blend-mode:hard-light" opacity="0.2">
<path style="mix-blend-mode:screen" opacity="0.01" d="M764.212 324.732C667.561 378.629 633.081 345.848 600.506 321.723C589.95 313.902 579.708 306.978 567.76 304.083C541.396 297.696 517.541 316.505 494.201 332.993C474.336 347.021 455.207 359.5 435.402 354.159C413.38 348.237 404.28 325.085 400.814 295.55C392.647 226.248 417.71 121.976 385.792 113.889C340.287 102.361 309.155 253.711 258.192 242.061C207.229 230.411 227.787 187.78 177.21 174.966C130.144 163.042 124.012 203.526 65.0569 193.675C60.6059 192.931 55.8746 191.904 50.8168 190.562C-20.9761 171.314 11.9636 172.585 -81.2173 137.394" stroke="url(#paint0_linear_76_851)" stroke-width="0.671658" stroke-miterlimit="10"/>
<path style="mix-blend-mode:screen" opacity="0.02" d="M768.929 326.028C672.356 378.976 638.418 345.373 605.637 321.388C595.022 313.653 584.752 306.844 572.815 304.082C546.449 297.987 522.663 316.985 499.26 333.185C479.326 346.953 460.401 358.949 440.82 353.332C419.038 347.138 410.02 323.946 406.257 294.658C397.305 225.995 421.706 124.764 389.492 116.603C343.689 104.999 313.922 252.85 262.945 241.186C211.967 229.522 232.106 188.975 181.605 176.181C134.555 164.261 129.416 202.967 70.1609 192.98C65.6845 192.23 60.9338 191.208 55.8712 189.885C-15.6971 170.926 16.518 173.134 -76.708 137.8" stroke="url(#paint1_linear_76_851)" stroke-width="0.671658" stroke-miterlimit="10"/>
<path style="mix-blend-mode:screen" opacity="0.04" d="M773.318 327.302C676.827 379.281 643.409 344.842 610.445 321.042C599.771 313.292 589.485 306.65 577.544 304.049C551.191 298.26 527.457 317.443 503.986 333.343C483.989 346.863 465.278 358.368 445.881 352.485C424.348 346.021 415.417 322.74 411.337 293.736C401.625 225.687 425.325 127.507 392.848 119.279C346.784 107.569 318.334 251.93 267.372 240.24C216.411 228.549 236.122 190.043 185.689 177.266C138.666 165.353 134.526 202.284 74.9912 192.156C70.4918 191.389 65.7169 190.391 60.6435 189.076C-10.7217 170.562 20.7987 173.552 -72.4809 138.074" stroke="url(#paint2_linear_76_851)" stroke-width="0.671658" stroke-miterlimit="10"/>
<path style="mix-blend-mode:screen" opacity="0.05" d="M777.47 328.444C681.068 379.467 648.201 344.24 615.002 320.582C604.307 312.918 593.957 306.421 582.026 303.923C555.687 298.4 532.011 317.78 508.481 333.381C488.405 346.64 469.906 357.664 450.754 351.53C429.466 344.775 420.619 321.444 416.235 292.716C405.729 225.344 428.753 130.152 396.013 121.857C349.643 110.109 322.563 250.983 271.543 239.278C220.522 227.573 239.861 191.142 189.495 178.382C142.506 166.477 139.377 201.627 79.5408 191.371C75.0183 190.588 70.2216 189.605 65.1434 188.309C-5.99821 170.124 24.8095 174.003 -68.5261 138.39" stroke="url(#paint3_linear_76_851)" stroke-width="0.671658" stroke-miterlimit="10"/>
<path style="mix-blend-mode:screen" opacity="0.06" d="M781.344 329.577C685.022 379.642 652.695 343.602 619.303 320.067C608.525 312.443 598.165 306.095 586.253 303.733C559.922 298.535 536.291 318.097 512.7 333.401C492.569 346.413 474.238 356.955 455.339 350.533C434.294 343.496 425.589 320.07 420.84 291.643C409.684 224.873 431.888 132.742 398.885 124.381C352.235 112.562 326.456 249.941 275.459 238.212C224.463 226.482 243.364 192.1 193.066 179.357C146.094 167.457 143.949 200.827 83.8574 190.436C79.301 189.645 74.4934 188.669 69.4043 187.38C-1.51617 169.534 28.5704 174.3 -64.8127 138.553" stroke="url(#paint4_linear_76_851)" stroke-width="0.671658" stroke-miterlimit="10"/>
<path style="mix-blend-mode:screen" opacity="0.07" d="M784.95 330.663C688.72 379.761 656.924 342.908 623.331 319.524C612.505 311.948 602.109 305.742 590.208 303.514C563.884 298.61 540.311 318.369 516.652 333.373C496.46 346.128 478.389 356.14 459.646 349.495C438.867 342.121 430.239 318.675 425.174 290.531C413.259 224.407 434.719 135.286 401.487 126.866C354.54 114.972 330.155 248.88 279.101 237.126C228.048 225.373 246.599 193.05 196.36 180.323C149.405 168.426 148.268 200.024 87.8944 189.502C83.3065 188.692 78.4796 187.722 73.3832 186.461C2.69475 168.946 32.0662 174.611 -61.379 138.717" stroke="url(#paint5_linear_76_851)" stroke-width="0.671658" stroke-miterlimit="10"/>
<path style="mix-blend-mode:screen" opacity="0.09" d="M788.311 331.686C692.167 379.838 660.902 342.17 627.102 318.925C616.217 311.405 605.802 305.345 593.906 303.24C567.595 298.642 544.074 318.586 520.344 333.299C500.091 345.796 482.22 355.305 463.713 348.406C443.177 340.751 434.604 317.228 429.25 289.374C416.606 223.882 437.367 137.803 403.838 129.309C356.594 117.339 333.57 247.727 282.497 235.979C231.424 224.23 249.568 193.944 199.397 181.233C152.475 169.346 152.331 199.167 91.6747 188.512C87.0613 187.696 82.1981 186.727 77.0969 185.485C6.63197 168.298 35.2727 174.888 -58.2128 138.833" stroke="url(#paint6_linear_76_851)" stroke-width="0.671658" stroke-miterlimit="10"/>
<path style="mix-blend-mode:screen" opacity="0.1" d="M791.42 332.665C695.348 379.856 664.648 341.384 630.631 318.285C619.689 310.811 609.248 304.887 597.353 302.922C571.057 298.621 547.589 318.749 523.799 333.166C503.474 345.412 485.817 354.43 467.523 347.262C447.238 339.328 438.784 315.764 433.085 288.166C419.667 223.306 439.73 140.268 405.929 131.705C358.431 119.671 336.722 246.579 285.633 234.786C234.544 222.992 252.294 194.796 202.191 182.103C155.287 170.219 156.142 198.266 95.2229 187.473C90.5841 186.651 85.7415 185.707 80.6379 184.475C10.3965 167.617 38.3318 175.068 -55.2254 138.904" stroke="url(#paint7_linear_76_851)" stroke-width="0.671658" stroke-miterlimit="10"/>
<path style="mix-blend-mode:screen" opacity="0.11" d="M794.283 333.622C698.294 379.846 668.117 340.557 633.918 317.605C622.917 310.186 612.446 304.415 600.564 302.575C574.275 298.569 550.865 318.893 527.007 333.01C506.612 344.996 489.17 353.524 471.088 346.087C451.057 337.864 442.697 314.213 436.678 286.917C422.498 222.681 441.856 142.674 407.801 134.046C359.98 121.931 339.648 245.362 288.539 233.544C237.429 221.725 254.77 195.605 204.778 182.94C157.898 171.063 159.757 197.325 98.5466 186.398C93.8762 185.558 88.9973 184.615 83.8781 183.409C13.8602 166.88 41.0743 175.218 -52.5304 138.921" stroke="url(#paint8_linear_76_851)" stroke-width="0.671658" stroke-miterlimit="10"/>
<path style="mix-blend-mode:screen" opacity="0.12" d="M796.924 334.493C701.015 379.758 671.377 339.657 636.969 316.854C625.92 309.484 615.416 303.846 603.543 302.149C577.268 298.439 553.911 318.949 529.982 332.774C509.526 344.504 492.324 352.547 474.416 344.851C454.63 336.337 446.371 312.611 440.025 285.605C425.096 222.007 443.739 145.038 409.421 136.343C361.303 124.153 342.326 244.093 291.244 232.272C240.162 220.45 257.017 196.356 207.084 183.706C160.23 171.835 163.089 196.322 101.603 185.235C96.9098 184.379 92.0091 183.45 86.8766 182.261C17.0931 166.055 43.5826 175.329 -50.077 138.856" stroke="url(#paint9_linear_76_851)" stroke-width="0.671658" stroke-miterlimit="10"/>
<path style="mix-blend-mode:screen" opacity="0.14" d="M799.328 335.334C703.5 379.672 674.401 338.728 639.786 316.104C628.677 308.79 618.145 303.296 606.277 301.722C580.015 298.318 556.709 319.022 532.724 332.531C512.205 344.012 495.184 351.556 477.564 343.611C458.021 334.815 449.851 311.02 443.19 284.298C427.469 221.296 445.407 147.357 410.827 138.597C362.421 126.333 344.794 242.791 293.65 230.934C242.505 219.076 259.038 197.07 209.139 184.428C162.302 172.562 166.161 195.274 104.388 184.074C99.6695 183.212 94.7555 182.3 89.6121 181.118C20.0522 165.24 45.8253 175.382 -47.889 138.805" stroke="url(#paint10_linear_76_851)" stroke-width="0.671658" stroke-miterlimit="10"/>
<path style="mix-blend-mode:screen" opacity="0.15" d="M801.509 336.129C705.77 379.48 677.211 337.755 642.396 315.242C631.23 307.974 620.671 302.624 608.814 301.184C582.525 298.066 559.313 318.965 535.264 332.196C514.667 343.415 497.86 350.468 480.426 342.257C461.136 333.172 453.047 309.308 446.077 282.881C429.622 220.53 446.845 149.629 412.001 140.801C363.307 128.464 347.044 241.394 295.867 229.558C244.689 217.722 260.837 197.738 211.006 185.113C164.194 173.253 169.053 194.191 107 182.849C102.256 181.98 97.3142 181.071 92.1636 179.918C22.8356 164.372 47.8961 175.403 -45.8827 138.688" stroke="url(#paint11_linear_76_851)" stroke-width="0.671658" stroke-miterlimit="10"/>
<path style="mix-blend-mode:screen" opacity="0.16" d="M803.485 336.882C707.833 379.246 679.799 336.736 644.783 314.374C633.56 307.151 622.982 301.948 611.128 300.64C584.879 297.825 561.708 318.956 537.574 331.842C516.93 342.858 500.322 349.376 483.091 340.894C464.055 331.521 456.064 307.59 448.77 281.444C431.558 219.729 448.066 151.865 412.968 142.973C363.976 130.561 349.068 239.999 297.87 228.138C246.672 216.277 262.404 198.357 212.658 185.753C165.872 173.9 171.725 193.051 109.396 181.589C104.62 180.702 99.6674 179.801 94.512 178.666C25.4124 163.43 49.7397 175.395 -44.077 138.509" stroke="url(#paint12_linear_76_851)" stroke-width="0.671658" stroke-miterlimit="10"/>
<path style="mix-blend-mode:screen" opacity="0.17" d="M805.244 337.6C709.665 379.034 682.178 335.684 646.963 313.463C635.69 306.298 625.078 301.228 613.235 300.054C587 297.545 563.888 318.832 539.678 331.447C518.973 342.205 502.559 348.278 485.559 339.491C466.768 329.827 458.884 305.832 451.257 279.965C433.275 218.903 449.08 154.06 413.719 145.101C364.44 132.616 350.867 238.598 299.666 226.676C248.466 214.754 263.8 198.942 214.104 186.352C167.335 174.503 174.186 191.889 111.577 180.285C106.775 179.392 101.812 178.497 96.6432 177.38C27.7695 162.463 51.3781 175.306 -42.4933 138.315" stroke="url(#paint13_linear_76_851)" stroke-width="0.671658" stroke-miterlimit="10"/>
<path style="mix-blend-mode:screen" opacity="0.19" d="M806.808 338.269C711.343 378.752 684.361 334.582 648.938 312.51C637.608 305.392 626.968 300.466 615.134 299.435C588.907 297.211 565.844 318.733 541.576 331.01C520.807 341.519 504.62 347.055 487.82 338.046C469.281 328.102 461.463 304.023 453.535 278.453C434.804 217.999 449.9 156.205 414.267 147.177C364.708 134.621 352.478 237.12 301.263 225.184C250.048 213.248 264.962 199.519 215.334 186.946C168.591 175.104 176.47 190.712 113.553 178.969C108.728 178.06 103.743 177.18 98.5612 176.079C29.9315 161.447 52.8226 175.198 -41.1252 138.117" stroke="url(#paint14_linear_76_851)" stroke-width="0.671658" stroke-miterlimit="10"/>
<path style="mix-blend-mode:screen" opacity="0.2" d="M808.172 338.907C712.762 378.426 686.347 333.44 650.723 311.519C639.334 304.457 628.667 299.675 616.838 298.767C590.624 296.848 567.589 318.58 543.285 330.535C522.453 340.796 506.471 345.839 489.893 336.563C471.597 326.338 463.868 302.191 455.627 276.895C436.131 217.073 450.519 158.319 414.624 149.225C364.776 136.596 353.926 235.61 302.664 223.642C251.403 211.674 265.953 199.992 216.427 187.445C169.708 175.609 178.562 189.436 115.399 177.56C110.541 176.642 105.534 175.777 100.347 174.695C31.9493 160.394 54.1049 175.089 -39.8821 137.806" stroke="url(#paint15_linear_76_851)" stroke-width="0.671658" stroke-miterlimit="10"/>
<path style="mix-blend-mode:screen" opacity="0.21" d="M809.358 339.46C714.028 378.02 688.151 332.233 652.329 310.453C640.883 303.436 630.19 298.79 618.37 298.025C592.156 296.429 569.211 318.304 544.814 329.984C523.91 339.995 508.145 344.537 491.777 335.002C473.735 324.488 466.103 300.244 457.536 275.27C437.277 216.072 450.959 160.358 414.809 151.199C364.656 138.493 355.142 234.011 303.892 222.036C252.642 210.06 266.764 200.42 217.264 187.879C170.614 176.06 180.425 188.102 116.971 176.092C112.096 175.17 107.072 174.3 101.862 173.273C33.6856 159.31 55.1249 174.873 -38.906 137.478" stroke="url(#paint16_linear_76_851)" stroke-width="0.671658" stroke-miterlimit="10"/>
<path style="mix-blend-mode:screen" opacity="0.22" d="M810.343 340.062C715.068 377.658 689.759 331.056 653.717 309.463C642.218 302.513 631.501 298.002 619.685 297.36C593.493 296.032 570.6 318.132 546.133 329.521C525.167 339.274 509.608 343.324 493.461 333.522C475.662 322.726 468.106 298.431 459.24 273.713C438.213 215.159 451.203 162.428 414.781 153.2C364.348 140.423 356.177 232.457 304.907 220.456C253.636 208.456 267.359 200.853 217.935 188.332C171.285 176.513 182.116 186.774 118.388 174.635C113.481 173.694 108.435 172.84 103.228 171.803C35.2797 158.15 56.0015 174.621 -38.0938 137.089" stroke="url(#paint17_linear_76_851)" stroke-width="0.671658" stroke-miterlimit="10"/>
<path style="mix-blend-mode:screen" opacity="0.23" d="M811.168 340.584C715.999 377.228 691.203 329.807 654.971 308.327C643.417 301.415 632.661 297.055 620.857 296.547C594.678 295.524 571.837 317.809 547.301 328.898C526.274 338.394 510.928 341.963 494.994 331.892C477.445 320.816 469.981 296.444 460.789 272.017C439.014 214.03 451.281 164.435 414.58 155.137C363.858 142.287 357.033 230.827 305.739 218.81C254.445 206.794 267.757 201.277 218.41 188.775C171.759 176.956 183.616 185.449 119.606 173.177C114.667 172.219 109.608 171.381 104.403 170.335C36.6919 156.994 56.6745 174.387 -37.4721 136.701" stroke="url(#paint18_linear_76_851)" stroke-width="0.671658" stroke-miterlimit="10"/>
<path style="mix-blend-mode:screen" opacity="0.25" d="M811.815 341.091C716.738 376.769 692.433 328.625 656.032 307.204C644.414 300.365 633.646 296.124 621.854 295.75C595.681 295.022 572.89 317.501 548.297 328.283C527.196 337.538 512.066 340.606 496.347 330.257C479.052 318.893 471.669 294.45 462.17 270.308C439.62 212.993 451.183 166.388 414.245 157.03C363.226 144.104 357.761 229.165 306.446 217.123C255.132 205.081 268.055 201.635 218.758 189.145C172.108 177.327 184.99 184.051 120.7 171.638C115.745 170.675 110.658 169.841 105.435 168.83C37.9672 155.774 57.2251 174.103 -36.9775 136.282" stroke="url(#paint19_linear_76_851)" stroke-width="0.671658" stroke-miterlimit="10"/>
<path style="mix-blend-mode:screen" opacity="0.26" d="M812.307 341.539C717.309 376.258 693.544 327.302 656.942 306.032C645.268 299.24 634.43 295.132 622.682 294.9C596.525 294.469 573.793 317.144 549.131 327.626C527.968 336.623 513.054 339.202 497.534 328.6C480.49 316.956 473.197 292.445 463.382 268.587C440.058 211.903 450.934 168.333 413.724 158.906C362.417 145.907 358.297 227.474 306.968 215.419C255.639 203.363 268.158 201.974 218.929 189.502C172.33 177.696 186.179 182.637 121.614 170.094C116.627 169.113 111.53 168.286 106.302 167.294C39.0555 154.576 57.5923 173.793 -36.6663 135.836" stroke="url(#paint20_linear_76_851)" stroke-width="0.671658" stroke-miterlimit="10"/>
<path style="mix-blend-mode:screen" opacity="0.27" d="M812.64 341.966C717.732 375.73 694.498 325.96 657.698 304.831C645.964 298.094 635.133 294.139 623.365 294.023C597.22 293.898 574.532 316.756 549.81 326.941C528.576 335.688 513.875 337.775 498.574 326.916C481.739 314.982 474.566 290.391 464.446 266.809C440.359 210.748 450.528 170.218 413.055 160.724C361.46 147.653 358.677 225.724 307.342 213.657C256.007 201.589 268.114 202.255 218.953 189.8C172.37 177.999 187.22 181.165 122.356 168.486C117.343 167.498 112.226 166.676 106.994 165.704C39.9756 153.296 57.7949 173.42 -36.5196 135.328" stroke="url(#paint21_linear_76_851)" stroke-width="0.671658" stroke-miterlimit="10"/>
<path style="mix-blend-mode:screen" opacity="0.28" d="M812.83 342.357C718.002 375.162 695.305 324.59 658.298 303.6C646.516 296.912 635.683 293.108 623.89 293.127C597.754 293.287 575.122 316.351 550.334 326.226C529.036 334.725 514.548 336.331 499.462 325.194C482.915 312.98 475.786 288.318 465.348 265.029C440.496 209.602 449.958 172.112 412.231 162.554C360.347 149.409 358.927 223.991 307.562 211.896C256.198 199.801 267.907 202.536 218.814 190.098C172.257 178.303 188.109 179.685 122.988 166.88C117.944 165.875 112.805 165.067 107.559 164.111C40.7807 152.006 57.8716 173.046 -36.5158 134.815" stroke="url(#paint22_linear_76_851)" stroke-width="0.671658" stroke-miterlimit="10"/>
<path style="mix-blend-mode:screen" opacity="0.3" d="M812.874 342.722C718.151 374.574 695.966 323.194 658.761 302.345C646.903 295.709 636.044 292.039 624.321 292.207C598.195 292.652 575.621 315.912 550.763 325.497C529.404 333.738 515.122 334.852 500.254 323.457C483.958 310.963 476.903 286.261 466.166 263.228C440.534 208.421 449.308 173.966 411.31 164.339C359.138 151.121 359.069 222.221 307.65 210.092C256.231 197.963 267.576 202.775 218.551 190.354C172.019 178.566 188.871 178.173 123.455 165.253C118.386 164.241 113.236 163.441 107.974 162.511C41.4624 150.706 57.7948 172.673 -36.6293 134.302" stroke="url(#paint23_linear_76_851)" stroke-width="0.671658" stroke-miterlimit="10"/>
<path style="mix-blend-mode:screen" opacity="0.31" d="M812.787 343.063C718.119 373.951 696.502 321.755 659.086 301.096C647.214 294.516 636.281 290.959 624.565 291.28C598.447 291.979 575.928 315.486 551.009 324.772C529.581 332.754 515.513 333.377 500.858 321.713C484.814 308.94 477.885 284.128 466.789 261.408C440.392 207.235 448.46 175.819 410.206 166.128C357.737 152.835 359.022 220.443 307.617 208.298C256.211 196.152 267.133 203.026 218.167 190.62C171.661 178.838 189.505 176.669 123.822 163.59C118.727 162.572 113.558 161.777 108.266 160.86C41.9498 149.316 57.5792 172.205 -36.89 133.691" stroke="url(#paint24_linear_76_851)" stroke-width="0.671658" stroke-miterlimit="10"/>
<path style="mix-blend-mode:screen" opacity="0.32" d="M812.562 343.379C717.984 373.311 696.899 320.292 659.293 299.746C647.336 293.215 636.404 289.799 624.69 290.252C598.578 291.245 576.118 314.949 551.165 323.944C529.673 331.677 515.778 331.799 501.377 319.877C485.496 306.853 478.629 281.905 467.258 259.489C440.089 205.937 447.467 177.565 408.942 167.805C356.185 154.439 358.824 218.556 307.403 206.397C255.983 194.237 266.493 203.166 217.595 190.778C171.106 179 189.986 175.055 123.995 161.838C118.843 160.795 113.686 160.023 108.434 159.126C42.303 147.922 57.2405 171.726 -37.2871 133.086" stroke="url(#paint25_linear_76_851)" stroke-width="0.671658" stroke-miterlimit="10"/>
<path style="mix-blend-mode:screen" opacity="0.33" d="M812.228 343.668C717.729 372.641 697.182 318.82 659.411 298.423C647.397 291.939 636.438 288.668 624.727 289.253C598.63 290.542 576.214 314.428 551.166 323.086C529.61 330.571 515.961 330.221 501.731 318.019C486.155 304.679 479.394 279.707 467.707 257.574C439.764 204.654 446.446 179.315 407.667 169.49C354.612 156.049 358.603 216.684 307.162 204.499C255.721 192.314 265.833 203.312 217.003 190.941C170.539 179.169 190.386 173.441 124.149 160.091C118.997 159.048 113.778 158.27 108.502 157.398C42.6634 146.5 56.8446 171.222 -37.7244 132.46" stroke="url(#paint26_linear_76_851)" stroke-width="0.671658" stroke-miterlimit="10"/>
<path style="mix-blend-mode:screen" opacity="0.35" d="M811.774 343.926C717.356 371.941 697.348 317.308 659.369 297.06C647.306 290.624 636.319 287.498 624.593 288.25C598.484 289.799 576.135 313.883 550.986 322.264C529.361 329.489 515.968 328.659 501.917 316.179C486.618 302.566 479.906 277.506 467.91 255.668C439.196 203.37 445.179 181.072 406.137 171.181C352.794 157.667 358.13 214.809 306.677 202.601C255.224 190.392 264.939 203.459 216.159 191.1C169.721 179.335 190.568 171.832 124.048 158.35C118.899 157.297 113.678 156.53 108.354 155.665C42.7561 145.1 56.2077 170.707 -38.4343 131.806" stroke="url(#paint27_linear_76_851)" stroke-width="0.671658" stroke-miterlimit="10"/>
<path style="mix-blend-mode:screen" opacity="0.36" d="M811.205 344.176C716.87 371.223 697.445 315.788 659.213 295.679C647.092 289.298 636.079 286.307 624.365 287.153C598.244 289.001 575.94 313.299 550.77 321.372C529.073 328.347 515.861 327.017 502.022 314.268C486.977 300.366 480.318 275.239 468.04 253.693C438.544 202.024 443.84 182.761 404.535 172.803C350.904 159.216 357.593 212.867 306.117 200.642C254.641 188.418 263.943 203.54 215.249 191.203C168.836 179.444 190.683 170.166 123.881 156.552C118.675 155.475 113.434 154.712 108.129 153.883C42.8002 143.608 55.5176 170.189 -39.1926 131.13" stroke="url(#paint28_linear_76_851)" stroke-width="0.671658" stroke-miterlimit="10"/>
<path style="mix-blend-mode:screen" opacity="0.37" d="M810.537 344.39C716.289 370.49 697.352 314.231 658.956 294.272C646.786 287.94 635.738 285.09 624.026 286.068C597.964 288.254 575.752 312.727 550.471 320.519C528.713 327.236 515.705 325.424 502.121 312.417C487.317 298.243 480.777 273.035 468.161 251.756C437.896 200.7 442.488 184.498 402.895 174.467C348.975 160.806 357.019 210.965 305.52 198.725C254.021 186.485 262.93 203.656 214.304 191.337C167.908 179.582 190.755 168.53 123.67 154.783C118.447 153.702 113.187 152.944 107.869 152.132C42.7524 142.123 54.739 169.629 -40.0101 130.438" stroke="url(#paint29_linear_76_851)" stroke-width="0.671658" stroke-miterlimit="10"/>
<path style="mix-blend-mode:screen" opacity="0.38" d="M809.769 344.609C715.602 369.741 697.214 312.673 658.603 292.851C646.374 286.574 635.298 283.869 623.587 284.988C597.531 287.469 575.337 312.117 550.031 319.621C528.201 326.087 515.416 323.787 502.041 310.489C487.493 296.047 481.029 270.758 468.103 249.774C437.054 199.356 440.963 186.17 401.132 176.078C346.924 162.345 356.311 209.02 304.8 196.757C253.288 184.494 261.767 203.755 213.2 191.451C166.838 179.705 190.678 166.875 123.321 152.989C118.064 151.899 112.793 151.149 107.462 150.354C42.5844 140.647 53.845 169.059 -40.9625 129.743" stroke="url(#paint30_linear_76_851)" stroke-width="0.671658" stroke-miterlimit="10"/>
<path style="mix-blend-mode:screen" opacity="0.4" d="M808.923 344.778C714.834 368.961 696.977 311.079 658.155 291.446C645.87 285.215 634.768 282.645 623.06 283.896C597.011 286.671 574.876 311.516 549.496 318.738C527.605 324.948 515.032 322.166 501.873 308.621C487.552 293.893 481.188 268.527 467.949 247.818C436.123 198.041 439.345 187.889 399.251 177.731C344.747 163.922 355.496 207.108 303.953 194.827C252.41 182.546 260.526 203.844 212.035 191.559C165.69 179.818 190.532 165.204 122.893 151.186C117.613 150.08 112.321 149.345 106.984 148.568C42.3487 139.084 52.8689 168.459 -41.9898 128.988" stroke="url(#paint31_linear_76_851)" stroke-width="0.671658" stroke-miterlimit="10"/>
<path style="mix-blend-mode:screen" opacity="0.41" d="M807.984 344.954C714.021 368.18 696.67 309.477 657.639 289.922C645.289 283.766 634.165 281.321 622.459 282.705C596.409 285.771 574.332 310.813 548.9 317.709C526.945 323.67 514.575 320.405 501.632 306.582C487.579 291.579 481.286 266.11 467.733 245.715C435.125 196.567 437.657 189.459 397.3 179.235C342.507 165.353 354.601 205.045 303.046 192.741C251.491 180.436 259.194 203.83 210.763 191.56C164.443 179.825 190.294 163.438 122.372 149.288C117.061 148.164 111.749 147.434 106.405 146.685C42.0221 137.558 51.8141 167.849 -43.0983 128.233" stroke="url(#paint32_linear_76_851)" stroke-width="0.671658" stroke-miterlimit="10"/>
<path style="mix-blend-mode:screen" opacity="0.42" d="M806.98 345.103C713.055 367.36 696.275 307.864 657.047 288.481C644.663 282.316 633.489 280.07 621.791 281.567C595.764 284.932 573.737 310.168 548.234 316.774C526.209 322.475 514.055 318.719 501.33 304.638C487.568 289.376 481.311 263.836 467.444 243.754C434.065 195.229 435.9 191.153 395.281 180.862C340.199 166.907 353.645 203.118 302.07 190.788C250.494 178.458 257.806 203.892 209.443 191.639C163.148 179.91 189.989 161.756 121.787 147.464C116.45 146.334 111.127 145.611 105.773 144.87C41.6034 136.04 50.6779 167.238 -44.3 127.525" stroke="url(#paint33_linear_76_851)" stroke-width="0.671658" stroke-miterlimit="10"/>
<path style="mix-blend-mode:screen" opacity="0.43" d="M805.896 345.252C712.045 366.539 695.806 306.262 656.376 286.999C643.925 280.918 632.733 278.779 621.035 280.417C595.013 284.086 573.047 309.509 547.475 315.815C525.39 321.258 513.447 317.022 500.928 302.66C487.365 287.115 481.234 261.506 467.092 241.617C432.92 193.728 434.068 192.687 393.185 182.329C337.815 168.301 352.615 201.02 301.028 188.667C249.44 176.314 256.335 203.822 208.039 191.586C161.762 179.862 189.607 159.914 121.132 145.492C115.769 144.356 110.418 143.636 105.057 142.923C41.1315 134.376 49.4316 166.528 -45.5587 126.651" stroke="url(#paint34_linear_76_851)" stroke-width="0.671658" stroke-miterlimit="10"/>
<path style="mix-blend-mode:screen" opacity="0.44" d="M804.759 345.358C711.003 365.7 695.294 304.578 655.65 285.483C643.143 279.449 631.923 277.454 620.228 279.223C594.22 283.189 572.304 308.806 546.673 314.814C524.515 320.007 512.78 315.309 500.49 300.652C487.171 284.816 481.121 259.136 466.645 239.607C431.682 192.344 432.159 194.342 391.014 183.918C335.355 169.817 351.501 199.043 299.89 186.674C248.279 174.304 254.782 203.862 206.562 191.646C160.302 179.926 189.147 158.203 120.389 143.649C115.004 142.497 109.64 141.794 104.265 141.098C40.615 132.853 48.2075 165.946 -46.8959 125.909" stroke="url(#paint35_linear_76_851)" stroke-width="0.671658" stroke-miterlimit="10"/>
<path style="mix-blend-mode:screen" opacity="0.46" d="M803.522 345.609C709.855 364.995 694.687 303.052 654.825 284.104C642.259 278.125 631.012 276.274 619.329 278.138C593.337 282.4 571.464 308.2 545.773 313.91C523.552 318.855 512.028 313.645 499.968 298.754C486.901 282.638 480.926 256.877 466.15 237.604C430.421 190.976 430.195 196.004 388.794 185.515C332.814 171.333 350.339 197.074 298.739 184.697C247.139 172.32 253.203 203.926 205.043 191.725C158.817 180.014 188.688 156.523 119.622 141.83C114.203 140.669 108.828 139.974 103.44 139.295C39.9986 131.294 46.8664 165.324 -48.2432 125.204" stroke="url(#paint36_linear_76_851)" stroke-width="0.671658" stroke-miterlimit="10"/>
<path style="mix-blend-mode:screen" opacity="0.47" d="M802.206 345.993C708.661 364.4 693.989 301.674 653.938 282.87C641.323 276.939 630.048 275.233 618.35 277.264C592.374 281.783 570.551 307.817 544.799 313.23C522.5 317.913 511.196 312.224 499.333 297.059C486.501 280.69 480.617 254.821 465.542 235.836C429.023 189.834 428.117 197.899 386.445 187.342C330.21 173.095 349.053 195.345 297.404 182.946C245.756 170.547 251.513 204.184 203.421 192C157.212 180.293 188.058 155.021 118.737 140.193C113.295 139.016 107.9 138.326 102.507 137.666C39.3009 129.987 45.4355 164.951 -49.7567 124.659" stroke="url(#paint37_linear_76_851)" stroke-width="0.671658" stroke-miterlimit="10"/>
<path style="mix-blend-mode:screen" opacity="0.48" d="M800.8 346.555C707.296 364.014 693.197 300.455 652.928 281.797C640.246 275.92 628.946 274.348 617.259 276.513C591.288 281.366 569.525 307.557 543.705 312.67C521.345 317.095 510.251 310.935 498.602 295.491C486.029 278.815 480.218 252.904 464.83 234.192C427.594 188.847 426.007 199.958 384.072 189.334C327.541 175.012 347.745 193.773 296.079 181.339C244.412 168.905 249.707 204.655 201.682 192.488C155.498 180.787 187.344 153.741 117.741 138.781C112.276 137.588 106.862 136.902 101.453 136.269C38.4934 128.864 43.8901 164.781 -51.3473 124.347" stroke="url(#paint38_linear_76_851)" stroke-width="0.671658" stroke-miterlimit="10"/>
<path style="mix-blend-mode:screen" opacity="0.49" d="M799.311 347.267C705.884 363.778 692.293 299.388 651.849 280.888C639.118 275.059 627.782 273.63 616.149 275.94C590.182 281.096 568.446 307.465 542.592 312.287C520.168 316.464 509.28 309.811 497.844 294.099C485.52 277.152 479.83 251.191 464.106 232.738C426.009 188.012 423.741 202.129 381.544 191.438C324.715 177.04 346.271 192.32 294.59 179.872C242.909 167.424 247.826 205.268 199.87 193.119C153.703 181.422 186.549 152.601 116.675 137.502C111.173 136.31 105.74 135.629 100.335 135.017C37.6019 127.892 42.2666 164.703 -53.0195 124.176" stroke="url(#paint39_linear_76_851)" stroke-width="0.671658" stroke-miterlimit="10"/>
<path style="mix-blend-mode:screen" opacity="0.51" d="M797.755 348.134C704.452 363.697 691.401 298.496 650.707 280.124C637.925 274.353 626.562 273.068 614.94 275.512C588.988 280.965 567.364 307.534 541.396 312.055C518.903 315.972 508.227 308.838 497.014 292.849C484.923 275.659 479.278 249.558 463.285 231.42C424.406 187.323 421.459 204.477 378.965 193.711C321.856 179.242 344.758 191.028 293.056 178.555C241.354 166.082 245.849 205.948 197.952 193.813C151.819 182.126 185.657 151.527 115.5 136.296C109.975 135.088 104.532 134.415 99.1133 133.819C36.6242 126.978 40.5607 164.775 -54.7935 124.089" stroke="url(#paint40_linear_76_851)" stroke-width="0.671658" stroke-miterlimit="10"/>
<path style="mix-blend-mode:screen" opacity="0.52" d="M796.138 349.137C702.884 363.724 690.406 297.719 649.503 279.496C636.665 273.771 625.273 272.631 613.654 275.207C587.709 280.954 566.109 307.711 540.099 311.938C517.508 315.599 507.07 307.989 496.085 291.706C484.27 274.212 478.673 248.063 462.375 230.2C422.711 186.742 419.077 206.93 376.362 196.109C318.957 181.565 343.204 189.857 291.487 177.37C239.771 164.884 243.854 206.805 196.033 194.689C149.917 183.006 184.764 150.635 114.327 135.262C108.9 134.139 103.41 133.32 97.8793 132.81C35.6695 126.292 38.8752 165.014 -56.5181 124.127" stroke="url(#paint41_linear_76_851)" stroke-width="0.671658" stroke-miterlimit="10"/>
<path style="mix-blend-mode:screen" opacity="0.53" d="M794.484 350.252C701.31 363.88 689.371 297.064 648.259 278.989C635.364 273.311 623.948 272.305 612.34 275.015C586.433 281.075 564.86 308.01 538.781 311.937C516.155 315.347 505.903 307.25 495.116 290.723C483.603 272.963 478.081 246.732 461.483 229.127C421.035 186.307 416.715 209.521 373.737 198.632C316.06 184.02 341.644 188.816 289.907 176.304C238.17 163.792 241.853 207.791 194.1 195.693C148.01 184.016 183.851 149.859 113.14 134.356C107.688 133.219 102.169 132.403 96.6084 131.913C34.6014 125.628 37.0752 165.315 -58.3813 124.321" stroke="url(#paint42_linear_76_851)" stroke-width="0.671658" stroke-miterlimit="10"/>
<path style="mix-blend-mode:screen" opacity="0.54" d="M792.786 351.466C699.698 364.148 688.294 296.508 647.026 278.586C634.071 272.963 622.627 272.102 611.03 274.946C585.054 281.28 563.61 308.419 537.469 312.059C514.781 315.21 504.721 306.678 494.157 289.875C482.807 271.864 477.412 245.523 460.5 228.232C419.25 186.047 414.254 212.288 371.013 201.333C313.031 186.643 339.986 187.952 288.217 175.422C236.448 162.892 239.747 208.943 192.062 196.862C145.988 185.189 182.838 149.259 111.842 133.634C106.392 132.484 100.871 131.675 95.3063 131.21C33.5456 125.199 35.2839 165.83 -60.231 124.71" stroke="url(#paint43_linear_76_851)" stroke-width="0.671658" stroke-miterlimit="10"/>
<path style="mix-blend-mode:screen" opacity="0.56" d="M791.041 352.76C698.018 364.509 687.169 296.031 645.7 278.26C632.672 272.679 621.217 271.967 609.623 274.942C583.704 281.584 562.268 308.907 536.083 312.252C513.324 315.154 503.488 306.093 493.139 289.012C482.039 270.69 476.709 244.306 459.499 227.302C417.464 185.756 411.794 215.014 368.29 203.993C310.019 189.23 338.283 187.047 286.545 174.504C234.807 161.961 237.654 210.077 190.028 198.011C143.98 186.345 181.822 148.638 110.557 132.864C105.082 131.711 99.5364 130.905 93.9457 130.452C32.4205 124.723 33.4124 166.304 -62.1392 125.044" stroke="url(#paint44_linear_76_851)" stroke-width="0.671658" stroke-miterlimit="10"/>
<path style="mix-blend-mode:screen" opacity="0.57" d="M789.326 354.152C696.399 364.916 686.07 295.702 644.392 278.08C631.349 272.556 619.825 271.977 608.242 275.087C582.33 282.023 560.957 309.523 534.659 312.568C511.828 315.219 502.204 305.677 492.061 288.315C481.202 269.722 475.953 243.267 458.438 226.539C415.61 185.629 409.261 217.924 365.494 206.836C306.969 192.009 336.587 186.334 284.794 173.758C233.001 161.181 235.539 211.338 187.981 199.289C141.958 187.629 180.803 148.138 109.287 132.249C103.799 131.082 98.2357 130.282 92.626 129.855C31.3425 124.419 31.6265 166.871 -63.9944 125.492" stroke="url(#paint45_linear_76_851)" stroke-width="0.671658" stroke-miterlimit="10"/>
<path style="mix-blend-mode:screen" opacity="0.58" d="M787.607 355.624C694.768 365.401 684.985 295.317 643.099 277.874C629.98 272.401 618.422 271.955 606.875 275.205C580.976 282.447 559.645 310.139 533.315 312.883C510.423 315.277 501 305.261 491.087 287.634C480.511 268.81 475.304 242.265 457.493 225.775C413.891 185.466 406.855 220.826 362.817 209.669C303.97 194.761 334.973 185.613 283.157 173.02C231.341 160.427 233.398 212.662 185.899 200.628C139.902 188.975 179.738 147.707 107.908 131.668C102.424 130.498 96.8631 129.699 91.2558 129.276C30.215 124.093 29.7503 167.576 -65.8854 126.042" stroke="url(#paint46_linear_76_851)" stroke-width="0.671658" stroke-miterlimit="10"/>
<path style="mix-blend-mode:screen" opacity="0.59" d="M785.833 357.142C693.072 365.97 683.798 295.086 641.732 277.82C628.556 272.393 617.004 272.1 605.427 275.473C579.536 283.04 558.272 310.891 531.871 313.345C508.91 315.479 499.691 304.98 490.01 287.079C479.65 267.936 474.523 241.32 456.433 225.153C412.023 185.538 404.322 223.878 360.03 212.656C300.885 197.672 333.245 185.024 281.406 172.415C229.567 159.806 231.274 214.061 183.844 202.045C137.872 190.398 178.732 147.402 106.614 131.148C101.092 129.965 95.4881 129.175 89.8369 128.785C29.0353 123.905 27.8327 168.342 -67.8505 126.674" stroke="url(#paint47_linear_76_851)" stroke-width="0.671658" stroke-miterlimit="10"/>
<path style="mix-blend-mode:screen" opacity="0.6" d="M784.112 358.734C691.436 366.616 682.73 294.917 640.435 277.734C627.209 272.365 615.653 272.232 604.063 275.723C578.186 283.556 556.965 311.63 530.505 313.786C507.465 315.658 498.514 304.672 489.007 286.512C478.879 267.095 473.872 240.398 455.444 224.529C410.258 185.555 401.866 226.908 357.311 215.62C297.878 200.563 331.581 184.43 279.729 171.798C227.878 159.167 229.169 215.496 181.814 203.498C135.869 191.888 177.68 147.064 105.307 130.817C99.7722 129.62 94.1519 128.834 88.4831 128.462C27.9072 123.761 25.9751 169.153 -69.8235 127.335" stroke="url(#paint48_linear_76_851)" stroke-width="0.671658" stroke-miterlimit="10"/>
<path style="mix-blend-mode:screen" opacity="0.62" d="M782.376 360.383C689.775 367.295 681.648 294.804 639.111 277.761C625.828 272.438 614.205 272.46 602.668 276.066C576.795 284.203 555.615 312.509 529.089 314.315C505.994 315.941 497.2 304.48 487.946 286.031C478.06 266.373 473.141 239.578 454.414 223.966C408.423 185.635 399.363 230.018 354.545 218.663C294.824 203.533 329.88 183.909 278.006 171.261C226.132 158.613 227.018 217.039 179.731 205.059C133.802 193.423 176.649 146.823 103.977 130.369C98.4279 129.162 92.7901 128.381 87.103 128.032C26.8293 123.669 24.1193 169.994 -71.7183 128.045" stroke="url(#paint49_linear_76_851)" stroke-width="0.671658" stroke-miterlimit="10"/>
<path style="mix-blend-mode:screen" opacity="0.63" d="M780.623 362.279C688.101 368.273 680.484 294.913 637.788 278.031C624.448 272.755 612.803 272.902 601.261 276.668C575.403 285.101 554.287 313.545 527.704 315.114C504.54 316.48 495.957 304.539 486.925 285.823C477.289 265.854 472.444 239.017 453.412 223.681C406.626 185.997 396.892 233.398 351.844 221.985C291.826 206.779 328.225 183.711 276.35 170.993C224.476 158.274 224.943 218.814 177.725 206.852C131.812 195.22 175.649 146.852 102.7 130.278C97.1345 129.06 91.4763 128.284 85.7683 127.956C25.7035 123.838 22.2931 171.146 -73.5981 129.052" stroke="url(#paint50_linear_76_851)" stroke-width="0.671658" stroke-miterlimit="10"/>
<path style="mix-blend-mode:screen" opacity="0.64" d="M778.894 364.294C686.463 369.291 679.375 295.157 636.47 278.424C623.082 273.196 611.4 273.485 599.87 277.385C574.019 286.113 552.964 314.743 526.31 316.022C503.084 317.131 494.703 304.715 485.894 285.723C476.501 265.473 471.737 238.566 452.4 223.506C404.825 186.479 394.419 236.888 349.075 225.4C288.768 210.122 326.522 183.522 274.623 170.828C222.725 158.133 222.789 220.69 175.655 208.749C129.768 197.124 174.605 146.982 101.377 130.266C95.795 129.043 90.1177 128.279 84.3904 127.98C24.5635 124.135 20.426 172.388 -75.5212 130.16" stroke="url(#paint51_linear_76_851)" stroke-width="0.671658" stroke-miterlimit="10"/>
<path style="mix-blend-mode:screen" opacity="0.65" d="M777.214 366.33C684.863 370.369 678.298 295.418 635.203 278.83C621.755 273.657 610.055 274.093 598.529 278.115C572.691 287.149 551.686 315.973 524.975 316.945C501.677 317.804 493.493 304.933 484.921 285.608C475.759 265.124 471.088 238.099 451.453 223.326C403.074 186.943 391.991 240.38 346.383 228.825C285.789 213.473 324.896 183.383 272.977 170.663C221.058 157.943 220.713 222.616 173.63 210.688C127.768 199.069 173.615 147.114 100.12 130.31C94.5241 129.068 88.8288 128.299 83.0824 128.012C23.5128 124.433 18.6265 173.648 -77.3767 131.284" stroke="url(#paint52_linear_76_851)" stroke-width="0.671658" stroke-miterlimit="10"/>
<path style="mix-blend-mode:screen" opacity="0.67" d="M775.582 368.389C683.311 371.469 677.322 295.706 633.99 279.269C620.486 274.142 608.76 274.714 597.235 278.877C571.4 288.255 550.45 317.255 523.669 317.896C500.312 318.487 492.345 305.117 484.014 285.59C475.11 264.798 470.495 237.767 450.573 223.235C401.407 187.5 389.641 243.952 343.771 232.331C282.888 216.906 323.349 183.324 271.402 170.607C219.455 157.89 218.732 224.556 171.708 212.643C125.906 201.039 172.717 147.31 98.9267 130.351C93.3166 129.093 87.6036 128.32 81.8387 128.04C22.4537 124.73 16.844 174.912 -79.2297 132.399" stroke="url(#paint53_linear_76_851)" stroke-width="0.671658" stroke-miterlimit="10"/>
<path style="mix-blend-mode:screen" opacity="0.68" d="M774.007 370.472C681.825 372.596 676.368 295.908 632.837 279.724C619.291 274.617 607.524 275.389 596.009 279.656C570.203 289.344 549.299 318.486 522.448 318.868C499.019 319.209 491.264 305.357 483.114 285.544C474.443 264.478 469.931 237.321 449.693 223.113C399.731 188.024 387.291 247.493 341.158 235.806C279.987 220.308 321.802 183.234 269.836 170.483C217.871 157.731 216.747 226.475 169.792 214.579C123.989 202.975 171.815 147.486 97.7473 130.375C92.12 129.115 86.3858 128.361 80.6001 128.12C21.5027 125.064 15.1635 176.201 -80.9613 133.605" stroke="url(#paint54_linear_76_851)" stroke-width="0.671658" stroke-miterlimit="10"/>
<path style="mix-blend-mode:screen" opacity="0.69" d="M772.481 372.578C680.39 373.736 675.487 296.25 631.732 280.2C618.127 275.149 606.335 276.057 594.828 280.467C569.038 290.451 548.18 319.767 521.275 319.863C497.781 319.965 490.223 305.618 482.288 285.526C473.858 264.219 469.433 236.973 448.889 223.04C398.158 188.604 385.034 251.129 338.663 239.381C277.195 223.808 320.38 183.288 268.376 170.476C216.371 157.664 214.86 228.51 167.98 216.633C122.178 205.029 170.985 147.77 96.6793 130.529C91.0371 129.262 85.2856 128.514 79.4824 128.291C20.6193 125.486 13.5373 177.595 -82.6205 134.809" stroke="url(#paint55_linear_76_851)" stroke-width="0.671658" stroke-miterlimit="10"/>
<path style="mix-blend-mode:screen" opacity="0.7" d="M771.039 374.705C679.018 374.912 674.657 296.605 630.701 280.706C617.04 275.701 605.217 276.762 593.724 281.297C567.941 291.576 547.141 321.088 520.165 320.893C496.598 320.714 489.249 305.897 481.544 285.539C473.364 263.922 469.01 236.644 448.165 222.978C396.618 189.193 382.832 254.688 336.173 242.867C274.417 227.221 318.929 183.172 266.928 170.382C214.928 157.591 213.005 230.451 166.185 218.589C120.382 206.985 170.246 147.976 95.6269 130.585C89.9688 129.302 84.1964 128.559 78.3719 128.363C19.7576 125.823 11.9377 178.885 -84.2762 135.963" stroke="url(#paint56_linear_76_851)" stroke-width="0.671658" stroke-miterlimit="10"/>
<path style="mix-blend-mode:screen" opacity="0.72" d="M769.73 376.845C677.79 376.124 673.958 297.013 629.804 281.256C616.083 276.306 604.236 277.502 592.745 282.169C566.965 292.792 546.227 322.451 519.183 321.956C495.563 321.522 488.416 306.23 480.926 285.595C472.986 263.705 468.724 236.35 447.572 222.969C395.229 189.83 380.769 258.343 333.847 246.456C271.802 230.736 317.668 183.196 265.647 170.38C213.626 157.564 211.294 232.5 164.542 220.655C118.799 209.067 169.627 148.283 94.7324 130.732C89.0563 129.441 83.2625 128.706 77.4169 128.534C19.0454 126.248 10.5021 180.277 -85.7678 137.22" stroke="url(#paint57_linear_76_851)" stroke-width="0.671658" stroke-miterlimit="10"/>
<path style="mix-blend-mode:screen" opacity="0.73" d="M768.452 379.074C676.602 377.357 673.305 297.453 628.955 281.828C615.177 276.925 603.302 278.265 591.823 283.066C566.059 293.944 545.389 323.833 518.26 323.034C494.559 322.347 487.631 306.586 480.381 285.679C472.675 263.545 468.492 236.089 447.046 222.977C393.897 190.491 378.774 262.015 331.589 250.061C269.255 234.269 316.473 183.247 264.431 170.405C212.389 157.563 209.66 234.568 162.976 222.741C117.258 211.158 169.13 148.571 93.9091 130.917C88.2201 129.612 82.4093 128.88 76.5465 128.728C18.3922 126.688 9.13156 181.696 -87.1943 138.504" stroke="url(#paint58_linear_76_851)" stroke-width="0.671658" stroke-miterlimit="10"/>
<path style="mix-blend-mode:screen" opacity="0.74" d="M767.282 381.27C675.511 378.635 672.761 297.89 628.189 282.461C616.26 278.008 603.041 278.562 590.976 284.022C565.227 295.197 544.593 325.266 517.427 324.185C493.672 323.212 486.923 306.992 479.886 285.815C472.421 263.37 468.321 235.874 446.57 223.038C392.64 191.212 376.828 265.74 329.38 253.719C266.758 237.854 315.319 183.348 263.265 170.483C211.211 157.618 208.075 236.689 161.459 224.879C115.758 213.301 168.596 148.93 93.1356 131.154C87.4297 129.839 81.5983 129.112 75.7149 128.981C17.8288 127.201 7.82783 183.172 -88.6025 139.822" stroke="url(#paint59_linear_76_851)" stroke-width="0.671658" stroke-miterlimit="10"/>
<path style="mix-blend-mode:screen" opacity="0.75" d="M766.203 383.57C674.506 379.964 672.303 298.38 627.538 283.073C613.655 278.264 601.725 279.894 590.251 284.958C564.517 296.43 543.923 326.7 516.699 325.313C492.868 324.108 486.338 307.379 479.524 285.926C472.297 263.218 468.278 235.651 446.225 223.082C391.504 191.923 375.011 269.457 327.308 257.372C264.39 241.431 314.302 183.443 262.238 170.546C210.174 157.648 206.622 238.793 160.073 227C114.398 215.429 168.236 149.283 92.487 131.364C86.7698 130.041 80.9247 129.317 75.0275 129.2C17.3746 127.712 6.63199 184.615 -89.8059 141.152" stroke="url(#paint60_linear_76_851)" stroke-width="0.671658" stroke-miterlimit="10"/>
<path style="mix-blend-mode:screen" opacity="0.77" d="M765.233 385.867C673.632 381.277 671.995 298.917 626.981 283.739C613.048 278.988 601.09 280.762 589.627 285.96C563.9 297.726 543.36 328.172 516.072 326.506C492.171 325.042 485.851 307.841 479.252 286.109C472.261 263.148 468.338 235.485 445.981 223.191C390.461 192.688 373.296 273.23 325.357 261.085C262.15 245.071 313.401 183.578 261.329 170.678C209.257 157.779 205.294 240.97 158.813 229.194C113.155 217.626 167.994 149.706 91.973 131.647C86.2414 130.313 80.3772 129.597 74.4615 129.511C17.0161 128.236 5.54048 186.144 -90.9594 142.534" stroke="url(#paint61_linear_76_851)" stroke-width="0.671658" stroke-miterlimit="10"/>
<path style="mix-blend-mode:screen" opacity="0.78" d="M764.371 388.201C672.859 382.655 671.719 299.473 626.547 284.457C612.557 279.752 600.565 281.658 589.114 286.991C563.391 299.061 542.912 329.693 515.555 327.727C491.616 326.021 485.466 308.328 479.105 286.334C472.364 263.063 468.549 235.367 445.853 223.341C389.536 193.493 371.706 277.015 323.47 264.794C259.974 248.708 312.596 183.728 260.484 170.808C208.372 157.887 204.034 243.132 157.587 231.365C111.954 219.804 167.793 150.109 91.4991 131.88C85.7592 130.564 79.8858 129.88 73.9636 129.839C16.8057 128.819 4.58492 187.708 -91.9625 143.965" stroke="url(#paint62_linear_76_851)" stroke-width="0.671658" stroke-miterlimit="10"/>
<path style="mix-blend-mode:screen" opacity="0.79" d="M763.667 390.445C672.236 383.94 671.627 299.944 626.254 285.079C612.204 280.43 600.178 282.509 588.745 287.947C563.046 300.315 542.602 331.128 515.199 328.848C491.176 326.868 485.26 308.71 479.114 286.407C472.597 262.961 468.804 235.179 445.854 223.442C388.748 194.252 370.239 280.811 321.739 268.523C257.956 252.364 311.923 183.89 259.805 170.958C207.687 158.027 202.923 245.343 156.578 233.602C110.971 222.047 167.801 150.575 91.2165 132.283C85.4496 130.921 79.5418 130.212 73.5827 130.166C16.6591 129.397 3.70403 189.261 -92.8885 145.375" stroke="url(#paint63_linear_76_851)" stroke-width="0.671658" stroke-miterlimit="10"/>
<path style="mix-blend-mode:screen" opacity="0.8" d="M763.165 392.426C671.858 384.964 671.745 300.156 626.165 285.429C612.062 280.848 600.02 283.024 588.583 288.622C562.89 301.285 542.516 332.287 514.986 329.722C490.891 327.492 485.179 308.851 479.246 286.309C472.979 262.522 469.308 234.651 446.039 223.176C388.149 194.655 368.954 284.208 320.2 271.857C256.119 255.622 311.438 183.666 259.291 170.707C207.143 157.748 202.041 247.148 155.755 235.422C110.174 223.874 168.006 150.617 91.1469 132.164C85.365 130.794 79.4383 130.094 73.4611 130.075C16.7754 129.578 3.09813 190.369 -93.5928 146.337" stroke="url(#paint64_linear_76_851)" stroke-width="0.671658" stroke-miterlimit="10"/>
<path style="mix-blend-mode:screen" opacity="0.81" d="M762.799 394.402C671.531 385.971 671.993 300.35 626.23 285.779C612.039 281.225 599.992 283.561 588.566 289.294C562.882 302.241 542.563 333.419 515.031 330.611C490.881 328.065 485.366 308.969 479.658 286.181C473.638 262.094 470.041 234.181 446.467 222.981C387.787 195.118 367.895 287.674 318.87 275.253C254.501 258.945 311.174 183.498 259.003 170.523C206.833 157.548 201.297 248.978 155.063 237.264C109.506 225.723 168.339 150.692 91.1999 132.097C85.4009 130.716 79.4535 130.02 73.456 130.023C17.0397 129.746 2.61125 191.577 -94.0885 147.402" stroke="url(#paint65_linear_76_851)" stroke-width="0.671658" stroke-miterlimit="10"/>
<path style="mix-blend-mode:screen" opacity="0.83" d="M762.586 396.417C671.399 387.027 672.409 300.596 626.419 286.17C612.214 281.673 600.106 284.145 588.682 290.009C563.007 303.282 542.754 334.588 515.127 331.514C490.908 328.707 485.587 309.166 480.109 286.074C474.332 261.705 470.807 233.719 446.946 222.8C387.461 195.621 366.927 291.172 317.639 278.685C252.981 262.304 311.008 183.366 258.817 170.365C206.626 157.364 200.698 250.844 154.582 239.161C109.043 227.623 168.842 150.809 91.4455 132.088C85.6333 130.694 79.6687 130.002 73.6544 130.023C17.4553 129.992 2.30593 192.782 -94.4631 148.488" stroke="url(#paint66_linear_76_851)" stroke-width="0.671658" stroke-miterlimit="10"/>
<path style="mix-blend-mode:screen" opacity="0.84" d="M762.51 398.466C671.4 388.128 672.955 300.866 626.762 286.6C612.542 282.16 600.362 284.775 588.952 290.764C563.285 304.321 543.089 335.833 515.394 332.459C491.111 329.405 486.038 309.381 480.739 286.011C475.187 261.397 471.783 233.29 447.593 222.671C387.323 196.131 366.104 294.707 316.553 282.153C251.607 265.699 310.988 183.27 258.785 170.246C206.581 157.222 200.234 252.785 154.177 241.116C108.663 229.586 169.497 151.005 91.7923 132.146C85.9508 130.729 79.9504 130.037 73.9007 130.085C17.9468 130.299 2.06074 194.072 -94.7618 149.633" stroke="url(#paint67_linear_76_851)" stroke-width="0.671658" stroke-miterlimit="10"/>
<path style="mix-blend-mode:screen" opacity="0.85" d="M762.581 400.573C671.571 389.271 673.652 301.214 627.255 287.078C612.936 282.673 600.786 285.417 589.362 291.604C563.71 305.458 543.564 337.164 515.796 333.509C491.451 330.197 486.538 309.69 481.504 286.054C476.202 261.129 472.863 233.019 448.386 222.64C387.316 196.765 365.419 298.338 315.613 285.719C250.371 269.19 311.095 183.276 258.879 170.229C206.664 157.182 199.91 254.812 153.896 243.154C108.399 231.627 170.233 151.272 92.2565 132.274C86.4102 130.855 80.4025 130.175 74.3468 130.249C18.6972 130.65 2.03209 195.396 -94.838 150.825" stroke="url(#paint68_linear_76_851)" stroke-width="0.671658" stroke-miterlimit="10"/>
<path style="mix-blend-mode:screen" opacity="0.86" d="M762.824 402.713C671.886 390.45 674.507 301.582 627.926 287.601C613.547 283.252 601.365 286.159 589.969 292.414C564.322 306.572 544.231 338.453 516.405 334.491C491.991 330.919 487.273 309.957 482.477 286.028C477.407 260.829 474.156 232.65 449.375 222.548C387.516 197.33 364.941 301.899 314.872 289.215C249.341 272.612 311.417 183.217 259.176 170.163C206.935 157.11 199.767 256.763 153.821 245.123C108.358 233.605 171.226 151.483 92.9337 132.344C87.0745 130.911 81.0493 130.234 74.9767 130.328C19.5046 131.026 2.18152 196.766 -94.8039 152.044" stroke="url(#paint69_linear_76_851)" stroke-width="0.671658" stroke-miterlimit="10"/>
<path style="mix-blend-mode:screen" opacity="0.88" d="M763.332 404.486C672.474 391.265 675.678 301.556 628.838 287.741C614.403 283.438 602.185 286.488 590.8 292.877C565.168 307.331 545.127 339.406 517.24 335.147C492.763 331.327 488.248 309.851 483.668 285.674C478.831 260.231 475.677 231.956 450.585 222.118C387.943 197.57 364.687 305.145 314.356 292.394C248.536 275.718 311.97 182.812 259.681 169.736C207.392 156.66 199.894 258.4 154.016 246.777C108.57 235.263 172.407 151.349 93.8656 132.086C87.9895 130.641 81.9433 129.969 75.8506 130.085C20.6261 131.018 2.53235 197.733 -94.4425 152.862" stroke="url(#paint70_linear_76_851)" stroke-width="0.671658" stroke-miterlimit="10"/>
<path style="mix-blend-mode:screen" opacity="0.89" d="M764.122 405.857C673.344 391.678 677.044 301.185 630.047 287.493C615.553 283.245 603.31 286.43 591.931 292.972C566.306 307.72 546.335 339.945 518.371 335.423C493.824 331.343 489.519 309.395 485.128 284.934C480.53 259.189 477.459 230.874 452.062 221.311C388.614 197.417 364.695 308.002 314.1 295.184C247.992 278.436 312.767 182.055 260.493 168.953C208.22 155.851 200.265 259.644 154.454 248.038C109.034 236.531 173.862 150.84 95.0474 131.447C89.1551 129.986 83.0875 129.32 76.9743 129.462C21.9792 130.664 3.16451 198.337 -93.8712 153.35" stroke="url(#paint71_linear_76_851)" stroke-width="0.671658" stroke-miterlimit="10"/>
<path style="mix-blend-mode:screen" opacity="0.9" d="M765.083 407.301C674.394 392.166 678.634 300.862 631.427 287.318C616.876 283.117 604.614 286.448 593.243 293.102C567.658 308.153 547.703 340.604 519.68 335.744C495.069 331.416 490.959 308.983 486.826 284.254C482.477 258.239 479.487 229.854 453.794 220.569C389.57 197.346 364.956 310.924 314.116 298.044C247.711 281.22 313.84 181.348 261.545 168.221C209.251 155.093 200.875 260.979 155.132 249.39C109.728 237.887 175.557 150.421 96.4621 130.887C90.5583 129.416 84.4753 128.756 78.3479 128.922C23.6062 130.3 4.08524 199.014 -93.0403 153.884" stroke="url(#paint72_linear_76_851)" stroke-width="0.671658" stroke-miterlimit="10"/>
<path style="mix-blend-mode:screen" opacity="0.91" d="M766.236 408.804C675.627 392.71 680.398 300.592 632.994 287.19C618.394 283.037 606.085 286.518 594.725 293.306C569.13 308.648 549.245 341.318 521.167 336.142C496.496 331.556 492.612 308.656 488.677 283.643C484.555 257.373 481.668 228.903 455.664 219.883C390.642 197.355 365.357 313.902 314.237 300.95C247.544 284.054 315.026 180.69 262.709 167.547C210.391 154.403 201.639 262.343 155.955 250.77C110.586 239.275 177.417 150.025 98.0059 130.35C92.0947 128.878 86.0027 128.226 79.8674 128.409C25.3553 130.057 5.06847 199.728 -92.0453 154.479" stroke="url(#paint73_linear_76_851)" stroke-width="0.671658" stroke-miterlimit="10"/>
<path style="mix-blend-mode:screen" opacity="0.93" d="M767.572 410.374C677.046 393.312 682.357 300.382 634.747 287.15C620.088 283.052 607.787 286.676 596.407 293.581C570.785 309.208 551 342.055 522.846 336.607C498.105 331.762 494.363 308.373 490.721 283.061C486.81 256.491 484.044 227.971 457.74 219.208C391.919 197.376 365.954 316.929 314.57 303.911C247.563 286.934 316.414 180.094 264.085 166.927C211.755 153.76 202.594 263.776 156.979 252.219C111.626 240.729 179.458 149.704 99.8063 129.908C93.8696 128.408 87.7437 127.758 81.5759 127.974C27.3028 129.854 6.3302 200.521 -90.9134 155.109" stroke="url(#paint74_linear_76_851)" stroke-width="0.671658" stroke-miterlimit="10"/>
<path style="mix-blend-mode:screen" opacity="0.94" d="M769.1 412.002C678.663 393.984 684.513 300.242 636.699 287.14C621.983 283.089 609.63 286.851 598.284 293.905C572.7 309.844 552.933 342.867 524.719 337.122C499.914 332.029 496.379 308.147 492.95 282.597C489.28 255.755 486.578 227.23 459.97 218.744C393.335 197.664 366.721 320.1 315.074 307.015C247.805 289.972 317.991 179.605 265.631 166.451C213.272 153.297 203.727 265.324 158.18 253.785C112.852 242.301 181.684 149.502 101.744 129.562C95.7922 128.056 89.6486 127.412 83.4642 127.645C29.4301 129.757 7.69896 201.353 -89.5498 155.817" stroke="url(#paint75_linear_76_851)" stroke-width="0.671658" stroke-miterlimit="10"/>
<path style="mix-blend-mode:screen" opacity="0.95" d="M770.842 413.675C680.483 394.707 686.867 300.142 638.863 287.183C624.099 283.181 611.718 287.087 600.375 294.273C574.806 310.509 555.089 343.727 526.815 337.683C501.941 332.33 498.609 307.965 495.402 282.148C491.97 255.044 489.362 226.432 462.45 218.182C395.041 197.733 367.742 323.194 315.833 310.043C248.275 292.927 319.805 179.106 267.432 165.898C215.059 152.69 205.091 266.82 159.611 255.298C114.309 243.821 184.141 149.246 103.925 129.186C97.9566 127.663 91.7911 127.024 85.5865 127.284C31.7915 129.629 9.30681 202.274 -87.9955 156.594" stroke="url(#paint76_linear_76_851)" stroke-width="0.671658" stroke-miterlimit="10"/>
<path style="mix-blend-mode:screen" opacity="0.96" d="M772.79 415.429C682.514 395.494 689.435 300.127 641.221 287.317C626.39 283.367 613.983 287.409 602.658 294.701C577.096 311.231 557.438 344.645 529.096 338.302C504.158 332.7 501.041 307.845 498.054 281.761C494.859 254.363 492.329 225.691 465.122 217.718C396.926 197.918 368.984 326.415 316.77 313.186C248.914 295.995 321.799 178.683 269.405 165.449C217.012 152.216 206.649 268.436 161.237 256.931C115.961 245.46 186.75 149.1 106.296 128.909C100.312 127.371 94.125 126.736 87.9002 127.023C34.3528 129.602 11.1399 203.233 -86.2184 157.418" stroke="url(#paint77_linear_76_851)" stroke-width="0.671658" stroke-miterlimit="10"/>
<path style="mix-blend-mode:screen" opacity="0.98" d="M774.947 417.247C684.751 396.354 692.222 300.167 643.799 287.506C628.92 283.605 616.477 287.788 605.154 295.252C579.607 312.079 560.001 345.677 531.599 339.037C506.592 333.175 503.676 307.846 500.902 281.493C497.986 253.813 495.52 225.066 467.997 217.377C399.025 198.218 370.347 329.726 317.912 316.442C249.769 299.178 324.007 178.375 271.599 165.127C219.19 151.88 208.431 270.129 163.062 258.634C117.692 247.14 189.654 149.039 108.886 128.697C102.879 127.138 96.662 126.503 90.4089 126.811C37.0882 129.528 13.1461 204.256 -84.2658 158.296" stroke="url(#paint78_linear_76_851)" stroke-width="0.671658" stroke-miterlimit="10"/>
<path style="mix-blend-mode:screen" opacity="0.99" d="M777.331 419.133C687.183 397.303 695.224 300.292 646.595 287.77C631.664 283.927 619.194 288.255 607.876 295.841C582.342 312.973 562.789 346.757 534.316 339.826C509.247 333.707 506.546 307.887 504.018 281.274C501.31 253.343 498.96 224.495 471.133 217.082C401.359 198.557 371.987 333.088 319.289 319.737C250.857 302.4 326.441 178.103 274.019 164.842C221.596 151.581 210.436 271.837 165.16 260.367C119.883 248.896 192.758 149.048 111.69 128.57C105.682 127.003 99.4611 126.377 93.2056 126.712C40.095 129.704 15.4452 205.373 -82.0336 159.286" stroke="url(#paint79_linear_76_851)" stroke-width="0.671658" stroke-miterlimit="10"/>
<path style="mix-blend-mode:screen" d="M779.952 421.078C689.917 398.268 698.457 300.465 649.626 288.094C600.796 275.723 578.444 351.086 537.273 340.656C485.737 327.599 529.374 230.747 474.446 216.831C403.919 198.963 373.853 336.518 320.892 323.1C252.189 305.694 329.12 177.864 276.676 164.577C224.233 151.291 212.628 273.694 167.445 262.247C122.262 250.8 196.055 149.106 114.731 128.503C48.0462 111.608 28.6781 211.642 -79.5877 160.319" stroke="url(#paint80_linear_76_851)" stroke-width="0.671658" stroke-miterlimit="10"/>
</g>
<defs>
<linearGradient id="paint0_linear_76_851" x1="764.748" y1="323.758" x2="-74.6286" y2="111.103" gradientUnits="userSpaceOnUse">
<stop stop-color="#F700A4"/>
<stop offset="0.02" stop-color="#EC00A4"/>
<stop offset="0.14" stop-color="#AE02A4"/>
<stop offset="0.26" stop-color="#7D03A4"/>
<stop offset="0.35" stop-color="#5A03A4"/>
<stop offset="0.44" stop-color="#4404A4"/>
<stop offset="0.49" stop-color="#3C04A4"/>
<stop offset="1" stop-color="#8528FF"/>
</linearGradient>
<linearGradient id="paint1_linear_76_851" x1="769.522" y1="324.756" x2="-70.2443" y2="112.002" gradientUnits="userSpaceOnUse">
<stop stop-color="#F400A5"/>
<stop offset="0.01" stop-color="#ED00A5"/>
<stop offset="0.14" stop-color="#AF02A5"/>
<stop offset="0.25" stop-color="#7D03A5"/>
<stop offset="0.35" stop-color="#5904A5"/>
<stop offset="0.43" stop-color="#4305A5"/>
<stop offset="0.49" stop-color="#3B05A5"/>
<stop offset="1" stop-color="#842AFF"/>
</linearGradient>
<linearGradient id="paint2_linear_76_851" x1="774.002" y1="325.709" x2="-66.1382" y2="112.86" gradientUnits="userSpaceOnUse">
<stop stop-color="#F000A6"/>
<stop offset="0.13" stop-color="#B003A6"/>
<stop offset="0.25" stop-color="#7E04A6"/>
<stop offset="0.35" stop-color="#5906A6"/>
<stop offset="0.43" stop-color="#4307A6"/>
<stop offset="0.49" stop-color="#3B07A6"/>
<stop offset="1" stop-color="#822DFF"/>
</linearGradient>
<linearGradient id="paint3_linear_76_851" x1="778.213" y1="326.615" x2="-62.3168" y2="113.667" gradientUnits="userSpaceOnUse">
<stop stop-color="#EE00A8"/>
<stop offset="0.13" stop-color="#B003A8"/>
<stop offset="0.25" stop-color="#7D05A8"/>
<stop offset="0.35" stop-color="#5907A8"/>
<stop offset="0.43" stop-color="#4208A8"/>
<stop offset="0.49" stop-color="#3A08A8"/>
<stop offset="1" stop-color="#8030FF"/>
</linearGradient>
<linearGradient id="paint4_linear_76_851" x1="782.148" y1="327.47" x2="-58.7548" y2="114.428" gradientUnits="userSpaceOnUse">
<stop stop-color="#EB00A9"/>
<stop offset="0.12" stop-color="#B103A9"/>
<stop offset="0.24" stop-color="#7D06A9"/>
<stop offset="0.35" stop-color="#5808A9"/>
<stop offset="0.43" stop-color="#410AA9"/>
<stop offset="0.49" stop-color="#390AA9"/>
<stop offset="1" stop-color="#7F32FF"/>
</linearGradient>
<linearGradient id="paint5_linear_76_851" x1="785.836" y1="328.273" x2="-55.4579" y2="115.132" gradientUnits="userSpaceOnUse">
<stop stop-color="#E700AA"/>
<stop offset="0.11" stop-color="#B103AA"/>
<stop offset="0.24" stop-color="#7D07AA"/>
<stop offset="0.35" stop-color="#5809AA"/>
<stop offset="0.43" stop-color="#400AAA"/>
<stop offset="0.49" stop-color="#380BAA"/>
<stop offset="1" stop-color="#7D35FF"/>
</linearGradient>
<linearGradient id="paint6_linear_76_851" x1="789.252" y1="329.038" x2="-52.4141" y2="115.803" gradientUnits="userSpaceOnUse">
<stop stop-color="#E400AB"/>
<stop offset="0.11" stop-color="#B204AB"/>
<stop offset="0.23" stop-color="#7E08AB"/>
<stop offset="0.34" stop-color="#580BAB"/>
<stop offset="0.43" stop-color="#410CAB"/>
<stop offset="0.49" stop-color="#380DAB"/>
<stop offset="1" stop-color="#7B38FF"/>
</linearGradient>
<linearGradient id="paint7_linear_76_851" x1="792.427" y1="329.762" x2="-49.6302" y2="116.427" gradientUnits="userSpaceOnUse">
<stop stop-color="#E100AC"/>
<stop offset="0.1" stop-color="#B304AC"/>
<stop offset="0.23" stop-color="#7E08AC"/>
<stop offset="0.34" stop-color="#570BAC"/>
<stop offset="0.43" stop-color="#400DAC"/>
<stop offset="0.49" stop-color="#370EAC"/>
<stop offset="1" stop-color="#7A3BFF"/>
</linearGradient>
<linearGradient id="paint8_linear_76_851" x1="795.361" y1="330.434" x2="-47.0769" y2="117.003" gradientUnits="userSpaceOnUse">
<stop stop-color="#DE00AD"/>
<stop offset="0.09" stop-color="#B404AD"/>
<stop offset="0.23" stop-color="#7E09AD"/>
<stop offset="0.34" stop-color="#570DAD"/>
<stop offset="0.43" stop-color="#3F0FAD"/>
<stop offset="0.49" stop-color="#3610AD"/>
<stop offset="1" stop-color="#783DFF"/>
</linearGradient>
<linearGradient id="paint9_linear_76_851" x1="798.051" y1="331.076" x2="-44.7604" y2="117.55" gradientUnits="userSpaceOnUse">
<stop stop-color="#DB00AE"/>
<stop offset="0.09" stop-color="#B404AE"/>
<stop offset="0.22" stop-color="#7E0AAE"/>
<stop offset="0.34" stop-color="#560EAE"/>
<stop offset="0.43" stop-color="#3E10AE"/>
<stop offset="0.49" stop-color="#3511AE"/>
<stop offset="1" stop-color="#7640FF"/>
</linearGradient>
<linearGradient id="paint10_linear_76_851" x1="800.518" y1="331.67" x2="-42.6838" y2="118.046" gradientUnits="userSpaceOnUse">
<stop stop-color="#D800AF"/>
<stop offset="0.08" stop-color="#B604AF"/>
<stop offset="0.22" stop-color="#7F0AAF"/>
<stop offset="0.34" stop-color="#570FAF"/>
<stop offset="0.43" stop-color="#3E12AF"/>
<stop offset="0.49" stop-color="#3513AF"/>
<stop offset="1" stop-color="#7543FF"/>
</linearGradient>
<linearGradient id="paint11_linear_76_851" x1="802.757" y1="332.238" x2="-40.8179" y2="118.518" gradientUnits="userSpaceOnUse">
<stop stop-color="#D500B1"/>
<stop offset="0.07" stop-color="#B704B1"/>
<stop offset="0.21" stop-color="#7F0BB1"/>
<stop offset="0.33" stop-color="#5610B1"/>
<stop offset="0.43" stop-color="#3D13B1"/>
<stop offset="0.49" stop-color="#3414B1"/>
<stop offset="1" stop-color="#7345FF"/>
</linearGradient>
<linearGradient id="paint12_linear_76_851" x1="804.782" y1="332.761" x2="-39.1745" y2="118.945" gradientUnits="userSpaceOnUse">
<stop stop-color="#D200B2"/>
<stop offset="0.06" stop-color="#B804B2"/>
<stop offset="0.21" stop-color="#7F0BB2"/>
<stop offset="0.33" stop-color="#5611B2"/>
<stop offset="0.43" stop-color="#3C15B2"/>
<stop offset="0.49" stop-color="#3316B2"/>
<stop offset="1" stop-color="#7148FF"/>
</linearGradient>
<linearGradient id="paint13_linear_76_851" x1="806.599" y1="333.251" x2="-37.7397" y2="119.339" gradientUnits="userSpaceOnUse">
<stop stop-color="#CF00B3"/>
<stop offset="0.05" stop-color="#B903B3"/>
<stop offset="0.2" stop-color="#7F0CB3"/>
<stop offset="0.33" stop-color="#5512B3"/>
<stop offset="0.43" stop-color="#3C16B3"/>
<stop offset="0.49" stop-color="#3217B3"/>
<stop offset="1" stop-color="#704BFF"/>
</linearGradient>
<linearGradient id="paint14_linear_76_851" x1="808.207" y1="333.709" x2="-36.5134" y2="119.7" gradientUnits="userSpaceOnUse">
<stop stop-color="#CC00B4"/>
<stop offset="0.04" stop-color="#BB03B4"/>
<stop offset="0.19" stop-color="#800CB4"/>
<stop offset="0.33" stop-color="#5613B4"/>
<stop offset="0.43" stop-color="#3C17B4"/>
<stop offset="0.49" stop-color="#3219B4"/>
<stop offset="1" stop-color="#6E4DFF"/>
</linearGradient>
<linearGradient id="paint15_linear_76_851" x1="809.623" y1="334.139" x2="-35.4784" y2="120.033" gradientUnits="userSpaceOnUse">
<stop stop-color="#C900B5"/>
<stop offset="0.03" stop-color="#BC02B5"/>
<stop offset="0.19" stop-color="#800CB5"/>
<stop offset="0.32" stop-color="#5514B5"/>
<stop offset="0.43" stop-color="#3B18B5"/>
<stop offset="0.49" stop-color="#311AB5"/>
<stop offset="1" stop-color="#6C50FF"/>
</linearGradient>
<linearGradient id="paint16_linear_76_851" x1="810.848" y1="334.54" x2="-34.6354" y2="120.337" gradientUnits="userSpaceOnUse">
<stop stop-color="#C600B6"/>
<stop offset="0.02" stop-color="#BD02B6"/>
<stop offset="0.18" stop-color="#810DB6"/>
<stop offset="0.32" stop-color="#5515B6"/>
<stop offset="0.43" stop-color="#3A1AB6"/>
<stop offset="0.49" stop-color="#301CB6"/>
<stop offset="1" stop-color="#6B53FF"/>
</linearGradient>
<linearGradient id="paint17_linear_76_851" x1="811.891" y1="334.915" x2="-33.983" y2="120.613" gradientUnits="userSpaceOnUse">
<stop stop-color="#C200B7"/>
<stop offset="0.01" stop-color="#BE01B7"/>
<stop offset="0.18" stop-color="#810DB7"/>
<stop offset="0.32" stop-color="#5416B7"/>
<stop offset="0.42" stop-color="#391BB7"/>
<stop offset="0.49" stop-color="#2F1DB7"/>
<stop offset="1" stop-color="#6955FF"/>
</linearGradient>
<linearGradient id="paint18_linear_76_851" x1="812.753" y1="335.254" x2="-33.4943" y2="120.858" gradientUnits="userSpaceOnUse">
<stop stop-color="#BF00B9"/>
<stop offset="0.17" stop-color="#820DB9"/>
<stop offset="0.31" stop-color="#5517B9"/>
<stop offset="0.42" stop-color="#391DB9"/>
<stop offset="0.49" stop-color="#2F1FB9"/>
<stop offset="1" stop-color="#6758FF"/>
</linearGradient>
<linearGradient id="paint19_linear_76_851" x1="813.446" y1="335.581" x2="-33.1909" y2="121.086" gradientUnits="userSpaceOnUse">
<stop stop-color="#BC00BA"/>
<stop offset="0.16" stop-color="#820DBA"/>
<stop offset="0.31" stop-color="#5517BA"/>
<stop offset="0.42" stop-color="#391EBA"/>
<stop offset="0.49" stop-color="#2E20BA"/>
<stop offset="1" stop-color="#665BFF"/>
</linearGradient>
<linearGradient id="paint20_linear_76_851" x1="813.976" y1="335.877" x2="-33.043" y2="121.285" gradientUnits="userSpaceOnUse">
<stop stop-color="#B900BB"/>
<stop offset="0.15" stop-color="#830DBB"/>
<stop offset="0.31" stop-color="#5418BB"/>
<stop offset="0.42" stop-color="#381FBB"/>
<stop offset="0.49" stop-color="#2D22BB"/>
<stop offset="1" stop-color="#645EFF"/>
</linearGradient>
<linearGradient id="paint21_linear_76_851" x1="814.34" y1="336.151" x2="-33.0524" y2="121.465" gradientUnits="userSpaceOnUse">
<stop stop-color="#B600BC"/>
<stop offset="0.15" stop-color="#830DBC"/>
<stop offset="0.3" stop-color="#5419BC"/>
<stop offset="0.42" stop-color="#3720BC"/>
<stop offset="0.49" stop-color="#2C23BC"/>
<stop offset="1" stop-color="#6260FF"/>
</linearGradient>
<linearGradient id="paint22_linear_76_851" x1="814.565" y1="336.4" x2="-33.2082" y2="121.617" gradientUnits="userSpaceOnUse">
<stop stop-color="#B300BD"/>
<stop offset="0.14" stop-color="#840DBD"/>
<stop offset="0.3" stop-color="#551ABD"/>
<stop offset="0.42" stop-color="#3722BD"/>
<stop offset="0.49" stop-color="#2C25BD"/>
<stop offset="1" stop-color="#6163FF"/>
</linearGradient>
<linearGradient id="paint23_linear_76_851" x1="814.64" y1="336.641" x2="-33.5153" y2="121.761" gradientUnits="userSpaceOnUse">
<stop stop-color="#B000BE"/>
<stop offset="0.13" stop-color="#850CBE"/>
<stop offset="0.29" stop-color="#541ABE"/>
<stop offset="0.42" stop-color="#3623BE"/>
<stop offset="0.49" stop-color="#2B26BE"/>
<stop offset="1" stop-color="#5F66FF"/>
</linearGradient>
<linearGradient id="paint24_linear_76_851" x1="814.576" y1="336.856" x2="-33.961" y2="121.88" gradientUnits="userSpaceOnUse">
<stop stop-color="#AD00BF"/>
<stop offset="0.12" stop-color="#850CBF"/>
<stop offset="0.29" stop-color="#541BBF"/>
<stop offset="0.42" stop-color="#3524BF"/>
<stop offset="0.49" stop-color="#2A28BF"/>
<stop offset="1" stop-color="#5D68FF"/>
</linearGradient>
<linearGradient id="paint25_linear_76_851" x1="814.38" y1="337.059" x2="-34.5383" y2="121.986" gradientUnits="userSpaceOnUse">
<stop stop-color="#AA00C1"/>
<stop offset="0.11" stop-color="#860BC1"/>
<stop offset="0.28" stop-color="#541BC1"/>
<stop offset="0.41" stop-color="#3525C1"/>
<stop offset="0.49" stop-color="#2929C1"/>
<stop offset="1" stop-color="#5C6BFF"/>
</linearGradient>
<linearGradient id="paint26_linear_76_851" x1="814.061" y1="337.251" x2="-35.2393" y2="122.081" gradientUnits="userSpaceOnUse">
<stop stop-color="#A700C2"/>
<stop offset="0.1" stop-color="#880BC2"/>
<stop offset="0.28" stop-color="#551CC2"/>
<stop offset="0.41" stop-color="#3527C2"/>
<stop offset="0.49" stop-color="#292BC2"/>
<stop offset="1" stop-color="#5A6EFF"/>
</linearGradient>
<linearGradient id="paint27_linear_76_851" x1="813.629" y1="337.424" x2="-36.053" y2="122.157" gradientUnits="userSpaceOnUse">
<stop stop-color="#A400C3"/>
<stop offset="0.09" stop-color="#880AC3"/>
<stop offset="0.27" stop-color="#541CC3"/>
<stop offset="0.41" stop-color="#3428C3"/>
<stop offset="0.49" stop-color="#282CC3"/>
<stop offset="1" stop-color="#5870FF"/>
</linearGradient>
<linearGradient id="paint28_linear_76_851" x1="813.08" y1="337.597" x2="-36.9841" y2="122.234" gradientUnits="userSpaceOnUse">
<stop stop-color="#A000C4"/>
<stop offset="0.08" stop-color="#8909C4"/>
<stop offset="0.27" stop-color="#541DC4"/>
<stop offset="0.41" stop-color="#3329C4"/>
<stop offset="0.49" stop-color="#272EC4"/>
<stop offset="1" stop-color="#5773FF"/>
</linearGradient>
<linearGradient id="paint29_linear_76_851" x1="812.428" y1="337.745" x2="-38.0169" y2="122.285" gradientUnits="userSpaceOnUse">
<stop stop-color="#9D00C5"/>
<stop offset="0.06" stop-color="#8A07C5"/>
<stop offset="0.26" stop-color="#541DC5"/>
<stop offset="0.41" stop-color="#332AC5"/>
<stop offset="0.49" stop-color="#262FC5"/>
<stop offset="1" stop-color="#5576FF"/>
</linearGradient>
<linearGradient id="paint30_linear_76_851" x1="811.668" y1="337.896" x2="-39.1506" y2="122.341" gradientUnits="userSpaceOnUse">
<stop stop-color="#9A00C6"/>
<stop offset="0.05" stop-color="#8C06C6"/>
<stop offset="0.25" stop-color="#551DC6"/>
<stop offset="0.4" stop-color="#332CC6"/>
<stop offset="0.49" stop-color="#2631C6"/>
<stop offset="1" stop-color="#5378FF"/>
</linearGradient>
<linearGradient id="paint31_linear_76_851" x1="810.829" y1="338.036" x2="-40.3796" y2="122.383" gradientUnits="userSpaceOnUse">
<stop stop-color="#9700C7"/>
<stop offset="0.03" stop-color="#8D04C7"/>
<stop offset="0.25" stop-color="#551DC7"/>
<stop offset="0.4" stop-color="#322CC7"/>
<stop offset="0.49" stop-color="#2532C7"/>
<stop offset="1" stop-color="#527BFF"/>
</linearGradient>
<linearGradient id="paint32_linear_76_851" x1="809.892" y1="338.172" x2="-41.6899" y2="122.424" gradientUnits="userSpaceOnUse">
<stop stop-color="#9400C8"/>
<stop offset="0.02" stop-color="#8E03C8"/>
<stop offset="0.24" stop-color="#551DC8"/>
<stop offset="0.4" stop-color="#312EC8"/>
<stop offset="0.49" stop-color="#2434C8"/>
<stop offset="1" stop-color="#507EFF"/>
</linearGradient>
<linearGradient id="paint33_linear_76_851" x1="808.882" y1="338.31" x2="-43.0814" y2="122.465" gradientUnits="userSpaceOnUse">
<stop stop-color="#9100CA"/>
<stop offset="0.01" stop-color="#8F01CA"/>
<stop offset="0.23" stop-color="#551DCA"/>
<stop offset="0.4" stop-color="#312ECA"/>
<stop offset="0.49" stop-color="#2335CA"/>
<stop offset="1" stop-color="#4E81FF"/>
</linearGradient>
<linearGradient id="paint34_linear_76_851" x1="807.802" y1="338.44" x2="-44.5429" y2="122.499" gradientUnits="userSpaceOnUse">
<stop stop-color="#8E00CB"/>
<stop offset="0.22" stop-color="#561DCB"/>
<stop offset="0.4" stop-color="#3130CB"/>
<stop offset="0.49" stop-color="#2337CB"/>
<stop offset="1" stop-color="#4D83FF"/>
</linearGradient>
<linearGradient id="paint35_linear_76_851" x1="806.658" y1="338.574" x2="-46.0686" y2="122.536" gradientUnits="userSpaceOnUse">
<stop stop-color="#8B00CC"/>
<stop offset="0.21" stop-color="#561CCC"/>
<stop offset="0.39" stop-color="#3030CC"/>
<stop offset="0.49" stop-color="#2238CC"/>
<stop offset="1" stop-color="#4B86FF"/>
</linearGradient>
<linearGradient id="paint36_linear_76_851" x1="805.452" y1="338.702" x2="-47.6565" y2="122.568" gradientUnits="userSpaceOnUse">
<stop stop-color="#8800CD"/>
<stop offset="0.2" stop-color="#571CCD"/>
<stop offset="0.39" stop-color="#3032CD"/>
<stop offset="0.49" stop-color="#213ACD"/>
<stop offset="1" stop-color="#4989FF"/>
</linearGradient>
<linearGradient id="paint37_linear_76_851" x1="804.191" y1="338.837" x2="-49.2996" y2="122.605" gradientUnits="userSpaceOnUse">
<stop stop-color="#8500CE"/>
<stop offset="0.2" stop-color="#571BCE"/>
<stop offset="0.39" stop-color="#2F32CE"/>
<stop offset="0.49" stop-color="#203BCE"/>
<stop offset="1" stop-color="#488BFF"/>
</linearGradient>
<linearGradient id="paint38_linear_76_851" x1="802.882" y1="338.979" x2="-50.9815" y2="122.654" gradientUnits="userSpaceOnUse">
<stop stop-color="#8200CF"/>
<stop offset="0.18" stop-color="#581ACF"/>
<stop offset="0.38" stop-color="#2F33CF"/>
<stop offset="0.49" stop-color="#203DCF"/>
<stop offset="1" stop-color="#468EFF"/>
</linearGradient>
<linearGradient id="paint39_linear_76_851" x1="801.536" y1="339.123" x2="-52.7089" y2="122.7" gradientUnits="userSpaceOnUse">
<stop stop-color="#7F00D0"/>
<stop offset="0.17" stop-color="#5819D0"/>
<stop offset="0.38" stop-color="#2F34D0"/>
<stop offset="0.49" stop-color="#1F3ED0"/>
<stop offset="1" stop-color="#4491FF"/>
</linearGradient>
<linearGradient id="paint40_linear_76_851" x1="800.164" y1="339.269" x2="-54.4717" y2="122.748" gradientUnits="userSpaceOnUse">
<stop stop-color="#7B00D2"/>
<stop offset="0.16" stop-color="#5918D2"/>
<stop offset="0.38" stop-color="#2E35D2"/>
<stop offset="0.49" stop-color="#1E40D2"/>
<stop offset="1" stop-color="#4393FF"/>
</linearGradient>
<linearGradient id="paint41_linear_76_851" x1="798.758" y1="339.438" x2="-56.2593" y2="122.82" gradientUnits="userSpaceOnUse">
<stop stop-color="#7800D3"/>
<stop offset="0.14" stop-color="#5916D3"/>
<stop offset="0.37" stop-color="#2E35D3"/>
<stop offset="0.49" stop-color="#1D41D3"/>
<stop offset="1" stop-color="#4196FF"/>
</linearGradient>
<linearGradient id="paint42_linear_76_851" x1="797.333" y1="339.612" x2="-58.0573" y2="122.899" gradientUnits="userSpaceOnUse">
<stop stop-color="#7500D4"/>
<stop offset="0.13" stop-color="#5B14D4"/>
<stop offset="0.37" stop-color="#2E36D4"/>
<stop offset="0.49" stop-color="#1D43D4"/>
<stop offset="1" stop-color="#3F99FF"/>
</linearGradient>
<linearGradient id="paint43_linear_76_851" x1="795.897" y1="339.793" x2="-59.875" y2="122.984" gradientUnits="userSpaceOnUse">
<stop stop-color="#7200D5"/>
<stop offset="0.11" stop-color="#5B12D5"/>
<stop offset="0.36" stop-color="#2E36D5"/>
<stop offset="0.49" stop-color="#1C44D5"/>
<stop offset="1" stop-color="#3E9BFF"/>
</linearGradient>
<linearGradient id="paint44_linear_76_851" x1="794.448" y1="339.991" x2="-61.7061" y2="123.085" gradientUnits="userSpaceOnUse">
<stop stop-color="#6F00D6"/>
<stop offset="0.1" stop-color="#5C10D6"/>
<stop offset="0.36" stop-color="#2D37D6"/>
<stop offset="0.49" stop-color="#1B46D6"/>
<stop offset="1" stop-color="#3C9EFF"/>
</linearGradient>
<linearGradient id="paint45_linear_76_851" x1="793.005" y1="340.2" x2="-63.5305" y2="123.198" gradientUnits="userSpaceOnUse">
<stop stop-color="#6C00D7"/>
<stop offset="0.08" stop-color="#5D0DD7"/>
<stop offset="0.35" stop-color="#2D37D7"/>
<stop offset="0.49" stop-color="#1A47D7"/>
<stop offset="1" stop-color="#3AA1FF"/>
</linearGradient>
<linearGradient id="paint46_linear_76_851" x1="791.565" y1="340.431" x2="-65.3521" y2="123.332" gradientUnits="userSpaceOnUse">
<stop stop-color="#6900D8"/>
<stop offset="0.05" stop-color="#5F09D8"/>
<stop offset="0.34" stop-color="#2D37D8"/>
<stop offset="0.49" stop-color="#1A49D8"/>
<stop offset="1" stop-color="#39A3FF"/>
</linearGradient>
<linearGradient id="paint47_linear_76_851" x1="790.14" y1="340.675" x2="-67.1585" y2="123.479" gradientUnits="userSpaceOnUse">
<stop stop-color="#6600DA"/>
<stop offset="0.03" stop-color="#6006DA"/>
<stop offset="0.34" stop-color="#2D37DA"/>
<stop offset="0.49" stop-color="#194ADA"/>
<stop offset="1" stop-color="#37A6FF"/>
</linearGradient>
<linearGradient id="paint48_linear_76_851" x1="788.727" y1="340.943" x2="-68.9448" y2="123.652" gradientUnits="userSpaceOnUse">
<stop stop-color="#6300DB"/>
<stop offset="0.02" stop-color="#6003DB"/>
<stop offset="0.33" stop-color="#2C38DB"/>
<stop offset="0.49" stop-color="#184CDB"/>
<stop offset="1" stop-color="#35A9FF"/>
</linearGradient>
<linearGradient id="paint49_linear_76_851" x1="787.352" y1="341.24" x2="-70.7098" y2="123.851" gradientUnits="userSpaceOnUse">
<stop stop-color="#6000DC"/>
<stop offset="0.01" stop-color="#5F02DC"/>
<stop offset="0.33" stop-color="#2B38DC"/>
<stop offset="0.49" stop-color="#174DDC"/>
<stop offset="1" stop-color="#34ACFF"/>
</linearGradient>
<linearGradient id="paint50_linear_76_851" x1="786.003" y1="341.544" x2="-72.4326" y2="124.06" gradientUnits="userSpaceOnUse">
<stop stop-color="#5D00DD"/>
<stop offset="0.01" stop-color="#5C01DD"/>
<stop offset="0.33" stop-color="#2A39DD"/>
<stop offset="0.49" stop-color="#174FDD"/>
<stop offset="1" stop-color="#32AEFF"/>
</linearGradient>
<linearGradient id="paint51_linear_76_851" x1="784.691" y1="341.878" x2="-74.1263" y2="124.297" gradientUnits="userSpaceOnUse">
<stop stop-color="#5A00DE"/>
<stop offset="0.33" stop-color="#2939DE"/>
<stop offset="0.49" stop-color="#1650DE"/>
<stop offset="1" stop-color="#30B1FF"/>
</linearGradient>
<linearGradient id="paint52_linear_76_851" x1="783.425" y1="342.243" x2="-75.774" y2="124.566" gradientUnits="userSpaceOnUse">
<stop stop-color="#5600DF"/>
<stop offset="0.33" stop-color="#283BDF"/>
<stop offset="0.49" stop-color="#1552DF"/>
<stop offset="1" stop-color="#2FB4FF"/>
</linearGradient>
<linearGradient id="paint53_linear_76_851" x1="782.216" y1="342.633" x2="-77.3648" y2="124.859" gradientUnits="userSpaceOnUse">
<stop stop-color="#5300E0"/>
<stop offset="0.32" stop-color="#263BE0"/>
<stop offset="0.49" stop-color="#1453E0"/>
<stop offset="1" stop-color="#2DB6FF"/>
</linearGradient>
<linearGradient id="paint54_linear_76_851" x1="781.064" y1="343.048" x2="-78.8984" y2="125.177" gradientUnits="userSpaceOnUse">
<stop stop-color="#5000E1"/>
<stop offset="0.32" stop-color="#263CE1"/>
<stop offset="0.49" stop-color="#1455E1"/>
<stop offset="1" stop-color="#2BB9FF"/>
</linearGradient>
<linearGradient id="paint55_linear_76_851" x1="779.974" y1="343.498" x2="-80.3693" y2="125.531" gradientUnits="userSpaceOnUse">
<stop stop-color="#4D00E3"/>
<stop offset="0.32" stop-color="#253CE3"/>
<stop offset="0.49" stop-color="#1356E3"/>
<stop offset="1" stop-color="#2ABCFF"/>
</linearGradient>
<linearGradient id="paint56_linear_76_851" x1="778.959" y1="343.978" x2="-81.7661" y2="125.913" gradientUnits="userSpaceOnUse">
<stop stop-color="#4A00E4"/>
<stop offset="0.32" stop-color="#233DE4"/>
<stop offset="0.49" stop-color="#1258E4"/>
<stop offset="1" stop-color="#28BEFF"/>
</linearGradient>
<linearGradient id="paint57_linear_76_851" x1="778.016" y1="344.496" x2="-83.0827" y2="126.337" gradientUnits="userSpaceOnUse">
<stop stop-color="#4700E5"/>
<stop offset="0.31" stop-color="#223CE5"/>
<stop offset="0.49" stop-color="#1159E5"/>
<stop offset="1" stop-color="#26C1FF"/>
</linearGradient>
<linearGradient id="paint58_linear_76_851" x1="777.163" y1="345.046" x2="-84.3172" y2="126.791" gradientUnits="userSpaceOnUse">
<stop stop-color="#4400E6"/>
<stop offset="0.31" stop-color="#223DE6"/>
<stop offset="0.49" stop-color="#115BE6"/>
<stop offset="1" stop-color="#25C4FF"/>
</linearGradient>
<linearGradient id="paint59_linear_76_851" x1="776.401" y1="345.63" x2="-85.4607" y2="127.278" gradientUnits="userSpaceOnUse">
<stop stop-color="#4100E7"/>
<stop offset="0.31" stop-color="#213DE7"/>
<stop offset="0.49" stop-color="#105CE7"/>
<stop offset="1" stop-color="#23C6FF"/>
</linearGradient>
<linearGradient id="paint60_linear_76_851" x1="775.739" y1="346.25" x2="-86.5046" y2="127.801" gradientUnits="userSpaceOnUse">
<stop stop-color="#3E00E8"/>
<stop offset="0.3" stop-color="#203DE8"/>
<stop offset="0.49" stop-color="#0F5EE8"/>
<stop offset="1" stop-color="#21C9FF"/>
</linearGradient>
<linearGradient id="paint61_linear_76_851" x1="775.174" y1="346.914" x2="-87.4432" y2="128.37" gradientUnits="userSpaceOnUse">
<stop stop-color="#3B00E9"/>
<stop offset="0.29" stop-color="#1E3CE9"/>
<stop offset="0.49" stop-color="#0E5FE9"/>
<stop offset="1" stop-color="#20CCFF"/>
</linearGradient>
<linearGradient id="paint62_linear_76_851" x1="774.725" y1="347.617" x2="-88.2736" y2="128.977" gradientUnits="userSpaceOnUse">
<stop stop-color="#3800EB"/>
<stop offset="0.29" stop-color="#1E3CEB"/>
<stop offset="0.49" stop-color="#0E61EB"/>
<stop offset="1" stop-color="#1ECFFF"/>
</linearGradient>
<linearGradient id="paint63_linear_76_851" x1="774.401" y1="348.362" x2="-88.988" y2="129.624" gradientUnits="userSpaceOnUse">
<stop stop-color="#3400EC"/>
<stop offset="0.28" stop-color="#1D3BEC"/>
<stop offset="0.49" stop-color="#0D62EC"/>
<stop offset="1" stop-color="#1CD1FF"/>
</linearGradient>
<linearGradient id="paint64_linear_76_851" x1="774.19" y1="349.157" x2="-89.5718" y2="130.323" gradientUnits="userSpaceOnUse">
<stop stop-color="#3100ED"/>
<stop offset="0.27" stop-color="#1B3BED"/>
<stop offset="0.49" stop-color="#0C64ED"/>
<stop offset="1" stop-color="#1BD4FF"/>
</linearGradient>
<linearGradient id="paint65_linear_76_851" x1="774.113" y1="349.995" x2="-90.0306" y2="131.065" gradientUnits="userSpaceOnUse">
<stop stop-color="#2E00EE"/>
<stop offset="0.26" stop-color="#1A39EE"/>
<stop offset="0.49" stop-color="#0B65EE"/>
<stop offset="1" stop-color="#19D7FF"/>
</linearGradient>
<linearGradient id="paint66_linear_76_851" x1="774.178" y1="350.879" x2="-90.3477" y2="131.852" gradientUnits="userSpaceOnUse">
<stop stop-color="#2B00EF"/>
<stop offset="0.25" stop-color="#1A38EF"/>
<stop offset="0.49" stop-color="#0B67EF"/>
<stop offset="1" stop-color="#17D9FF"/>
</linearGradient>
<linearGradient id="paint67_linear_76_851" x1="774.382" y1="351.819" x2="-90.5247" y2="132.695" gradientUnits="userSpaceOnUse">
<stop stop-color="#2800F0"/>
<stop offset="0.24" stop-color="#1935F0"/>
<stop offset="0.49" stop-color="#0A68F0"/>
<stop offset="1" stop-color="#16DCFF"/>
</linearGradient>
<linearGradient id="paint68_linear_76_851" x1="774.739" y1="352.797" x2="-90.5495" y2="133.577" gradientUnits="userSpaceOnUse">
<stop stop-color="#2500F1"/>
<stop offset="0.23" stop-color="#1833F1"/>
<stop offset="0.49" stop-color="#096AF1"/>
<stop offset="1" stop-color="#14DFFF"/>
</linearGradient>
<linearGradient id="paint69_linear_76_851" x1="775.244" y1="353.833" x2="-90.4179" y2="134.518" gradientUnits="userSpaceOnUse">
<stop stop-color="#2200F3"/>
<stop offset="0.21" stop-color="#172FF3"/>
<stop offset="0.49" stop-color="#086BF3"/>
<stop offset="1" stop-color="#12E1FF"/>
</linearGradient>
<linearGradient id="paint70_linear_76_851" x1="775.924" y1="354.924" x2="-90.1191" y2="135.512" gradientUnits="userSpaceOnUse">
<stop stop-color="#1F00F4"/>
<stop offset="0.19" stop-color="#162BF4"/>
<stop offset="0.49" stop-color="#086DF4"/>
<stop offset="1" stop-color="#11E4FF"/>
</linearGradient>
<linearGradient id="paint71_linear_76_851" x1="776.772" y1="356.067" x2="-89.6532" y2="136.559" gradientUnits="userSpaceOnUse">
<stop stop-color="#1C00F5"/>
<stop offset="0.16" stop-color="#1525F5"/>
<stop offset="0.49" stop-color="#076EF5"/>
<stop offset="1" stop-color="#0FE7FF"/>
</linearGradient>
<linearGradient id="paint72_linear_76_851" x1="777.793" y1="357.274" x2="-89.0137" y2="137.669" gradientUnits="userSpaceOnUse">
<stop stop-color="#1900F6"/>
<stop offset="0.12" stop-color="#141DF6"/>
<stop offset="0.49" stop-color="#0670F6"/>
<stop offset="1" stop-color="#0DE9FF"/>
</linearGradient>
<linearGradient id="paint73_linear_76_851" x1="779" y1="358.529" x2="-88.1882" y2="138.827" gradientUnits="userSpaceOnUse">
<stop stop-color="#1600F7"/>
<stop offset="0.08" stop-color="#1312F7"/>
<stop offset="0.49" stop-color="#0571F7"/>
<stop offset="1" stop-color="#0CECFF"/>
</linearGradient>
<linearGradient id="paint74_linear_76_851" x1="780.39" y1="359.849" x2="-87.1714" y2="140.053" gradientUnits="userSpaceOnUse">
<stop stop-color="#002366"/>
<stop offset="0.02" stop-color="#1205F8"/>
<stop offset="0.49" stop-color="#0573F8"/>
<stop offset="1" stop-color="#377BFE"/>
</linearGradient>
<linearGradient id="paint75_linear_76_851" x1="781.981" y1="361.231" x2="-85.9628" y2="141.338" gradientUnits="userSpaceOnUse">
<stop stop-color="#002366"/>
<stop offset="0.49" stop-color="#0474F9"/>
<stop offset="1" stop-color="#377BFE"/>
</linearGradient>
<linearGradient id="paint76_linear_76_851" x1="783.772" y1="362.674" x2="-84.5526" y2="142.684" gradientUnits="userSpaceOnUse">
<stop stop-color="#002366"/>
<stop offset="0.49" stop-color="#0376FA"/>
<stop offset="1" stop-color="#377BFE"/>
</linearGradient>
<linearGradient id="paint77_linear_76_851" x1="785.782" y1="364.182" x2="-82.9244" y2="144.096" gradientUnits="userSpaceOnUse">
<stop stop-color="#002366"/>
<stop offset="0.49" stop-color="#0277FC"/>
<stop offset="1" stop-color="#377BFE"/>
</linearGradient>
<linearGradient id="paint78_linear_76_851" x1="788.002" y1="365.753" x2="-81.0868" y2="145.57" gradientUnits="userSpaceOnUse">
<stop stop-color="#002366"/>
<stop offset="0.49" stop-color="#0279FD"/>
<stop offset="1" stop-color="#377BFE"/>
</linearGradient>
<linearGradient id="paint79_linear_76_851" x1="790.44" y1="367.39" x2="-79.0218" y2="147.113" gradientUnits="userSpaceOnUse">
<stop stop-color="#002366"/>
<stop offset="0.49" stop-color="#017AFE"/>
<stop offset="1" stop-color="#377BFE"/>
</linearGradient>
<linearGradient id="paint80_linear_76_851" x1="793.11" y1="369.106" x2="-76.7333" y2="148.732" gradientUnits="userSpaceOnUse">
<stop stop-color="#002366"/>
<stop offset="1" stop-color="#377BFE"/>
</linearGradient>
</defs>
</svg>
