<svg width="150" height="40" viewBox="0 0 150 40" fill="none" xmlns="http://www.w3.org/2000/svg">
<g filter="url(#filter0_d_23_36)">
<line x1="9" y1="13" x2="9" y2="23" stroke="#002366" stroke-width="2"/>
<line x1="121" y1="13" x2="121" y2="23" stroke="#002366" stroke-width="2"/>
<line x1="17" y1="10" x2="17" y2="26" stroke="#002366" stroke-width="2"/>
<line x1="129" y1="10" x2="129" y2="26" stroke="#002366" stroke-width="2"/>
<line x1="25" y1="10" x2="25" y2="26" stroke="#002366" stroke-width="2"/>
<line x1="137" y1="10" x2="137" y2="26" stroke="#002366" stroke-width="2"/>
<line x1="33" y1="13" x2="33" y2="23" stroke="#002366" stroke-width="2"/>
<line x1="41" y1="8" x2="41" y2="28" stroke="#002366" stroke-width="2"/>
<line x1="89" y1="8" x2="89" y2="28" stroke="#002366" stroke-width="2"/>
<line x1="57" y1="8" x2="57" y2="28" stroke="#002366" stroke-width="2"/>
<line x1="105" y1="8" x2="105" y2="28" stroke="#002366" stroke-width="2"/>
<line x1="65" y1="8" x2="65" y2="28" stroke="#002366" stroke-width="2"/>
<line x1="113" y1="8" x2="113" y2="28" stroke="#002366" stroke-width="2"/>
<line x1="73" y1="8" x2="73" y2="28" stroke="#002366" stroke-width="2"/>
<line x1="81" y1="13" x2="81" y2="23" stroke="#002366" stroke-width="2"/>
<line x1="49" y1="16" x2="49" y2="21" stroke="#002366" stroke-width="2"/>
<line x1="97" y1="16" x2="97" y2="21" stroke="#002366" stroke-width="2"/>
</g>
<defs>
<filter id="filter0_d_23_36" x="0" y="0" width="150" height="40" filterUnits="userSpaceOnUse" color-interpolation-filters="sRGB">
<feFlood flood-opacity="0" result="BackgroundImageFix"/>
<feColorMatrix in="SourceAlpha" type="matrix" values="0 0 0 0 0 0 0 0 0 0 0 0 0 0 0 0 0 0 127 0" result="hardAlpha"/>
<feOffset dx="2" dy="2"/>
<feGaussianBlur stdDeviation="5"/>
<feComposite in2="hardAlpha" operator="out"/>
<feColorMatrix type="matrix" values="0 0 0 0 0 0 0 0 0 0 0 0 0 0 0 0 0 0 0.01 0"/>
<feBlend mode="normal" in2="BackgroundImageFix" result="effect1_dropShadow_23_36"/>
<feBlend mode="normal" in="SourceGraphic" in2="effect1_dropShadow_23_36" result="shape"/>
</filter>
</defs>
</svg>
