<svg width="50" height="50" viewBox="0 0 50 50" fill="none" xmlns="http://www.w3.org/2000/svg">
<path d="M25.0003 31.25C25.0003 32.3551 24.5613 33.4149 23.7799 34.1963C22.9985 34.9777 21.9387 35.4167 20.8337 35.4167C19.7286 35.4167 18.6688 34.9777 17.8874 34.1963C17.106 33.4149 16.667 32.3551 16.667 31.25C16.667 30.1449 17.106 29.0851 17.8874 28.3037C18.6688 27.5223 19.7286 27.0833 20.8337 27.0833C21.9387 27.0833 22.9985 27.5223 23.7799 28.3037C24.5613 29.0851 25.0003 30.1449 25.0003 31.25ZM25.0003 31.25V18.75" stroke="url(#paint0_linear_728_227)" stroke-width="2"/>
<path d="M29.2875 22.9788L26.5458 21.6059C26.2915 21.4926 26.0475 21.3574 25.8167 21.2017C25.4104 20.8903 25.133 20.4401 25.0375 19.9372C25 19.7434 25 19.5309 25 19.1059C25 18.0934 25 17.5892 25.125 17.2455C25.2848 16.804 25.589 16.4294 25.9883 16.1825C26.3876 15.9356 26.8586 15.8308 27.325 15.8851C27.6875 15.9267 28.1396 16.1538 29.0458 16.6059L31.7875 17.9767C32.1688 18.1684 32.3583 18.2622 32.5167 18.383C32.9225 18.694 33.1998 19.1433 33.2958 19.6455C33.3333 19.8393 33.3333 20.0517 33.3333 20.4788C33.3333 21.4892 33.3333 21.9955 33.2083 22.3392C33.0482 22.7803 32.7438 23.1545 32.3445 23.401C31.9453 23.6475 31.4744 23.752 31.0083 23.6976C30.6458 23.6559 30.1937 23.4309 29.2875 22.9788Z" stroke="url(#paint1_linear_728_227)" stroke-width="2" stroke-linecap="round"/>
<path d="M29.167 45.4165C27.8198 45.6915 26.4309 45.8304 25.0003 45.8332C13.4941 45.8332 4.16699 36.5061 4.16699 24.9998C4.16699 21.2061 5.18158 17.6457 6.95449 14.5832M45.417 29.1665C45.692 27.8193 45.8309 26.4304 45.8337 24.9998C45.8337 13.4936 36.5066 4.1665 25.0003 4.1665C21.2066 4.1665 17.6462 5.18109 14.5837 6.954" stroke="url(#paint2_linear_728_227)" stroke-width="2" stroke-linecap="round"/>
<path d="M37.5003 45.8333V31.25M37.5003 31.25L42.7087 36.4583M37.5003 31.25L32.292 36.4583" stroke="url(#paint3_linear_728_227)" stroke-width="2" stroke-linecap="round" stroke-linejoin="round"/>
<defs>
<linearGradient id="paint0_linear_728_227" x1="20.8337" y1="18.75" x2="20.8337" y2="35.4167" gradientUnits="userSpaceOnUse">
<stop stop-color="#002366"/>
<stop offset="1" stop-color="#0058FF"/>
</linearGradient>
<linearGradient id="paint1_linear_728_227" x1="29.1667" y1="15.8711" x2="29.1667" y2="23.7117" gradientUnits="userSpaceOnUse">
<stop stop-color="#002366"/>
<stop offset="1" stop-color="#0058FF"/>
</linearGradient>
<linearGradient id="paint2_linear_728_227" x1="25.0003" y1="4.1665" x2="25.0003" y2="45.8332" gradientUnits="userSpaceOnUse">
<stop stop-color="#002366"/>
<stop offset="1" stop-color="#0058FF"/>
</linearGradient>
<linearGradient id="paint3_linear_728_227" x1="37.5003" y1="31.25" x2="37.5003" y2="45.8333" gradientUnits="userSpaceOnUse">
<stop stop-color="#002366"/>
<stop offset="1" stop-color="#0058FF"/>
</linearGradient>
</defs>
</svg>
