<svg width="16" height="16" viewBox="0 0 16 16" fill="none" xmlns="http://www.w3.org/2000/svg">
<path d="M8.47852 11H7.57324V8.52148C7.57324 8.45312 7.57422 8.36914 7.57617 8.26953C7.57812 8.16797 7.58105 8.06445 7.58496 7.95898C7.58887 7.85156 7.59277 7.75488 7.59668 7.66895C7.5752 7.69434 7.53125 7.73828 7.46484 7.80078C7.40039 7.86133 7.33984 7.91602 7.2832 7.96484L6.79102 8.36035L6.35449 7.81543L7.73438 6.7168H8.47852V11ZM12.6445 8.8584C12.6445 9.2041 12.6172 9.5127 12.5625 9.78418C12.5098 10.0557 12.4238 10.2861 12.3047 10.4756C12.1875 10.665 12.0332 10.8096 11.8418 10.9092C11.6504 11.0088 11.418 11.0586 11.1445 11.0586C10.8008 11.0586 10.5186 10.9717 10.2979 10.7979C10.0771 10.6221 9.91406 10.3701 9.80859 10.042C9.70312 9.71191 9.65039 9.31738 9.65039 8.8584C9.65039 8.39551 9.69824 8 9.79395 7.67188C9.8916 7.3418 10.0498 7.08887 10.2686 6.91309C10.4873 6.7373 10.7793 6.64941 11.1445 6.64941C11.4863 6.64941 11.7676 6.7373 11.9883 6.91309C12.2109 7.08691 12.376 7.33887 12.4834 7.66895C12.5908 7.99707 12.6445 8.39355 12.6445 8.8584ZM10.5498 8.8584C10.5498 9.18457 10.5674 9.45703 10.6025 9.67578C10.6396 9.89258 10.7012 10.0557 10.7871 10.165C10.873 10.2744 10.9922 10.3291 11.1445 10.3291C11.2949 10.3291 11.4131 10.2754 11.499 10.168C11.5869 10.0586 11.6494 9.89551 11.6865 9.67871C11.7236 9.45996 11.7422 9.18652 11.7422 8.8584C11.7422 8.53223 11.7236 8.25977 11.6865 8.04102C11.6494 7.82227 11.5869 7.6582 11.499 7.54883C11.4131 7.4375 11.2949 7.38184 11.1445 7.38184C10.9922 7.38184 10.873 7.4375 10.7871 7.54883C10.7012 7.6582 10.6396 7.82227 10.6025 8.04102C10.5674 8.25977 10.5498 8.53223 10.5498 8.8584Z" fill="#002366"/>
<path d="M1 1.77051V6.43717H5.2003" stroke="#002366" stroke-linecap="round" stroke-linejoin="round"/>
<path d="M2.75712 10.3261C3.21103 11.7575 4.07135 12.9862 5.20846 13.8271C6.34556 14.6681 7.69785 15.0756 9.06157 14.9884C10.4253 14.9012 11.7266 14.324 12.7693 13.3437C13.8121 12.3633 14.5398 11.033 14.8429 9.55324C15.146 8.07343 15.0081 6.52426 14.4498 5.13915C13.8915 3.75404 12.9432 2.60803 11.7477 1.87378C10.5523 1.13954 9.17441 0.856838 7.82176 1.06828C6.4691 1.27972 5.21494 1.97385 4.24823 3.04608L1 6.43718" stroke="#002366" stroke-linecap="round" stroke-linejoin="round"/>
</svg>
