<svg width="16" height="16" viewBox="0 0 16 16" fill="none" xmlns="http://www.w3.org/2000/svg">
<path d="M14.9996 1.77625V6.44291H10.7988" stroke="#002366" stroke-linecap="round" stroke-linejoin="round"/>
<path d="M13.2426 10.3318C12.7875 11.7629 11.926 12.9908 10.788 13.8307C9.65001 14.6705 8.29713 15.0767 6.93323 14.988C5.56934 14.8994 4.26833 14.3207 3.22624 13.3392C2.18416 12.3577 1.45747 11.0265 1.15567 9.5463C0.853868 8.06607 0.993314 6.51697 1.55299 5.13243C2.11267 3.74789 3.06226 2.60294 4.25867 1.8701C5.45507 1.13726 6.83347 0.856237 8.18616 1.06938C9.53884 1.28253 10.7925 1.97829 11.7583 3.05182L14.9999 6.44293" stroke="#002366" stroke-linecap="round" stroke-linejoin="round"/>
<path d="M6.47852 11H5.57324V8.52148C5.57324 8.45312 5.57422 8.36914 5.57617 8.26953C5.57812 8.16797 5.58105 8.06445 5.58496 7.95898C5.58887 7.85156 5.59277 7.75488 5.59668 7.66895C5.5752 7.69434 5.53125 7.73828 5.46484 7.80078C5.40039 7.86133 5.33984 7.91602 5.2832 7.96484L4.79102 8.36035L4.35449 7.81543L5.73438 6.7168H6.47852V11ZM10.6445 8.8584C10.6445 9.2041 10.6172 9.5127 10.5625 9.78418C10.5098 10.0557 10.4238 10.2861 10.3047 10.4756C10.1875 10.665 10.0332 10.8096 9.8418 10.9092C9.65039 11.0088 9.41797 11.0586 9.14453 11.0586C8.80078 11.0586 8.51855 10.9717 8.29785 10.7979C8.07715 10.6221 7.91406 10.3701 7.80859 10.042C7.70312 9.71191 7.65039 9.31738 7.65039 8.8584C7.65039 8.39551 7.69824 8 7.79395 7.67188C7.8916 7.3418 8.0498 7.08887 8.26855 6.91309C8.4873 6.7373 8.7793 6.64941 9.14453 6.64941C9.48633 6.64941 9.76758 6.7373 9.98828 6.91309C10.2109 7.08691 10.376 7.33887 10.4834 7.66895C10.5908 7.99707 10.6445 8.39355 10.6445 8.8584ZM8.5498 8.8584C8.5498 9.18457 8.56738 9.45703 8.60254 9.67578C8.63965 9.89258 8.70117 10.0557 8.78711 10.165C8.87305 10.2744 8.99219 10.3291 9.14453 10.3291C9.29492 10.3291 9.41309 10.2754 9.49902 10.168C9.58691 10.0586 9.64941 9.89551 9.68652 9.67871C9.72363 9.45996 9.74219 9.18652 9.74219 8.8584C9.74219 8.53223 9.72363 8.25977 9.68652 8.04102C9.64941 7.82227 9.58691 7.6582 9.49902 7.54883C9.41309 7.4375 9.29492 7.38184 9.14453 7.38184C8.99219 7.38184 8.87305 7.4375 8.78711 7.54883C8.70117 7.6582 8.63965 7.82227 8.60254 8.04102C8.56738 8.25977 8.5498 8.53223 8.5498 8.8584Z" fill="#002366"/>
</svg>
