<svg width="50" height="50" viewBox="0 0 50 50" fill="none" xmlns="http://www.w3.org/2000/svg">
<path d="M26.042 4.1665H26.6107C33.4024 4.1665 36.8024 4.1665 39.1607 5.829C39.8357 6.304 40.4357 6.87067 40.942 7.50609C42.7087 9.72692 42.7087 12.9228 42.7087 19.3186V24.6207C42.7087 30.7936 42.7087 33.8811 41.7316 36.3457C40.1607 40.3103 36.8399 43.4353 32.6274 44.9144C30.0087 45.8332 26.7316 45.8332 20.1691 45.8332C16.4232 45.8332 14.5482 45.8332 13.0524 45.3082C10.6462 44.4623 8.74824 42.6769 7.85033 40.4123C7.29199 39.004 7.29199 37.2394 7.29199 33.7123V24.9998" stroke="url(#paint0_linear_734_283)" stroke-width="2" stroke-linecap="round" stroke-linejoin="round"/>
<path d="M42.7083 24.9998C42.7083 26.8414 41.9768 28.6076 40.6746 29.9098C39.3723 31.212 37.6062 31.9436 35.7646 31.9436C34.3771 31.9436 32.7417 31.7019 31.3937 32.0623C30.805 32.2207 30.2682 32.5309 29.8372 32.962C29.4061 33.3931 29.0958 33.9299 28.9375 34.5186C28.5771 35.8665 28.8187 37.5019 28.8187 38.8894C28.8187 39.8013 28.6391 40.7042 28.2902 41.5467C27.9412 42.3891 27.4298 43.1546 26.785 43.7994C26.1402 44.4442 25.3747 44.9557 24.5323 45.3046C23.6898 45.6536 22.7869 45.8332 21.875 45.8332M9.375 9.37484C10.4 8.32067 13.125 4.1665 14.5833 4.1665M14.5833 4.1665C16.0417 4.1665 18.7667 8.32067 19.7917 9.37484M14.5833 4.1665V20.8332" stroke="url(#paint1_linear_734_283)" stroke-width="2" stroke-linecap="round" stroke-linejoin="round"/>
<defs>
<linearGradient id="paint0_linear_734_283" x1="25.0003" y1="4.1665" x2="25.0003" y2="45.8332" gradientUnits="userSpaceOnUse">
<stop stop-color="#002366"/>
<stop offset="1" stop-color="#0058FF"/>
</linearGradient>
<linearGradient id="paint1_linear_734_283" x1="26.0417" y1="4.1665" x2="26.0417" y2="45.8332" gradientUnits="userSpaceOnUse">
<stop stop-color="#002366"/>
<stop offset="1" stop-color="#0058FF"/>
</linearGradient>
</defs>
</svg>
