<svg width="103" height="48" viewBox="0 0 103 48" fill="none" xmlns="http://www.w3.org/2000/svg">
<path d="M21.3 34.25C22.4667 34.9167 23.5833 35.4833 24.65 35.95C25.75 36.3833 26.8667 36.6 28 36.6C29.1667 36.6 30.2167 36.4667 31.15 36.2C31.8833 37.2333 32.4333 38.25 32.8 39.25C32.1667 40.5833 31.1833 41.75 29.85 42.75C28.5167 43.7833 27.0167 44.3 25.35 44.3C23.6833 44.3 22.05 43.6667 20.45 42.4C18.85 41.1667 17.05 39.45 15.05 37.25L12.9 34.8C11.0333 36.2667 9.08333 37 7.05 37C5.01667 37 3.45 36.5167 2.35 35.55C1.25 34.55 0.7 33.3667 0.7 32C0.7 30.6333 1.23333 29.4667 2.3 28.5C3.36667 27.5333 4.56667 27.05 5.9 27.05C7.26667 27.05 8.55 27.2333 9.75 27.6C10.25 25.4667 10.6 23.0833 10.8 20.45C6.13333 19.3833 3.8 16.65 3.8 12.25L4.1 9.55C4.43333 9.51666 5.06667 9.5 6 9.5C6.93333 9.5 7.83333 9.71667 8.7 10.15C8.5 11.05 8.4 11.75 8.4 12.25C8.4 14.8833 9.28333 16.35 11.05 16.65C11.1833 13.9167 11.3 12.0333 11.4 11C11.7667 7.4 13.0167 4.75 15.15 3.05C17.3167 1.35 19.8167 0.499998 22.65 0.499998C25.5167 0.499998 27.7 1.2 29.2 2.6C30.7 3.96666 31.45 5.8 31.45 8.1C31.45 10.3667 30.1833 12.75 27.65 15.25C25.15 17.75 22.05 19.5 18.35 20.5C17.65 23.7 16.7833 27.05 15.75 30.55C18.3167 32.3167 20.1667 33.55 21.3 34.25ZM26.5 7.95C26.5 7.11667 26.3167 6.45 25.95 5.95C25.6167 5.45 25.15 5.2 24.55 5.2C23.4167 5.2 22.5167 5.8 21.85 7C21.1833 8.16667 20.5667 10.0333 20 12.6L19.25 16.2C21.6167 15.4667 23.4167 14.3167 24.65 12.75C25.8833 11.15 26.5 9.55 26.5 7.95ZM8.75 30.7C7.98333 30.1333 7.28333 29.85 6.65 29.85C6.01667 29.85 5.53333 30.0167 5.2 30.35C4.86667 30.6833 4.7 31.0333 4.7 31.4C4.7 32.2667 5.13333 32.7 6 32.7C6.9 32.7 7.81667 32.0333 8.75 30.7ZM36.693 36.6C34.093 36.6 32.043 35.7833 30.543 34.15C29.043 32.4833 28.293 30.15 28.293 27.15C28.293 23.4833 29.3763 20.3833 31.543 17.85C33.7096 15.2833 36.5596 14 40.093 14L42.343 14.2C43.143 13.9667 43.893 13.85 44.593 13.85C46.2596 13.85 47.443 14.4167 48.143 15.55C48.8763 16.6833 49.293 18.3 49.393 20.4C50.793 20.3333 52.1263 20.1167 53.393 19.75L54.093 19.55C54.3263 19.7833 54.493 20.4833 54.593 21.65L54.643 22.2C53.143 22.9667 51.3096 23.5667 49.143 24C48.4096 27.5333 46.9596 30.5167 44.793 32.95C42.6263 35.3833 39.9263 36.6 36.693 36.6ZM37.693 26.95C37.693 30.05 38.4763 31.6 40.043 31.6C41.143 31.6 42.2596 30.9 43.393 29.5C44.5596 28.1 45.3596 26.4 45.793 24.4C42.393 24.4 40.693 22.7667 40.693 19.5C40.693 18.9333 40.743 18.35 40.843 17.75C40.5096 17.75 40.2596 17.8 40.093 17.9C39.5263 18.5 38.9763 19.7167 38.443 21.55C37.943 23.35 37.693 25.15 37.693 26.95ZM63.6574 33.85C61.3241 35.1167 59.2408 35.75 57.4074 35.75C55.6074 35.75 54.0908 35.0333 52.8574 33.6C51.6574 32.1333 51.0574 29.9667 51.0574 27.1C51.0574 23.2667 52.0908 20.1 54.1574 17.6C56.2574 15.1 58.7574 13.85 61.6574 13.85C63.0574 13.85 64.6408 14.2333 66.4074 15C68.4741 14.3667 70.8241 14.05 73.4574 14.05H74.3074C74.4741 14.3833 74.5574 15.1333 74.5574 16.3C74.5574 17.4333 74.3408 19.6833 73.9074 23.05C73.5074 26.4167 73.0574 29.2333 72.5574 31.5C71.4908 36.3333 69.8241 40.15 67.5574 42.95C65.3241 45.7833 62.5074 47.2 59.1074 47.2C57.4408 47.2 56.0741 46.8333 55.0074 46.1C53.9741 45.3667 53.4574 44.4333 53.4574 43.3C53.4574 42.1667 53.7241 41.2167 54.2574 40.45C54.8241 39.7167 55.6241 39.1 56.6574 38.6C58.4241 37.7333 60.5908 37.0167 63.1574 36.45L63.6574 33.85ZM63.9574 17.9C62.7908 17.9 61.8908 18.9 61.2574 20.9C60.6574 22.9 60.3574 25.0667 60.3574 27.4C60.3574 29.7333 60.9074 30.9 62.0074 30.9C62.4741 30.9 63.1574 30.6667 64.0574 30.2C64.3241 27.5 64.7574 23.5 65.3574 18.2C64.8574 18 64.3908 17.9 63.9574 17.9ZM58.2574 43.5C58.8908 43.5 59.6074 43.1833 60.4074 42.55C61.2408 41.9167 61.9241 40.8833 62.4574 39.45C58.8241 40.0833 57.0074 41.05 57.0074 42.35C57.0741 43.1167 57.4908 43.5 58.2574 43.5ZM84.1539 36.6C81.5539 36.6 79.5039 35.7833 78.0039 34.15C76.5039 32.4833 75.7539 30.15 75.7539 27.15C75.7539 23.4833 76.8372 20.3833 79.0039 17.85C81.1706 15.2833 84.0206 14 87.5539 14L89.8039 14.2C90.6039 13.9667 91.3539 13.85 92.0539 13.85C93.7206 13.85 94.9039 14.4167 95.6039 15.55C96.3372 16.6833 96.7539 18.3 96.8539 20.4C98.2539 20.3333 99.5872 20.1167 100.854 19.75L101.554 19.55C101.787 19.7833 101.954 20.4833 102.054 21.65L102.104 22.2C100.604 22.9667 98.7706 23.5667 96.6039 24C95.8706 27.5333 94.4206 30.5167 92.2539 32.95C90.0872 35.3833 87.3872 36.6 84.1539 36.6ZM85.1539 26.95C85.1539 30.05 85.9372 31.6 87.5039 31.6C88.6039 31.6 89.7206 30.9 90.8539 29.5C92.0206 28.1 92.8206 26.4 93.2539 24.4C89.8539 24.4 88.1539 22.7667 88.1539 19.5C88.1539 18.9333 88.2039 18.35 88.3039 17.75C87.9706 17.75 87.7206 17.8 87.5539 17.9C86.9872 18.5 86.4372 19.7167 85.9039 21.55C85.4039 23.35 85.1539 25.15 85.1539 26.95Z" fill="#002366"/>
</svg>
