<svg width="33" height="50" viewBox="0 0 33 50" fill="none" xmlns="http://www.w3.org/2000/svg">
<g clip-path="url(#clip0_728_176)">
<path d="M16.0955 32.6248C20.3464 32.6248 23.7926 29.1787 23.7926 24.9278V7.69707C23.7926 3.44614 20.3464 0 16.0955 0C11.8446 0 8.39844 3.44614 8.39844 7.69707V24.9484C8.39844 29.1787 11.8446 32.6248 16.0955 32.6248ZM10.462 7.69707C10.462 4.5811 13.0002 2.06356 16.0955 2.06356C19.1908 2.06356 21.729 4.5811 21.729 7.69707V24.9484C21.729 28.0437 19.2115 30.5819 16.0955 30.5819C13.0002 30.5819 10.462 28.0644 10.462 24.9484V7.69707Z" fill="url(#paint0_linear_728_176)"/>
<path d="M31.428 19.4595C30.8502 19.4595 30.3962 19.9135 30.3962 20.4913V24.7422C30.3962 32.5218 24.2262 39.0014 16.4466 39.1252C8.54313 39.2284 2.06356 32.8313 2.06356 24.9485V20.4913C2.06356 19.9135 1.60957 19.4595 1.03178 19.4595C0.453983 19.4595 0 19.9135 0 20.4913V24.7422C0 33.6774 7.11927 41.0856 16.0545 41.1681C20.6149 41.2094 24.7421 39.3934 27.7136 36.4219C30.6438 33.4917 32.4598 29.4265 32.4598 24.9485V20.4913C32.4598 19.9135 31.9851 19.4595 31.428 19.4595Z" fill="url(#paint1_linear_728_176)"/>
<path d="M24.7836 47.9363H17.2516V41.1885H15.1881V47.9363H7.44975C6.87195 47.9363 6.41797 48.3903 6.41797 48.9681C6.41797 49.5459 6.87195 49.9999 7.44975 49.9999H24.7836C25.3614 49.9999 25.8154 49.5459 25.8154 48.9681C25.8154 48.3903 25.3614 47.9363 24.7836 47.9363Z" fill="url(#paint2_linear_728_176)"/>
</g>
<defs>
<linearGradient id="paint0_linear_728_176" x1="16.0955" y1="0" x2="16.0955" y2="32.6248" gradientUnits="userSpaceOnUse">
<stop stop-color="#002366"/>
<stop offset="1" stop-color="#0058FF"/>
</linearGradient>
<linearGradient id="paint1_linear_728_176" x1="16.2299" y1="19.4595" x2="16.2299" y2="41.1688" gradientUnits="userSpaceOnUse">
<stop stop-color="#002366"/>
<stop offset="1" stop-color="#0058FF"/>
</linearGradient>
<linearGradient id="paint2_linear_728_176" x1="16.1167" y1="41.1885" x2="16.1167" y2="49.9999" gradientUnits="userSpaceOnUse">
<stop stop-color="#002366"/>
<stop offset="1" stop-color="#0058FF"/>
</linearGradient>
<clipPath id="clip0_728_176">
<rect width="32.4598" height="50" fill="white"/>
</clipPath>
</defs>
</svg>
