<svg width="990" height="163" viewBox="0 0 990 163" fill="none" xmlns="http://www.w3.org/2000/svg">
<path d="M0 105.621C298.074 110.887 314.485 -0.323312 476.203 2.00002C479.186 2.00002 482.17 2.00002 485.452 2.00002C654.928 -0.323312 719.675 133.965 989.702 115.534" fill="url(#paint0_linear_228_13)"/>
<path d="M0.892578 91.5469C209.204 100.826 261.952 72.2149 351.058 51.9549C416.025 37.108 488.74 35.252 556.687 45.7687C710.76 69.7404 798.376 112.425 989.402 70.9777L987 162.534H510.5H0.892578V91.5469Z" fill="url(#paint1_linear_228_13)"/>
<path d="M0.892578 86.288C106.389 51.7996 241.687 88.4531 465.197 97.7325C474.436 98.1964 483.972 98.3513 493.508 98.1964C660.694 95.4126 809.999 29.8384 989.403 47.9332" stroke="#C3CBDA" stroke-width="2.66667" stroke-miterlimit="10"/>
<path d="M0.891602 105.465C298.607 110.723 314.7 -0.319879 476.521 1.99997C479.501 1.99997 482.481 1.99997 485.759 1.99997C655.031 -0.319879 719.7 133.767 989.402 115.363" stroke="#C3CBDA" stroke-width="2.66667" stroke-miterlimit="10"/>
<path d="M0.892578 91.5469C209.204 100.826 261.952 72.2149 351.058 51.9549C416.025 37.108 488.74 35.252 556.687 45.7687C710.76 69.7404 798.376 112.425 989.403 70.9777" stroke="#002366" stroke-width="2.66667" stroke-miterlimit="10"/>
<defs>
<linearGradient id="paint0_linear_228_13" x1="494.767" y1="28.688" x2="494.767" y2="1.92819" gradientUnits="userSpaceOnUse">
<stop stop-color="#D6E4FF"/>
<stop offset="1" stop-color="#A4C2FA"/>
</linearGradient>
<linearGradient id="paint1_linear_228_13" x1="495.064" y1="188.927" x2="495.064" y2="39.0645" gradientUnits="userSpaceOnUse">
<stop stop-color="#D9E6FF"/>
<stop offset="1" stop-color="#A4C2FA"/>
</linearGradient>
</defs>
</svg>
